<svg width="198" height="50" viewBox="0 0 198 50" fill="none" xmlns="http://www.w3.org/2000/svg">
<path d="M133.007 0.737973C131.882 1.32838 130.867 2.34314 130.221 3.5424C129.871 4.20661 129.797 4.61251 129.797 6.08853C129.797 7.58299 129.871 7.97045 130.24 8.70845C131.494 11.1808 134.077 12.4723 136.771 11.9741C140.24 11.3653 142.398 7.87819 141.439 4.52026C140.904 2.69369 139.981 1.54978 138.339 0.719522C137.398 0.239819 137.085 0.184467 135.664 0.184467C134.243 0.202918 133.911 0.276718 133.007 0.737973Z" fill="black"/>
<path d="M74.9816 1.69743C74.9263 1.93728 74.7233 2.45388 74.5388 2.85979C74.3543 3.26569 73.7086 4.96311 73.0628 6.64207C72.4355 8.32104 71.8082 9.94466 71.6606 10.2768C71.513 10.5904 71.4023 10.9594 71.4023 11.107C71.4023 11.2546 71.3285 11.4391 71.2547 11.5498C71.1624 11.6421 70.941 12.1218 70.7565 12.6384C70.3691 13.7269 69.7602 15.3321 68.8746 17.6199C68.5241 18.524 68.1182 19.5757 67.989 19.9262C67.8414 20.2768 67.0481 22.3616 66.2362 24.5388C65.406 26.7159 64.4835 29.0775 64.2067 29.7971C63.727 30.9963 62.8045 33.4317 60.4798 39.5757C59.9816 40.8856 59.2436 42.786 58.8377 43.8008C58.4503 44.7971 58.1182 45.6458 58.1182 45.6827C58.1182 45.7196 60.1477 45.7565 62.6385 45.7565C67.1588 45.7565 67.1588 45.7565 67.3433 45.3321C67.4355 45.1107 67.8968 43.893 68.358 42.6199C68.8377 41.3469 69.4466 39.7233 69.7418 39.0222C70.0185 38.3026 70.3506 37.4539 70.4798 37.1218L70.7012 36.5314H79.8709H89.0222L89.834 38.7085C90.7381 41.1439 91.4207 42.9705 91.7898 43.9115C91.9189 44.262 92.1403 44.834 92.251 45.1476L92.4724 45.7565H96.9743H101.476L100.941 44.3174C100.646 43.5424 99.7787 41.2731 99.0222 39.2989C98.2658 37.3247 97.251 34.6679 96.7713 33.3948C96.2916 32.1218 95.5351 30.1661 95.1108 29.0591C94.668 27.9336 94.0591 26.3284 93.727 25.4613C93.4134 24.5941 93.0444 23.5978 92.8968 23.2472C92.7676 22.8967 92.4724 22.1033 92.2326 21.4945C92.0112 20.8856 91.716 20.1292 91.5868 19.834C91.4576 19.5203 90.8488 17.952 90.2399 16.3284C88.9115 12.8044 87.3433 8.65314 86.9927 7.74909C86.8636 7.39853 86.5683 6.60518 86.3285 5.99632C86.1071 5.38746 85.8119 4.631 85.6827 4.3358C85.572 4.02215 85.2399 3.24724 85.0001 2.58303L84.5204 1.38377L79.8156 1.32842L75.1108 1.29152L74.9816 1.69743ZM80.2953 13.524C80.4613 13.9483 81.1071 15.6642 81.7344 17.3432C82.3617 19.0222 82.9706 20.6827 83.1182 21.0332C83.2473 21.3838 83.6532 22.417 84.0038 23.3395C85.2215 26.4391 85.7934 28.0258 85.7934 28.2288C85.7934 28.3579 83.8008 28.4133 79.8156 28.4133H73.8193L74.1698 27.4354C74.9263 25.369 75.1661 24.7233 76.9374 20.0554C79.2252 14.0775 79.4466 13.4502 79.5942 13.0443C79.7602 12.5461 79.9632 12.6753 80.2953 13.524Z" fill="black"/>
<path d="M148.155 10.332V14.5756H145.665H143.174L143.211 18.2102L143.266 21.8634L145.702 21.9187L148.137 21.9741L148.211 30.1291C148.285 38.9483 148.303 39.0774 149.355 41.2361C150.037 42.6198 150.591 43.3025 151.753 44.225C154.373 46.2545 159.189 46.7158 163.1 45.2951L163.746 45.0553L163.801 41.2545L163.838 37.4538L163.34 37.5829C163.045 37.6567 161.919 37.7305 160.794 37.7305C158.967 37.7121 158.69 37.6752 158.1 37.2877C157.288 36.7342 156.698 35.8671 156.458 34.8339C156.366 34.3911 156.273 31.3283 156.273 27.9888V21.9556H160.056H163.838V18.2656V14.5756L160.111 14.5387L156.366 14.4833L156.31 10.2767L156.273 6.08847H152.214H148.155V10.332Z" fill="black"/>
<path d="M179.059 14.1143C178.967 14.1512 178.266 14.3173 177.509 14.4833C172.399 15.6641 167.934 19.7785 166.163 24.9446C163.506 32.7121 167.177 41.3468 174.631 44.8154C177.214 46.0331 178.118 46.2177 181.55 46.2177C184.391 46.2177 184.705 46.1808 186.144 45.701C190.535 44.225 193.506 41.8265 195.701 37.9151C196.882 35.7933 197.786 32.4538 197.786 30.166C197.786 27.7306 196.882 24.5202 195.498 22.1033C192.602 16.9926 187.417 14.0036 181.458 14.0405C180.24 14.0405 179.17 14.0774 179.059 14.1143ZM182.952 22.3431C185.425 22.8044 187.602 24.4833 188.709 26.8081C190.203 29.9077 189.428 33.7638 186.864 36.0701C185.258 37.5092 183.819 38.0627 181.642 38.0811C177.362 38.118 174.115 35.2767 173.524 30.9778C173.118 27.952 175.129 24.3726 177.971 23.0258C179.76 22.1771 181.089 21.9926 182.952 22.3431Z" fill="black"/>
<path d="M96.5869 14.8893C96.8636 15.5535 99.4835 22.4354 99.6681 22.9705C99.7603 23.2657 99.9633 23.7638 100.092 24.0775C100.24 24.3727 100.517 25.1292 100.738 25.738C101.218 27.048 101.937 28.9483 102.343 29.9816C102.491 30.3875 102.694 30.8856 102.768 31.0886C102.841 31.2915 103.044 31.7897 103.192 32.1956C103.506 32.9705 103.912 34.0775 105.074 37.1771C105.461 38.1919 106.199 40.1476 106.734 41.5129C107.27 42.8782 107.841 44.3912 108.026 44.8893L108.358 45.7565L112.694 45.7196L117.048 45.6642L117.675 44.0037C118.008 43.0812 118.413 42.048 118.543 41.6974C118.69 41.3469 119.723 38.5609 120.849 35.5166C121.974 32.4723 122.971 29.7786 123.081 29.5203C123.192 29.2805 123.967 27.1956 124.816 24.9078C127.823 16.845 128.432 15.2583 128.616 14.9262C128.782 14.5941 128.653 14.5757 124.41 14.5757H120.019L119.484 15.9963C119.207 16.7897 118.413 18.893 117.749 20.6642C117.085 22.4354 116.31 24.5203 116.033 25.2768C115.757 26.0332 115.314 27.2325 115.037 27.952C114.779 28.6531 114.41 29.6495 114.225 30.1661C114.041 30.6642 113.616 31.8081 113.284 32.6937C112.952 33.5978 112.62 34.3174 112.546 34.3174C112.472 34.3174 112.362 34.1329 112.306 33.893C112.214 33.524 110.498 28.8745 109.889 27.3063C109.742 26.9557 109.317 25.8303 108.948 24.8155C108.579 23.8007 108.155 22.6753 108.026 22.3247C107.897 21.9742 107.472 20.8487 107.103 19.834C106.365 17.8782 105.646 15.9225 105.314 15.0738L105.129 14.5757H100.794C96.7345 14.5757 96.4577 14.5941 96.5869 14.8893Z" fill="black"/>
<path d="M131.55 30.1661V45.7565H135.701H139.852V30.1661V14.5757H135.701H131.55V30.1661Z" fill="black"/>
<circle cx="18.5421" cy="9.50186" r="6.18081" fill="#A53FF1"/>
<circle cx="43.9115" cy="38.3763" r="9.5941" fill="#EC1540"/>
<circle cx="15.6827" cy="34.3173" r="15.6827" fill="#15EC40"/>
<circle cx="40.0362" cy="13.0996" r="13.0996" fill="#1596EC"/>
</svg>
