<svg width="1920" height="987" viewBox="0 0 1920 987" fill="none" xmlns="http://www.w3.org/2000/svg">
<g clip-path="url(#clip0_2017_832)">
<path d="M969.096 459.623H960.024L946.124 445.297H955.342L969.096 459.623Z" fill="white"/>
<path d="M986.362 459.623H977.29L963.389 445.297H972.607L986.362 459.623Z" fill="white"/>
<path d="M1003.63 459.623H994.409L980.655 445.297H989.873L1003.63 459.623Z" fill="white"/>
<path d="M1020.89 459.623H1011.68L997.921 445.297H1006.99L1020.89 459.623Z" fill="white"/>
<path d="M1038.16 459.623H1028.94L1015.19 445.297H1024.26L1038.16 459.623Z" fill="white"/>
<path d="M1055.42 459.623H1046.21L1032.45 445.297H1041.52L1055.42 459.623Z" fill="white"/>
<path d="M1072.54 459.623H1063.47L1049.72 445.297H1058.79L1072.54 459.623Z" fill="white"/>
<path d="M1089.81 459.623H1080.74L1066.84 445.297H1076.06L1089.81 459.623Z" fill="white"/>
<path d="M1091.57 312.556H773.612L691.38 230.396H509.211L422.15 143.413H300.265C299.826 143.413 299.533 143.121 299.533 142.682C299.533 142.243 299.826 141.951 300.265 141.951H422.735L509.796 228.934H691.965L774.197 311.094H1091.57C1092.01 311.094 1092.3 311.386 1092.3 311.825C1092.3 312.263 1092.01 312.556 1091.57 312.556Z" fill="white"/>
<path d="M444.244 235.075H81.9543C81.5153 235.075 81.2227 234.782 81.2227 234.344C81.2227 233.905 81.5153 233.613 81.9543 233.613H443.659L547.107 130.256H680.405L757.37 207.152H837.7L1035.38 9.64858C1035.67 9.3562 1036.11 9.3562 1036.4 9.64858C1036.7 9.94096 1036.7 10.3795 1036.4 10.6719L838.285 208.614H756.785L679.82 131.718H547.693L444.244 235.075Z" fill="white"/>
<path d="M1091.57 468.833H815.02L605.489 259.488H467.07L378.692 171.189H125.411C124.534 171.189 123.948 170.604 123.948 169.727C123.948 168.85 124.534 168.265 125.411 168.265H379.863L468.24 256.565H606.66L816.191 465.909H1091.57C1092.44 465.909 1093.03 466.494 1093.03 467.371C1093.03 468.102 1092.44 468.833 1091.57 468.833Z" fill="white"/>
<path d="M815.752 426.584H583.102L416.004 259.635H181.013C180.574 259.635 180.282 259.342 180.282 258.904C180.282 258.465 180.574 258.173 181.013 258.173H416.589L583.688 425.122H815.167L977.583 262.851H1127.41C1127.85 262.851 1128.15 263.143 1128.15 263.582C1128.15 264.02 1127.85 264.313 1127.41 264.313H978.168L815.752 426.584Z" fill="white"/>
<path d="M322.213 203.936H234.421C233.982 203.936 233.689 203.643 233.689 203.205C233.689 202.766 233.982 202.474 234.421 202.474H321.628L413.81 110.374H569.934L633.583 173.967H786.049L954.171 5.84761C954.464 5.55523 954.903 5.55523 955.196 5.84761C955.488 6.13999 955.488 6.57856 955.196 6.87095L786.634 175.429H633.144L569.495 111.836H414.395L322.213 203.936Z" fill="white"/>
<path d="M855.844 510.351H748.444L570.519 332.437H346.356L293.388 279.516H74.1994C73.7604 279.516 73.4678 279.224 73.4678 278.785C73.4678 278.347 73.7604 278.055 74.1994 278.055H293.973L346.941 330.976H571.104L749.176 508.89H855.405L966.609 397.785H1091.86C1092.3 397.785 1092.59 398.077 1092.59 398.516C1092.59 398.954 1092.3 399.247 1091.86 399.247H967.34L855.844 510.351Z" fill="white"/>
<path d="M302.02 117.83H186.866C185.988 117.83 185.403 117.245 185.403 116.368C185.403 115.491 185.988 114.906 186.866 114.906H300.85L366.255 49.7048H616.024L665.334 0.438572C665.919 -0.146191 666.797 -0.146191 667.383 0.438572C667.968 1.02333 667.968 1.90048 667.383 2.48524L617.195 52.6286H367.426L302.02 117.83Z" fill="white"/>
<path d="M-53.5387 373.517C-53.9777 373.517 -54.2704 373.371 -54.563 373.078C-55.1483 372.494 -55.1483 371.617 -54.563 371.032L24.5964 291.943H274.512L343.429 360.798H468.24C469.118 360.798 469.704 361.383 469.704 362.26C469.704 363.137 469.118 363.722 468.24 363.722H342.258L273.341 294.866H25.767L-52.5145 373.078C-52.8071 373.371 -53.2461 373.517 -53.5387 373.517Z" fill="white"/>
<path d="M256.369 143.413H148.53L89.1241 84.0596H-53.5384C-53.9774 84.0596 -54.27 83.7672 -54.27 83.3286C-54.27 82.8901 -53.9774 82.5977 -53.5384 82.5977H89.8557L149.262 141.951H256.369C256.807 141.951 257.1 142.243 257.1 142.682C257.1 143.121 256.807 143.413 256.369 143.413Z" fill="white"/>
<path d="M186.866 203.936H107.56L30.1569 126.455H-66.2684C-66.7074 126.455 -67 126.162 -67 125.724C-67 125.285 -66.7074 124.993 -66.2684 124.993H30.7421L108.146 202.328H186.866C187.305 202.328 187.598 202.62 187.598 203.059C187.598 203.497 187.305 203.936 186.866 203.936Z" fill="white"/>
<path d="M82.8323 234.928C82.6859 234.928 82.3933 234.928 82.247 234.782L14.5005 167.096H-66.2684C-66.7074 167.096 -67 166.803 -67 166.365C-67 165.926 -66.7074 165.634 -66.2684 165.634H15.0858L83.2712 233.759C83.5638 234.051 83.5638 234.49 83.2712 234.782C83.1249 234.928 82.9786 234.928 82.8323 234.928Z" fill="white"/>
<path d="M892.424 260.365H790.146C789.268 260.365 788.683 259.781 788.683 258.904C788.683 258.026 789.268 257.442 790.146 257.442H891.253L977.583 171.189H1022.5C1023.38 171.189 1023.97 171.774 1023.97 172.651C1023.97 173.528 1023.38 174.113 1022.5 174.113H978.753L892.424 260.365Z" fill="white"/>
<path d="M855.551 520C849.844 520 845.162 515.322 845.162 509.62C845.162 503.919 849.844 499.241 855.551 499.241C861.257 499.241 865.94 503.919 865.94 509.62C865.94 515.322 861.257 520 855.551 520ZM855.551 500.703C850.576 500.703 846.625 504.65 846.625 509.62C846.625 514.591 850.576 518.538 855.551 518.538C860.526 518.538 864.476 514.591 864.476 509.62C864.476 504.65 860.526 500.703 855.551 500.703Z" fill="white"/>
<path d="M855.551 516.345C859.268 516.345 862.282 513.334 862.282 509.62C862.282 505.906 859.268 502.896 855.551 502.896C851.834 502.896 848.82 505.906 848.82 509.62C848.82 513.334 851.834 516.345 855.551 516.345Z" fill="white"/>
<path d="M773.611 322.204C767.905 322.204 763.223 317.526 763.223 311.825C763.223 306.123 767.905 301.445 773.611 301.445C779.318 301.445 784 306.123 784 311.825C784 317.526 779.318 322.204 773.611 322.204ZM773.611 303.053C768.636 303.053 764.686 307 764.686 311.971C764.686 316.941 768.636 320.888 773.611 320.888C778.586 320.888 782.537 316.941 782.537 311.971C782.537 307 778.586 303.053 773.611 303.053Z" fill="white"/>
<path d="M773.612 318.549C777.329 318.549 780.342 315.539 780.342 311.825C780.342 308.111 777.329 305.1 773.612 305.1C769.894 305.1 766.881 308.111 766.881 311.825C766.881 315.539 769.894 318.549 773.612 318.549Z" fill="white"/>
<path d="M779.61 269.283C773.904 269.283 769.222 264.605 769.222 258.904C769.222 253.202 773.904 248.524 779.61 248.524C785.317 248.524 789.999 253.202 789.999 258.904C789.999 264.605 785.317 269.283 779.61 269.283ZM779.61 249.986C774.636 249.986 770.685 253.933 770.685 258.904C770.685 263.874 774.636 267.821 779.61 267.821C784.585 267.821 788.536 263.874 788.536 258.904C788.536 254.079 784.439 249.986 779.61 249.986Z" fill="white"/>
<path d="M779.611 265.628C783.328 265.628 786.341 262.618 786.341 258.904C786.341 255.19 783.328 252.179 779.611 252.179C775.893 252.179 772.88 255.19 772.88 258.904C772.88 262.618 775.893 265.628 779.611 265.628Z" fill="white"/>
<path d="M671.626 258.904C671.626 262.558 668.553 265.628 664.895 265.628C661.237 265.628 658.165 262.558 658.165 258.904C658.165 255.249 661.237 252.179 664.895 252.179C668.553 252.179 671.626 255.249 671.626 258.904Z" fill="white"/>
<path d="M1019.87 372.786C1023.59 372.786 1026.6 369.775 1026.6 366.061C1026.6 362.347 1023.59 359.337 1019.87 359.337C1016.15 359.337 1013.14 362.347 1013.14 366.061C1013.14 369.775 1016.15 372.786 1019.87 372.786Z" fill="white"/>
<path d="M589.394 142.243C583.688 142.243 579.005 137.565 579.005 131.864C579.005 126.162 583.688 121.484 589.394 121.484C595.101 121.484 599.783 126.162 599.783 131.864C599.783 137.565 595.101 142.243 589.394 142.243ZM589.394 122.946C584.419 122.946 580.469 126.893 580.469 131.864C580.469 136.834 584.419 140.782 589.394 140.782C594.369 140.782 598.32 136.834 598.32 131.864C598.32 127.04 594.223 122.946 589.394 122.946Z" fill="white"/>
<path d="M589.394 138.589C593.112 138.589 596.125 135.578 596.125 131.864C596.125 128.15 593.112 125.139 589.394 125.139C585.677 125.139 582.664 128.15 582.664 131.864C582.664 135.578 585.677 138.589 589.394 138.589Z" fill="white"/>
<path d="M478.483 372.786C472.776 372.786 468.094 368.108 468.094 362.406C468.094 356.705 472.776 352.027 478.483 352.027C484.189 352.027 488.872 356.705 488.872 362.406C488.872 368.108 484.189 372.786 478.483 372.786ZM478.483 353.489C473.508 353.489 469.557 357.436 469.557 362.406C469.557 367.377 473.508 371.324 478.483 371.324C483.458 371.324 487.409 367.377 487.409 362.406C487.409 357.436 483.458 353.489 478.483 353.489Z" fill="white"/>
<path d="M478.483 369.131C482.2 369.131 485.214 366.12 485.214 362.407C485.214 358.693 482.2 355.682 478.483 355.682C474.766 355.682 471.752 358.693 471.752 362.407C471.752 366.12 474.766 369.131 478.483 369.131Z" fill="white"/>
<path d="M290.607 153.062C284.901 153.062 280.219 148.383 280.219 142.682C280.219 136.981 284.901 132.303 290.607 132.303C296.314 132.303 300.996 136.981 300.996 142.682C300.996 148.383 296.314 153.062 290.607 153.062ZM290.607 133.764C285.633 133.764 281.682 137.712 281.682 142.682C281.682 147.653 285.633 151.6 290.607 151.6C295.582 151.6 299.533 147.653 299.533 142.682C299.533 137.858 295.582 133.764 290.607 133.764Z" fill="white"/>
<path d="M290.608 149.407C294.325 149.407 297.338 146.396 297.338 142.682C297.338 138.968 294.325 135.957 290.608 135.957C286.89 135.957 283.877 138.968 283.877 142.682C283.877 146.396 286.89 149.407 290.608 149.407Z" fill="white"/>
<path d="M179.257 123.677C175.307 123.677 171.941 120.461 171.941 116.368C171.941 112.274 175.16 109.058 179.257 109.058C183.208 109.058 186.573 112.274 186.573 116.368C186.573 120.461 183.354 123.677 179.257 123.677ZM179.257 110.52C176.038 110.52 173.405 113.152 173.405 116.368C173.405 119.584 176.038 122.215 179.257 122.215C182.476 122.215 185.11 119.584 185.11 116.368C185.11 113.152 182.476 110.52 179.257 110.52Z" fill="white"/>
<path d="M183.94 116.368C183.94 118.853 181.891 120.9 179.404 120.9C176.916 120.9 174.868 118.853 174.868 116.368C174.868 113.882 176.916 111.836 179.404 111.836C181.891 111.836 183.94 113.882 183.94 116.368Z" fill="white"/>
<path d="M30.4493 133.033C26.4987 133.033 23.1333 129.817 23.1333 125.724C23.1333 121.631 26.3524 118.414 30.4493 118.414C34.4 118.414 37.7654 121.631 37.7654 125.724C37.7654 129.817 34.4 133.033 30.4493 133.033ZM30.4493 120.022C27.2303 120.022 24.5965 122.654 24.5965 125.87C24.5965 129.086 27.2303 131.718 30.4493 131.718C33.6684 131.718 36.3022 129.086 36.3022 125.87C36.3022 122.654 33.6684 120.022 30.4493 120.022Z" fill="white"/>
<path d="M34.9854 125.724C34.9854 128.209 32.937 130.256 30.4495 130.256C27.9621 130.256 25.9136 128.209 25.9136 125.724C25.9136 123.239 27.9621 121.192 30.4495 121.192C32.937 121.192 34.9854 123.239 34.9854 125.724Z" fill="white"/>
<path d="M173.99 266.213C170.039 266.213 166.674 262.997 166.674 258.904C166.674 254.956 169.893 251.594 173.99 251.594C177.941 251.594 181.306 254.81 181.306 258.904C181.306 262.997 178.087 266.213 173.99 266.213ZM173.99 253.056C170.771 253.056 168.137 255.687 168.137 258.904C168.137 262.12 170.771 264.751 173.99 264.751C177.209 264.751 179.843 262.12 179.843 258.904C179.843 255.687 177.209 253.056 173.99 253.056Z" fill="white"/>
<path d="M178.672 258.904C178.672 261.389 176.623 263.435 174.136 263.435C171.649 263.435 169.6 261.389 169.6 258.904C169.6 256.418 171.649 254.372 174.136 254.372C176.623 254.372 178.672 256.418 178.672 258.904Z" fill="white"/>
<path d="M67.6149 286.095C63.6642 286.095 60.2988 282.879 60.2988 278.785C60.2988 274.838 63.5179 271.476 67.6149 271.476C71.5655 271.476 74.9309 274.692 74.9309 278.785C74.9309 282.879 71.7118 286.095 67.6149 286.095ZM67.6149 273.084C64.3958 273.084 61.762 275.715 61.762 278.932C61.762 282.148 64.3958 284.779 67.6149 284.779C70.8339 284.779 73.4677 282.148 73.4677 278.932C73.4677 275.715 70.8339 273.084 67.6149 273.084Z" fill="white"/>
<path d="M72.297 278.932C72.297 281.417 70.2485 283.464 67.761 283.464C65.2736 283.464 63.2251 281.417 63.2251 278.932C63.2251 276.446 65.2736 274.4 67.761 274.4C70.2485 274.4 72.297 276.3 72.297 278.932Z" fill="white"/>
<path d="M382.497 150.869C387.022 150.869 390.691 147.203 390.691 142.682C390.691 138.161 387.022 134.495 382.497 134.495C377.971 134.495 374.303 138.161 374.303 142.682C374.303 147.203 377.971 150.869 382.497 150.869Z" fill="white"/>
<path d="M1023.24 173.248C1023.45 168.731 1019.95 164.904 1015.43 164.699C1010.91 164.494 1007.08 167.99 1006.87 172.506C1006.67 177.023 1010.16 180.851 1014.69 181.056C1019.21 181.261 1023.04 177.765 1023.24 173.248Z" fill="white"/>
<path d="M937.49 311.825C937.49 316.356 933.832 320.011 929.297 320.011C924.761 320.011 921.103 316.356 921.103 311.825C921.103 307.293 924.761 303.638 929.297 303.638C933.832 303.784 937.49 307.439 937.49 311.825Z" fill="white"/>
<path d="M902.813 467.371C902.813 470.295 900.471 472.78 897.399 472.78C894.472 472.78 891.985 470.441 891.985 467.371C891.985 464.448 894.326 461.962 897.399 461.962C900.471 461.962 902.813 464.448 902.813 467.371Z" fill="white"/>
<path d="M670.163 425.853C670.163 428.777 667.822 431.262 664.749 431.262C661.822 431.262 659.335 428.923 659.335 425.853C659.335 422.929 661.676 420.444 664.749 420.444C667.822 420.444 670.163 422.929 670.163 425.853Z" fill="white"/>
<path d="M723.862 183.031C728.388 183.031 732.056 179.365 732.056 174.844C732.056 170.323 728.388 166.657 723.862 166.657C719.337 166.657 715.668 170.323 715.668 174.844C715.668 179.365 719.337 183.031 723.862 183.031Z" fill="white"/>
<path d="M816.63 176.452C816.63 179.668 813.996 182.153 810.923 182.153C807.704 182.153 805.217 179.522 805.217 176.452C805.217 173.382 807.851 170.751 810.923 170.751C813.996 170.604 816.63 173.236 816.63 176.452Z" fill="white"/>
<path d="M837.115 186.685C837.115 190.048 834.335 192.825 830.969 192.825C827.604 192.825 824.824 190.048 824.824 186.685C824.824 183.323 827.604 180.545 830.969 180.545C834.481 180.545 837.115 183.323 837.115 186.685Z" fill="white"/>
<path d="M489.75 342.525C495.649 342.525 500.431 337.747 500.431 331.853C500.431 325.959 495.649 321.181 489.75 321.181C483.851 321.181 479.068 325.959 479.068 331.853C479.068 337.747 483.851 342.525 489.75 342.525Z" fill="white"/>
<path d="M773.758 436.525C779.657 436.525 784.44 431.747 784.44 425.853C784.44 419.959 779.657 415.181 773.758 415.181C767.859 415.181 763.077 419.959 763.077 425.853C763.077 431.747 767.859 436.525 773.758 436.525Z" fill="white"/>
<path d="M448.78 234.344C448.78 237.121 446.585 239.314 443.805 239.314C441.025 239.314 438.83 237.121 438.83 234.344C438.83 231.566 441.025 229.373 443.805 229.373C446.585 229.373 448.78 231.566 448.78 234.344Z" fill="white"/>
<path d="M278.317 293.405C278.317 296.182 276.122 298.375 273.342 298.375C270.562 298.375 268.367 296.182 268.367 293.405C268.367 290.627 270.562 288.434 273.342 288.434C276.122 288.434 278.317 290.627 278.317 293.405Z" fill="white"/>
<path d="M479.068 210.368C472.923 210.368 467.948 205.398 467.948 199.258C467.948 193.118 472.923 188.147 479.068 188.147C485.214 188.147 490.188 193.118 490.188 199.258C490.188 205.398 485.214 210.368 479.068 210.368ZM479.068 189.755C473.801 189.755 469.411 194.141 469.411 199.404C469.411 204.667 473.801 209.053 479.068 209.053C484.336 209.053 488.725 204.667 488.725 199.404C488.725 193.995 484.336 189.755 479.068 189.755Z" fill="white"/>
<path d="M486.238 199.258C486.238 203.205 483.019 206.421 479.068 206.421C475.118 206.421 471.898 203.205 471.898 199.258C471.898 195.311 475.118 192.094 479.068 192.094C483.019 192.094 486.238 195.311 486.238 199.258Z" fill="white"/>
<path d="M234.421 211.392C238.946 211.392 242.614 207.726 242.614 203.205C242.614 198.684 238.946 195.018 234.421 195.018C229.895 195.018 226.227 198.684 226.227 203.205C226.227 207.726 229.895 211.392 234.421 211.392Z" fill="white"/>
<path d="M186.866 211.392C191.392 211.392 195.06 207.726 195.06 203.205C195.06 198.684 191.392 195.018 186.866 195.018C182.341 195.018 178.672 198.684 178.672 203.205C178.672 207.726 182.341 211.392 186.866 211.392Z" fill="white"/>
<path d="M82.8321 242.384C87.3575 242.384 91.0261 238.719 91.0261 234.197C91.0261 229.676 87.3575 226.011 82.8321 226.011C78.3067 226.011 74.6382 229.676 74.6382 234.197C74.6382 238.719 78.3067 242.384 82.8321 242.384Z" fill="white"/>
<path d="M21.9631 166.365C21.9631 170.897 18.3051 174.552 13.7691 174.552C9.23321 174.552 5.5752 170.897 5.5752 166.365C5.5752 161.833 9.23321 158.178 13.7691 158.178C18.3051 158.178 21.9631 161.833 21.9631 166.365Z" fill="white"/>
<path d="M355.574 172.943C357.351 172.943 358.793 171.504 358.793 169.727C358.793 167.951 357.351 166.511 355.574 166.511C353.796 166.511 352.354 167.951 352.354 169.727C352.354 171.504 353.796 172.943 355.574 172.943Z" fill="white"/>
<path d="M422.296 148.237C425.367 148.237 427.856 145.75 427.856 142.682C427.856 139.614 425.367 137.127 422.296 137.127C419.225 137.127 416.736 139.614 416.736 142.682C416.736 145.75 419.225 148.237 422.296 148.237Z" fill="white"/>
<path d="M260.612 148.237C263.683 148.237 266.172 145.75 266.172 142.682C266.172 139.614 263.683 137.127 260.612 137.127C257.541 137.127 255.052 139.614 255.052 142.682C255.052 145.75 257.541 148.237 260.612 148.237Z" fill="white"/>
<path d="M125.412 175.283C128.483 175.283 130.972 172.795 130.972 169.727C130.972 166.659 128.483 164.172 125.412 164.172C122.341 164.172 119.852 166.659 119.852 169.727C119.852 172.795 122.341 175.283 125.412 175.283Z" fill="white"/>
<path d="M740.397 84.0596H280.95C280.511 84.0596 280.219 83.7672 280.219 83.3287C280.219 82.8901 280.511 82.5977 280.95 82.5977H740.397C740.836 82.5977 741.129 82.8901 741.129 83.3287C741.129 83.7672 740.836 84.0596 740.397 84.0596Z" fill="white"/>
<path d="M276.853 88.8839C279.924 88.8839 282.413 86.3967 282.413 83.3286C282.413 80.2606 279.924 77.7734 276.853 77.7734C273.782 77.7734 271.293 80.2606 271.293 83.3286C271.293 86.3967 273.782 88.8839 276.853 88.8839Z" fill="white"/>
<path d="M740.397 88.8839C743.467 88.8839 745.957 86.3967 745.957 83.3286C745.957 80.2606 743.467 77.7734 740.397 77.7734C737.326 77.7734 734.836 80.2606 734.836 83.3286C734.836 86.3967 737.326 88.8839 740.397 88.8839Z" fill="white"/>
<path d="M812.094 175.575C811.947 175.575 811.655 175.575 811.509 175.429C811.216 175.136 811.216 174.698 811.509 174.405L981.972 3.94716C982.265 3.65478 982.704 3.65478 982.996 3.94716C983.289 4.23954 983.289 4.67811 982.996 4.97049L812.533 175.283C812.386 175.429 812.24 175.575 812.094 175.575Z" fill="white"/>
<path d="M833.164 185.077C833.018 185.077 832.725 185.077 832.579 184.931C832.286 184.639 832.286 184.2 832.579 183.908L1003.19 13.4495C1003.48 13.1572 1003.92 13.1572 1004.21 13.4495C1004.51 13.7419 1004.51 14.1805 1004.21 14.4729L833.749 184.785C833.603 184.931 833.457 185.077 833.164 185.077Z" fill="white"/>
<path d="M1017.24 366.792H771.856L664.31 259.342C664.018 259.05 664.018 258.611 664.31 258.319C664.603 258.026 665.042 258.026 665.335 258.319L772.441 365.33H1017.24C1017.67 365.33 1017.97 365.623 1017.97 366.061C1017.97 366.5 1017.67 366.792 1017.24 366.792Z" fill="white"/>
<path d="M493.554 279.955H484.336L470.582 265.628H479.8L493.554 279.955Z" fill="white"/>
<path d="M510.819 279.955H501.601L487.847 265.628H496.919L510.819 279.955Z" fill="white"/>
<path d="M528.086 279.955H518.867L505.113 265.628H514.185L528.086 279.955Z" fill="white"/>
<path d="M545.205 279.955H536.133L522.379 265.628H531.451L545.205 279.955Z" fill="white"/>
<path d="M562.471 279.955H553.399L539.499 265.628H548.717L562.471 279.955Z" fill="white"/>
<path d="M579.737 279.955H570.665L556.764 265.628H565.982L579.737 279.955Z" fill="white"/>
<path d="M597.003 279.955H587.784L574.03 265.628H583.248L597.003 279.955Z" fill="white"/>
<path d="M614.268 279.955H605.05L591.296 265.628H600.368L614.268 279.955Z" fill="white"/>
<path d="M326.017 411.673H309.044L283.438 385.212H300.411L326.017 411.673Z" fill="white"/>
<path d="M358.061 411.673H341.088L315.482 385.212H332.455L358.061 411.673Z" fill="white"/>
<path d="M389.959 411.673H373.132L347.526 385.212H364.353L389.959 411.673Z" fill="white"/>
<path d="M422.003 411.673H405.03L379.424 385.212H396.397L422.003 411.673Z" fill="white"/>
<path d="M454.047 411.673H437.074L411.468 385.212H428.441L454.047 411.673Z" fill="white"/>
<path d="M485.945 411.673H468.972L443.366 385.212H460.339L485.945 411.673Z" fill="white"/>
<path d="M517.989 411.673H501.016L475.41 385.212H492.383L517.989 411.673Z" fill="white"/>
<path d="M549.887 411.673H532.914L507.308 385.212H524.281L549.887 411.673Z" fill="white"/>
<path d="M31.1811 340.039H41.5699L56.2019 326.444L39.8141 311.094H29.4253L45.8132 326.444L31.1811 340.039Z" fill="white"/>
<path d="M47.4228 340.039H57.8116L72.2973 326.444L56.0557 311.094H45.667L61.9086 326.444L47.4228 340.039Z" fill="white"/>
<path d="M63.6645 340.039H74.0533L88.539 326.444L72.2974 311.094H61.9087L78.1503 326.444L63.6645 340.039Z" fill="white"/>
<path d="M79.9058 340.039H90.2945L104.78 326.444L88.5387 311.094H78.1499L94.3915 326.444L79.9058 340.039Z" fill="white"/>
<path d="M96.1474 340.039H106.536L121.022 326.444L104.78 311.094H94.3916L110.633 326.444L96.1474 340.039Z" fill="white"/>
<path d="M112.389 340.039H122.778L137.264 326.444L121.022 311.094H110.633L126.875 326.444L112.389 340.039Z" fill="white"/>
<path d="M128.631 340.039H139.02L153.505 326.444L137.264 311.094H126.875L143.117 326.444L128.631 340.039Z" fill="white"/>
<path d="M144.872 340.039H155.261L169.747 326.444L153.505 311.094H143.116L159.358 326.444L144.872 340.039Z" fill="white"/>
<path d="M160.967 340.039H171.503L185.988 326.444L169.747 311.094H159.358L175.599 326.444L160.967 340.039Z" fill="white"/>
<path d="M177.209 340.039H187.598L202.23 326.444L185.988 311.094H175.6L191.841 326.444L177.209 340.039Z" fill="white"/>
<path d="M193.451 340.039H203.839L218.471 326.444L202.084 311.094H191.695L208.083 326.444L193.451 340.039Z" fill="white"/>
<path d="M677.333 121.046H685.965L698.11 109.789L684.502 97.2168H676.016L689.477 109.789L677.333 121.046Z" fill="white"/>
<path d="M690.794 121.046H699.427L711.571 109.789L697.963 97.2168H689.331L702.938 109.789L690.794 121.046Z" fill="white"/>
<path d="M704.255 121.046H712.888L724.886 109.789L711.425 97.2168H702.792L716.4 109.789L704.255 121.046Z" fill="white"/>
<path d="M717.717 121.046H726.35L738.348 109.789L724.887 97.2168H716.254L729.715 109.789L717.717 121.046Z" fill="white"/>
<path d="M731.179 121.046H739.811L751.81 109.789L738.348 97.2168H729.715L743.177 109.789L731.179 121.046Z" fill="white"/>
<path d="M744.64 121.046H753.273L765.271 109.789L751.81 97.2168H743.177L756.638 109.789L744.64 121.046Z" fill="white"/>
<path d="M758.101 121.046H766.734L778.733 109.789L765.271 97.2168H756.638L770.1 109.789L758.101 121.046Z" fill="white"/>
<path d="M771.563 121.046H780.049L792.194 109.789L778.733 97.2168H770.1L783.561 109.789L771.563 121.046Z" fill="white"/>
<path d="M784.878 121.046H793.511L805.655 109.789L792.048 97.2168H783.561L797.023 109.789L784.878 121.046Z" fill="white"/>
<path d="M798.34 121.046H806.973L819.117 109.789L805.509 97.2168H796.876L810.484 109.789L798.34 121.046Z" fill="white"/>
<path d="M811.801 121.046H820.434L832.432 109.789L818.971 97.2168H810.338L823.946 109.789L811.801 121.046Z" fill="white"/>
</g>
<g clip-path="url(#clip1_2017_832)">
<path d="M2358.57 779.556H2040.61L1958.38 697.396H1776.21L1689.15 610.413H1567.26C1566.83 610.413 1566.53 610.121 1566.53 609.682C1566.53 609.243 1566.83 608.951 1567.26 608.951H1689.74L1776.8 695.934H1958.96L2041.2 778.094H2358.57C2359.01 778.094 2359.3 778.386 2359.3 778.825C2359.3 779.263 2359.01 779.556 2358.57 779.556Z" fill="white"/>
<path d="M1711.24 702.075H1348.95C1348.52 702.075 1348.22 701.782 1348.22 701.344C1348.22 700.905 1348.52 700.613 1348.95 700.613H1710.66L1814.11 597.256H1947.41L2024.37 674.152H2104.7L2302.38 476.649C2302.67 476.356 2303.11 476.356 2303.4 476.649C2303.7 476.941 2303.7 477.38 2303.4 477.672L2105.29 675.614H2023.78L1946.82 598.718H1814.69L1711.24 702.075Z" fill="white"/>
<path d="M2358.57 935.833H2082.02L1872.49 726.488H1734.07L1645.69 638.189H1392.41C1391.53 638.189 1390.95 637.604 1390.95 636.727C1390.95 635.85 1391.53 635.265 1392.41 635.265H1646.86L1735.24 723.565H1873.66L2083.19 932.909H2358.57C2359.44 932.909 2360.03 933.494 2360.03 934.371C2360.03 935.102 2359.44 935.833 2358.57 935.833Z" fill="white"/>
<path d="M2082.75 893.584H1850.1L1683 726.635H1448.01C1447.57 726.635 1447.28 726.342 1447.28 725.904C1447.28 725.465 1447.57 725.173 1448.01 725.173H1683.59L1850.69 892.122H2082.17L2244.58 729.851H2394.42C2394.85 729.851 2395.15 730.143 2395.15 730.582C2395.15 731.02 2394.85 731.313 2394.42 731.313H2245.17L2082.75 893.584Z" fill="white"/>
<path d="M1589.21 670.936H1501.42C1500.98 670.936 1500.69 670.643 1500.69 670.205C1500.69 669.766 1500.98 669.474 1501.42 669.474H1588.63L1680.81 577.374H1836.93L1900.58 640.967H2053.05L2221.17 472.848C2221.46 472.555 2221.9 472.555 2222.2 472.848C2222.49 473.14 2222.49 473.579 2222.2 473.871L2053.63 642.429H1900.14L1836.49 578.836H1681.39L1589.21 670.936Z" fill="white"/>
<path d="M2122.84 977.351H2015.44L1837.52 799.437H1613.36L1560.39 746.516H1341.2C1340.76 746.516 1340.47 746.224 1340.47 745.785C1340.47 745.347 1340.76 745.055 1341.2 745.055H1560.97L1613.94 797.976H1838.1L2016.18 975.89H2122.4L2233.61 864.785H2358.86C2359.3 864.785 2359.59 865.077 2359.59 865.516C2359.59 865.954 2359.3 866.247 2358.86 866.247H2234.34L2122.84 977.351Z" fill="white"/>
<path d="M1569.02 584.83H1453.87C1452.99 584.83 1452.4 584.245 1452.4 583.368C1452.4 582.491 1452.99 581.906 1453.87 581.906H1567.85L1633.26 516.705H1883.02L1932.33 467.439C1932.92 466.854 1933.8 466.854 1934.38 467.439C1934.97 468.023 1934.97 468.9 1934.38 469.485L1884.2 519.629H1634.43L1569.02 584.83Z" fill="white"/>
<path d="M1213.46 840.517C1213.02 840.517 1212.73 840.371 1212.44 840.078C1211.85 839.494 1211.85 838.617 1212.44 838.032L1291.6 758.943H1541.51L1610.43 827.798H1735.24C1736.12 827.798 1736.7 828.383 1736.7 829.26C1736.7 830.137 1736.12 830.722 1735.24 830.722H1609.26L1540.34 761.866H1292.77L1214.49 840.078C1214.19 840.371 1213.75 840.517 1213.46 840.517Z" fill="white"/>
<path d="M1523.37 610.413H1415.53L1356.12 551.06H1213.46C1213.02 551.06 1212.73 550.767 1212.73 550.329C1212.73 549.89 1213.02 549.598 1213.46 549.598H1356.86L1416.26 608.951H1523.37C1523.81 608.951 1524.1 609.243 1524.1 609.682C1524.1 610.121 1523.81 610.413 1523.37 610.413Z" fill="white"/>
<path d="M1453.87 670.936H1374.56L1297.16 593.455H1200.73C1200.29 593.455 1200 593.163 1200 592.724C1200 592.285 1200.29 591.993 1200.73 591.993H1297.74L1375.15 669.328H1453.87C1454.31 669.328 1454.6 669.62 1454.6 670.059C1454.6 670.497 1454.31 670.936 1453.87 670.936Z" fill="white"/>
<path d="M1349.83 701.928C1349.69 701.928 1349.39 701.928 1349.25 701.782L1281.5 634.096H1200.73C1200.29 634.096 1200 633.803 1200 633.365C1200 632.926 1200.29 632.634 1200.73 632.634H1282.09L1350.27 700.759C1350.56 701.051 1350.56 701.49 1350.27 701.782C1350.12 701.928 1349.98 701.928 1349.83 701.928Z" fill="white"/>
<path d="M1856.39 609.243C1850.69 609.243 1846 604.565 1846 598.864C1846 593.162 1850.69 588.484 1856.39 588.484C1862.1 588.484 1866.78 593.162 1866.78 598.864C1866.78 604.565 1862.1 609.243 1856.39 609.243ZM1856.39 589.946C1851.42 589.946 1847.47 593.893 1847.47 598.864C1847.47 603.834 1851.42 607.782 1856.39 607.782C1861.37 607.782 1865.32 603.834 1865.32 598.864C1865.32 594.04 1861.22 589.946 1856.39 589.946Z" fill="white"/>
<path d="M1856.39 605.589C1860.11 605.589 1863.12 602.578 1863.12 598.864C1863.12 595.15 1860.11 592.139 1856.39 592.139C1852.68 592.139 1849.66 595.15 1849.66 598.864C1849.66 602.578 1852.68 605.589 1856.39 605.589Z" fill="white"/>
<path d="M1745.48 839.786C1739.78 839.786 1735.09 835.108 1735.09 829.406C1735.09 823.705 1739.78 819.027 1745.48 819.027C1751.19 819.027 1755.87 823.705 1755.87 829.406C1755.87 835.108 1751.19 839.786 1745.48 839.786ZM1745.48 820.489C1740.51 820.489 1736.56 824.436 1736.56 829.406C1736.56 834.377 1740.51 838.324 1745.48 838.324C1750.46 838.324 1754.41 834.377 1754.41 829.406C1754.41 824.436 1750.46 820.489 1745.48 820.489Z" fill="white"/>
<path d="M1745.48 836.131C1749.2 836.131 1752.21 833.12 1752.21 829.406C1752.21 825.692 1749.2 822.682 1745.48 822.682C1741.77 822.682 1738.75 825.692 1738.75 829.406C1738.75 833.12 1741.77 836.131 1745.48 836.131Z" fill="white"/>
<path d="M1557.61 620.062C1551.9 620.062 1547.22 615.383 1547.22 609.682C1547.22 603.981 1551.9 599.302 1557.61 599.302C1563.31 599.302 1568 603.981 1568 609.682C1568 615.383 1563.31 620.062 1557.61 620.062ZM1557.61 600.764C1552.63 600.764 1548.68 604.712 1548.68 609.682C1548.68 614.653 1552.63 618.6 1557.61 618.6C1562.58 618.6 1566.53 614.653 1566.53 609.682C1566.53 604.858 1562.58 600.764 1557.61 600.764Z" fill="white"/>
<path d="M1557.61 616.407C1561.32 616.407 1564.34 613.396 1564.34 609.682C1564.34 605.968 1561.32 602.957 1557.61 602.957C1553.89 602.957 1550.88 605.968 1550.88 609.682C1550.88 613.396 1553.89 616.407 1557.61 616.407Z" fill="white"/>
<path d="M1446.26 590.677C1442.31 590.677 1438.94 587.461 1438.94 583.368C1438.94 579.274 1442.16 576.058 1446.26 576.058C1450.21 576.058 1453.57 579.274 1453.57 583.368C1453.57 587.461 1450.35 590.677 1446.26 590.677ZM1446.26 577.52C1443.04 577.52 1440.4 580.152 1440.4 583.368C1440.4 586.584 1443.04 589.215 1446.26 589.215C1449.48 589.215 1452.11 586.584 1452.11 583.368C1452.11 580.152 1449.48 577.52 1446.26 577.52Z" fill="white"/>
<path d="M1450.94 583.368C1450.94 585.853 1448.89 587.9 1446.4 587.9C1443.92 587.9 1441.87 585.853 1441.87 583.368C1441.87 580.882 1443.92 578.836 1446.4 578.836C1448.89 578.836 1450.94 580.882 1450.94 583.368Z" fill="white"/>
<path d="M1297.45 600.033C1293.5 600.033 1290.13 596.817 1290.13 592.724C1290.13 588.631 1293.35 585.414 1297.45 585.414C1301.4 585.414 1304.77 588.631 1304.77 592.724C1304.77 596.817 1301.4 600.033 1297.45 600.033ZM1297.45 587.022C1294.23 587.022 1291.6 589.654 1291.6 592.87C1291.6 596.086 1294.23 598.718 1297.45 598.718C1300.67 598.718 1303.3 596.086 1303.3 592.87C1303.3 589.654 1300.67 587.022 1297.45 587.022Z" fill="white"/>
<path d="M1301.99 592.724C1301.99 595.209 1299.94 597.256 1297.45 597.256C1294.96 597.256 1292.91 595.209 1292.91 592.724C1292.91 590.239 1294.96 588.192 1297.45 588.192C1299.94 588.192 1301.99 590.239 1301.99 592.724Z" fill="white"/>
<path d="M1440.99 733.213C1437.04 733.213 1433.67 729.997 1433.67 725.904C1433.67 721.956 1436.89 718.594 1440.99 718.594C1444.94 718.594 1448.31 721.81 1448.31 725.904C1448.31 729.997 1445.09 733.213 1440.99 733.213ZM1440.99 720.056C1437.77 720.056 1435.14 722.687 1435.14 725.904C1435.14 729.12 1437.77 731.751 1440.99 731.751C1444.21 731.751 1446.84 729.12 1446.84 725.904C1446.84 722.687 1444.21 720.056 1440.99 720.056Z" fill="white"/>
<path d="M1445.67 725.904C1445.67 728.389 1443.62 730.435 1441.14 730.435C1438.65 730.435 1436.6 728.389 1436.6 725.904C1436.6 723.418 1438.65 721.372 1441.14 721.372C1443.62 721.372 1445.67 723.418 1445.67 725.904Z" fill="white"/>
<path d="M1334.61 753.095C1330.66 753.095 1327.3 749.879 1327.3 745.785C1327.3 741.838 1330.52 738.476 1334.61 738.476C1338.57 738.476 1341.93 741.692 1341.93 745.785C1341.93 749.879 1338.71 753.095 1334.61 753.095ZM1334.61 740.084C1331.4 740.084 1328.76 742.715 1328.76 745.932C1328.76 749.148 1331.4 751.779 1334.61 751.779C1337.83 751.779 1340.47 749.148 1340.47 745.932C1340.47 742.715 1337.83 740.084 1334.61 740.084Z" fill="white"/>
<path d="M1339.3 745.932C1339.3 748.417 1337.25 750.464 1334.76 750.464C1332.27 750.464 1330.23 748.417 1330.23 745.932C1330.23 743.446 1332.27 741.4 1334.76 741.4C1337.25 741.4 1339.3 743.3 1339.3 745.932Z" fill="white"/>
<path d="M1649.5 617.869C1654.02 617.869 1657.69 614.203 1657.69 609.682C1657.69 605.161 1654.02 601.495 1649.5 601.495C1644.97 601.495 1641.3 605.161 1641.3 609.682C1641.3 614.203 1644.97 617.869 1649.5 617.869Z" fill="white"/>
<path d="M1756.75 809.525C1762.65 809.525 1767.43 804.747 1767.43 798.853C1767.43 792.959 1762.65 788.181 1756.75 788.181C1750.85 788.181 1746.07 792.959 1746.07 798.853C1746.07 804.747 1750.85 809.525 1756.75 809.525Z" fill="white"/>
<path d="M1715.78 701.344C1715.78 704.121 1713.59 706.314 1710.8 706.314C1708.02 706.314 1705.83 704.121 1705.83 701.344C1705.83 698.566 1708.02 696.373 1710.8 696.373C1713.59 696.373 1715.78 698.566 1715.78 701.344Z" fill="white"/>
<path d="M1545.32 760.405C1545.32 763.182 1543.12 765.375 1540.34 765.375C1537.56 765.375 1535.37 763.182 1535.37 760.405C1535.37 757.627 1537.56 755.434 1540.34 755.434C1543.12 755.434 1545.32 757.627 1545.32 760.405Z" fill="white"/>
<path d="M1746.07 677.368C1739.92 677.368 1734.95 672.398 1734.95 666.258C1734.95 660.118 1739.92 655.147 1746.07 655.147C1752.21 655.147 1757.19 660.118 1757.19 666.258C1757.19 672.398 1752.21 677.368 1746.07 677.368ZM1746.07 656.755C1740.8 656.755 1736.41 661.141 1736.41 666.404C1736.41 671.667 1740.8 676.053 1746.07 676.053C1751.34 676.053 1755.73 671.667 1755.73 666.404C1755.73 660.995 1751.34 656.755 1746.07 656.755Z" fill="white"/>
<path d="M1753.24 666.258C1753.24 670.205 1750.02 673.421 1746.07 673.421C1742.12 673.421 1738.9 670.205 1738.9 666.258C1738.9 662.311 1742.12 659.094 1746.07 659.094C1750.02 659.094 1753.24 662.311 1753.24 666.258Z" fill="white"/>
<path d="M1501.42 678.392C1505.95 678.392 1509.61 674.726 1509.61 670.205C1509.61 665.684 1505.95 662.018 1501.42 662.018C1496.9 662.018 1493.23 665.684 1493.23 670.205C1493.23 674.726 1496.9 678.392 1501.42 678.392Z" fill="white"/>
<path d="M1453.87 678.392C1458.39 678.392 1462.06 674.726 1462.06 670.205C1462.06 665.684 1458.39 662.018 1453.87 662.018C1449.34 662.018 1445.67 665.684 1445.67 670.205C1445.67 674.726 1449.34 678.392 1453.87 678.392Z" fill="white"/>
<path d="M1349.83 709.384C1354.36 709.384 1358.03 705.719 1358.03 701.197C1358.03 696.676 1354.36 693.011 1349.83 693.011C1345.31 693.011 1341.64 696.676 1341.64 701.197C1341.64 705.719 1345.31 709.384 1349.83 709.384Z" fill="white"/>
<path d="M1288.96 633.365C1288.96 637.897 1285.31 641.552 1280.77 641.552C1276.23 641.552 1272.58 637.897 1272.58 633.365C1272.58 628.833 1276.23 625.178 1280.77 625.178C1285.31 625.178 1288.96 628.833 1288.96 633.365Z" fill="white"/>
<path d="M1622.57 639.943C1624.35 639.943 1625.79 638.504 1625.79 636.727C1625.79 634.951 1624.35 633.511 1622.57 633.511C1620.8 633.511 1619.35 634.951 1619.35 636.727C1619.35 638.504 1620.8 639.943 1622.57 639.943Z" fill="white"/>
<path d="M1689.3 615.237C1692.37 615.237 1694.86 612.75 1694.86 609.682C1694.86 606.614 1692.37 604.127 1689.3 604.127C1686.22 604.127 1683.74 606.614 1683.74 609.682C1683.74 612.75 1686.22 615.237 1689.3 615.237Z" fill="white"/>
<path d="M1527.61 615.237C1530.68 615.237 1533.17 612.75 1533.17 609.682C1533.17 606.614 1530.68 604.127 1527.61 604.127C1524.54 604.127 1522.05 606.614 1522.05 609.682C1522.05 612.75 1524.54 615.237 1527.61 615.237Z" fill="white"/>
<path d="M1392.41 642.283C1395.48 642.283 1397.97 639.795 1397.97 636.727C1397.97 633.659 1395.48 631.172 1392.41 631.172C1389.34 631.172 1386.85 633.659 1386.85 636.727C1386.85 639.795 1389.34 642.283 1392.41 642.283Z" fill="white"/>
<path d="M2007.4 551.06H1547.95C1547.51 551.06 1547.22 550.767 1547.22 550.329C1547.22 549.89 1547.51 549.598 1547.95 549.598H2007.4C2007.84 549.598 2008.13 549.89 2008.13 550.329C2008.13 550.767 2007.84 551.06 2007.4 551.06Z" fill="white"/>
<path d="M1543.85 555.884C1546.92 555.884 1549.41 553.397 1549.41 550.329C1549.41 547.261 1546.92 544.773 1543.85 544.773C1540.78 544.773 1538.29 547.261 1538.29 550.329C1538.29 553.397 1540.78 555.884 1543.85 555.884Z" fill="white"/>
<path d="M1760.55 746.955H1751.34L1737.58 732.628H1746.8L1760.55 746.955Z" fill="white"/>
<path d="M1777.82 746.955H1768.6L1754.85 732.628H1763.92L1777.82 746.955Z" fill="white"/>
<path d="M1795.09 746.955H1785.87L1772.11 732.628H1781.19L1795.09 746.955Z" fill="white"/>
<path d="M1812.21 746.955H1803.13L1789.38 732.628H1798.45L1812.21 746.955Z" fill="white"/>
<path d="M1829.47 746.955H1820.4L1806.5 732.628H1815.72L1829.47 746.955Z" fill="white"/>
<path d="M1846.74 746.955H1837.67L1823.76 732.628H1832.98L1846.74 746.955Z" fill="white"/>
<path d="M1864 746.955H1854.78L1841.03 732.628H1850.25L1864 746.955Z" fill="white"/>
<path d="M1881.27 746.955H1872.05L1858.3 732.628H1867.37L1881.27 746.955Z" fill="white"/>
<path d="M1593.02 878.673H1576.04L1550.44 852.212H1567.41L1593.02 878.673Z" fill="white"/>
<path d="M1625.06 878.673H1608.09L1582.48 852.212H1599.45L1625.06 878.673Z" fill="white"/>
<path d="M1656.96 878.673H1640.13L1614.53 852.212H1631.35L1656.96 878.673Z" fill="white"/>
<path d="M1689 878.673H1672.03L1646.42 852.212H1663.4L1689 878.673Z" fill="white"/>
<path d="M1721.05 878.673H1704.07L1678.47 852.212H1695.44L1721.05 878.673Z" fill="white"/>
<path d="M1752.95 878.673H1735.97L1710.37 852.212H1727.34L1752.95 878.673Z" fill="white"/>
<path d="M1784.99 878.673H1768.02L1742.41 852.212H1759.38L1784.99 878.673Z" fill="white"/>
<path d="M1816.89 878.673H1799.91L1774.31 852.212H1791.28L1816.89 878.673Z" fill="white"/>
<path d="M1298.18 807.039H1308.57L1323.2 793.444L1306.81 778.094H1296.43L1312.81 793.444L1298.18 807.039Z" fill="white"/>
<path d="M1314.42 807.039H1324.81L1339.3 793.444L1323.06 778.094H1312.67L1328.91 793.444L1314.42 807.039Z" fill="white"/>
<path d="M1330.66 807.039H1341.05L1355.54 793.444L1339.3 778.094H1328.91L1345.15 793.444L1330.66 807.039Z" fill="white"/>
<path d="M1346.91 807.039H1357.3L1371.78 793.444L1355.54 778.094H1345.15L1361.39 793.444L1346.91 807.039Z" fill="white"/>
<path d="M1363.15 807.039H1373.54L1388.02 793.444L1371.78 778.094H1361.39L1377.63 793.444L1363.15 807.039Z" fill="white"/>
<path d="M1379.39 807.039H1389.78L1404.26 793.444L1388.02 778.094H1377.63L1393.87 793.444L1379.39 807.039Z" fill="white"/>
<path d="M1395.63 807.039H1406.02L1420.51 793.444L1404.26 778.094H1393.88L1410.12 793.444L1395.63 807.039Z" fill="white"/>
<path d="M1411.87 807.039H1422.26L1436.75 793.444L1420.5 778.094H1410.12L1426.36 793.444L1411.87 807.039Z" fill="white"/>
<path d="M1427.97 807.039H1438.5L1452.99 793.444L1436.75 778.094H1426.36L1442.6 793.444L1427.97 807.039Z" fill="white"/>
<path d="M1444.21 807.039H1454.6L1469.23 793.444L1452.99 778.094H1442.6L1458.84 793.444L1444.21 807.039Z" fill="white"/>
<path d="M1460.45 807.039H1470.84L1485.47 793.444L1469.08 778.094H1458.69L1475.08 793.444L1460.45 807.039Z" fill="white"/>
</g>
<defs>
<clipPath id="clip0_2017_832">
<rect width="1195" height="520" fill="white" transform="translate(-67)"/>
</clipPath>
<clipPath id="clip1_2017_832">
<rect width="1195" height="520" fill="white" transform="translate(1200 467)"/>
</clipPath>
</defs>
</svg>
