<svg width="1049" height="520" viewBox="0 0 1049 520" fill="none" xmlns="http://www.w3.org/2000/svg">
<g clip-path="url(#clip0_78_831)">
<path d="M1036.1 459.623H1027.02L1013.12 445.297H1022.34L1036.1 459.623Z" fill="white"/>
<path d="M1053.36 459.623H1044.29L1030.39 445.297H1039.61L1053.36 459.623Z" fill="white"/>
<path d="M1070.63 459.623H1061.41L1047.66 445.297H1056.87L1070.63 459.623Z" fill="white"/>
<path d="M1158.57 312.556H840.612L758.379 230.396H576.21L489.15 143.413H367.265C366.826 143.413 366.533 143.121 366.533 142.682C366.533 142.244 366.826 141.951 367.265 141.951H489.735L576.796 228.935H758.965L841.197 311.094H1158.57C1159.01 311.094 1159.3 311.386 1159.3 311.825C1159.3 312.263 1159.01 312.556 1158.57 312.556Z" fill="white"/>
<path d="M511.244 235.074H148.954C148.515 235.074 148.223 234.782 148.223 234.343C148.223 233.905 148.515 233.613 148.954 233.613H510.659L614.107 130.256H747.405L824.37 207.152H904.7L1102.38 9.64849C1102.67 9.3561 1103.11 9.3561 1103.4 9.64849C1103.7 9.94087 1103.7 10.3794 1103.4 10.6718L905.285 208.614H823.785L746.82 131.718H614.693L511.244 235.074Z" fill="white"/>
<path d="M1158.57 468.833H882.02L672.489 259.488H534.07L445.693 171.189H192.412C191.534 171.189 190.948 170.604 190.948 169.727C190.948 168.85 191.534 168.265 192.412 168.265H446.863L535.241 256.565H673.66L883.191 465.909H1158.57C1159.44 465.909 1160.03 466.494 1160.03 467.371C1160.03 468.102 1159.44 468.833 1158.57 468.833Z" fill="white"/>
<path d="M882.752 426.584H650.102L483.004 259.635H248.013C247.574 259.635 247.282 259.342 247.282 258.904C247.282 258.465 247.574 258.173 248.013 258.173H483.589L650.688 425.122H882.167L1044.58 262.851H1194.41C1194.85 262.851 1195.15 263.143 1195.15 263.582C1195.15 264.02 1194.85 264.313 1194.41 264.313H1045.17L882.752 426.584Z" fill="white"/>
<path d="M389.213 203.936H301.42C300.981 203.936 300.689 203.644 300.689 203.205C300.689 202.766 300.981 202.474 301.42 202.474H388.627L480.809 110.374H636.933L700.583 173.967H853.049L1021.17 5.8477C1021.46 5.55532 1021.9 5.55532 1022.2 5.8477C1022.49 6.14009 1022.49 6.57866 1022.2 6.87104L853.634 175.429H700.144L636.494 111.836H481.395L389.213 203.936Z" fill="white"/>
<path d="M922.844 510.351H815.444L637.519 332.437H413.356L360.388 279.516H141.199C140.76 279.516 140.468 279.224 140.468 278.785C140.468 278.347 140.76 278.054 141.199 278.054H360.973L413.941 330.975H638.104L816.176 508.889H922.405L1033.61 397.785H1158.86C1159.3 397.785 1159.59 398.077 1159.59 398.516C1159.59 398.954 1159.3 399.246 1158.86 399.246H1034.34L922.844 510.351Z" fill="white"/>
<path d="M369.021 117.83H253.866C252.988 117.83 252.403 117.245 252.403 116.368C252.403 115.491 252.988 114.906 253.866 114.906H367.85L433.255 49.7048H683.024L732.334 0.438572C732.92 -0.146191 733.798 -0.146191 734.383 0.438572C734.968 1.02333 734.968 1.90048 734.383 2.48524L684.195 52.6286H434.426L369.021 117.83Z" fill="white"/>
<path d="M13.4615 373.517C13.0225 373.517 12.7299 373.371 12.4373 373.078C11.852 372.494 11.852 371.617 12.4373 371.032L91.5967 291.943H341.512L410.429 360.798H535.241C536.119 360.798 536.704 361.383 536.704 362.26C536.704 363.137 536.119 363.722 535.241 363.722H409.259L340.342 294.866H92.7673L14.4857 373.078C14.1931 373.371 13.7541 373.517 13.4615 373.517Z" fill="white"/>
<path d="M323.368 143.413H215.53L156.124 84.0596H13.4615C13.0225 84.0596 12.7299 83.7672 12.7299 83.3286C12.7299 82.89 13.0225 82.5977 13.4615 82.5977H156.856L216.262 141.951H323.368C323.807 141.951 324.1 142.243 324.1 142.682C324.1 143.121 323.807 143.413 323.368 143.413Z" fill="white"/>
<path d="M253.866 203.936H174.56L97.1569 126.455H0.731603C0.292641 126.455 0 126.162 0 125.724C0 125.285 0.292641 124.993 0.731603 124.993H97.7421L175.146 202.328H253.866C254.305 202.328 254.598 202.62 254.598 203.059C254.598 203.497 254.305 203.936 253.866 203.936Z" fill="white"/>
<path d="M149.832 234.928C149.686 234.928 149.393 234.928 149.247 234.782L81.5005 167.096H0.731603C0.292641 167.096 0 166.804 0 166.365C0 165.926 0.292641 165.634 0.731603 165.634H82.0858L150.271 233.759C150.564 234.051 150.564 234.49 150.271 234.782C150.125 234.928 149.979 234.928 149.832 234.928Z" fill="white"/>
<path d="M959.424 260.365H857.146C856.268 260.365 855.683 259.781 855.683 258.904C855.683 258.026 856.268 257.442 857.146 257.442H958.253L1044.58 171.189H1089.5C1090.38 171.189 1090.97 171.774 1090.97 172.651C1090.97 173.528 1090.38 174.113 1089.5 174.113H1045.75L959.424 260.365Z" fill="white"/>
<path d="M922.551 520C916.845 520 912.162 515.322 912.162 509.621C912.162 503.919 916.845 499.241 922.551 499.241C928.258 499.241 932.94 503.919 932.94 509.621C932.94 515.322 928.258 520 922.551 520ZM922.551 500.703C917.576 500.703 913.626 504.65 913.626 509.621C913.626 514.591 917.576 518.538 922.551 518.538C927.526 518.538 931.477 514.591 931.477 509.621C931.477 504.65 927.526 500.703 922.551 500.703Z" fill="white"/>
<path d="M922.551 516.345C926.268 516.345 929.282 513.335 929.282 509.621C929.282 505.907 926.268 502.896 922.551 502.896C918.834 502.896 915.82 505.907 915.82 509.621C915.82 513.335 918.834 516.345 922.551 516.345Z" fill="white"/>
<path d="M840.612 322.204C834.905 322.204 830.223 317.526 830.223 311.825C830.223 306.123 834.905 301.445 840.612 301.445C846.318 301.445 851 306.123 851 311.825C851 317.526 846.318 322.204 840.612 322.204ZM840.612 303.053C835.637 303.053 831.686 307 831.686 311.971C831.686 316.941 835.637 320.888 840.612 320.888C845.587 320.888 849.537 316.941 849.537 311.971C849.537 307 845.587 303.053 840.612 303.053Z" fill="white"/>
<path d="M840.612 318.549C844.329 318.549 847.342 315.539 847.342 311.825C847.342 308.111 844.329 305.1 840.612 305.1C836.894 305.1 833.881 308.111 833.881 311.825C833.881 315.539 836.894 318.549 840.612 318.549Z" fill="white"/>
<path d="M846.611 269.283C840.904 269.283 836.222 264.605 836.222 258.903C836.222 253.202 840.904 248.524 846.611 248.524C852.317 248.524 856.999 253.202 856.999 258.903C856.999 264.605 852.317 269.283 846.611 269.283ZM846.611 249.986C841.636 249.986 837.685 253.933 837.685 258.903C837.685 263.874 841.636 267.821 846.611 267.821C851.586 267.821 855.536 263.874 855.536 258.903C855.536 254.079 851.439 249.986 846.611 249.986Z" fill="white"/>
<path d="M846.611 265.628C850.328 265.628 853.341 262.617 853.341 258.903C853.341 255.19 850.328 252.179 846.611 252.179C842.893 252.179 839.88 255.19 839.88 258.903C839.88 262.617 842.893 265.628 846.611 265.628Z" fill="white"/>
<path d="M738.626 258.903C738.626 262.558 735.553 265.628 731.895 265.628C728.237 265.628 725.165 262.558 725.165 258.903C725.165 255.249 728.237 252.179 731.895 252.179C735.553 252.179 738.626 255.249 738.626 258.903Z" fill="white"/>
<path d="M656.394 142.243C650.688 142.243 646.005 137.565 646.005 131.864C646.005 126.162 650.688 121.484 656.394 121.484C662.101 121.484 666.783 126.162 666.783 131.864C666.783 137.565 662.101 142.243 656.394 142.243ZM656.394 122.946C651.419 122.946 647.469 126.893 647.469 131.864C647.469 136.834 651.419 140.782 656.394 140.782C661.369 140.782 665.32 136.834 665.32 131.864C665.32 127.04 661.223 122.946 656.394 122.946Z" fill="white"/>
<path d="M656.394 138.589C660.111 138.589 663.125 135.578 663.125 131.864C663.125 128.15 660.111 125.139 656.394 125.139C652.677 125.139 649.663 128.15 649.663 131.864C649.663 135.578 652.677 138.589 656.394 138.589Z" fill="white"/>
<path d="M545.483 372.786C539.776 372.786 535.094 368.108 535.094 362.406C535.094 356.705 539.776 352.027 545.483 352.027C551.189 352.027 555.872 356.705 555.872 362.406C555.872 368.108 551.189 372.786 545.483 372.786ZM545.483 353.489C540.508 353.489 536.557 357.436 536.557 362.406C536.557 367.377 540.508 371.324 545.483 371.324C550.458 371.324 554.409 367.377 554.409 362.406C554.409 357.436 550.458 353.489 545.483 353.489Z" fill="white"/>
<path d="M545.483 369.131C549.2 369.131 552.214 366.12 552.214 362.406C552.214 358.692 549.2 355.682 545.483 355.682C541.766 355.682 538.752 358.692 538.752 362.406C538.752 366.12 541.766 369.131 545.483 369.131Z" fill="white"/>
<path d="M357.607 153.062C351.901 153.062 347.219 148.383 347.219 142.682C347.219 136.981 351.901 132.302 357.607 132.302C363.314 132.302 367.996 136.981 367.996 142.682C367.996 148.383 363.314 153.062 357.607 153.062ZM357.607 133.764C352.633 133.764 348.682 137.712 348.682 142.682C348.682 147.653 352.633 151.6 357.607 151.6C362.582 151.6 366.533 147.653 366.533 142.682C366.533 137.858 362.582 133.764 357.607 133.764Z" fill="white"/>
<path d="M357.607 149.407C361.325 149.407 364.338 146.396 364.338 142.682C364.338 138.968 361.325 135.957 357.607 135.957C353.89 135.957 350.877 138.968 350.877 142.682C350.877 146.396 353.89 149.407 357.607 149.407Z" fill="white"/>
<path d="M246.257 123.677C242.307 123.677 238.941 120.461 238.941 116.368C238.941 112.274 242.16 109.058 246.257 109.058C250.208 109.058 253.573 112.274 253.573 116.368C253.573 120.461 250.354 123.677 246.257 123.677ZM246.257 110.52C243.038 110.52 240.405 113.151 240.405 116.368C240.405 119.584 243.038 122.215 246.257 122.215C249.476 122.215 252.11 119.584 252.11 116.368C252.11 113.151 249.476 110.52 246.257 110.52Z" fill="white"/>
<path d="M250.94 116.368C250.94 118.853 248.891 120.9 246.404 120.9C243.916 120.9 241.868 118.853 241.868 116.368C241.868 113.882 243.916 111.836 246.404 111.836C248.891 111.836 250.94 113.882 250.94 116.368Z" fill="white"/>
<path d="M97.4495 133.033C93.4988 133.033 90.1334 129.817 90.1334 125.724C90.1334 121.631 93.3525 118.414 97.4495 118.414C101.4 118.414 104.765 121.631 104.765 125.724C104.765 129.817 101.4 133.033 97.4495 133.033ZM97.4495 120.022C94.2304 120.022 91.5966 122.654 91.5966 125.87C91.5966 129.086 94.2304 131.718 97.4495 131.718C100.669 131.718 103.302 129.086 103.302 125.87C103.302 122.654 100.669 120.022 97.4495 120.022Z" fill="white"/>
<path d="M101.985 125.724C101.985 128.209 99.937 130.256 97.4495 130.256C94.9621 130.256 92.9136 128.209 92.9136 125.724C92.9136 123.239 94.9621 121.192 97.4495 121.192C99.937 121.192 101.985 123.239 101.985 125.724Z" fill="white"/>
<path d="M240.99 266.213C237.039 266.213 233.674 262.997 233.674 258.904C233.674 254.956 236.893 251.594 240.99 251.594C244.941 251.594 248.306 254.81 248.306 258.904C248.306 262.997 245.087 266.213 240.99 266.213ZM240.99 253.056C237.771 253.056 235.137 255.687 235.137 258.904C235.137 262.12 237.771 264.751 240.99 264.751C244.209 264.751 246.843 262.12 246.843 258.904C246.843 255.687 244.209 253.056 240.99 253.056Z" fill="white"/>
<path d="M245.672 258.903C245.672 261.389 243.624 263.435 241.136 263.435C238.649 263.435 236.6 261.389 236.6 258.903C236.6 256.418 238.649 254.372 241.136 254.372C243.624 254.372 245.672 256.418 245.672 258.903Z" fill="white"/>
<path d="M134.615 286.095C130.664 286.095 127.299 282.879 127.299 278.786C127.299 274.838 130.518 271.476 134.615 271.476C138.566 271.476 141.931 274.692 141.931 278.786C141.931 282.879 138.712 286.095 134.615 286.095ZM134.615 273.084C131.396 273.084 128.762 275.716 128.762 278.932C128.762 282.148 131.396 284.779 134.615 284.779C137.834 284.779 140.468 282.148 140.468 278.932C140.468 275.716 137.834 273.084 134.615 273.084Z" fill="white"/>
<path d="M139.297 278.932C139.297 281.417 137.249 283.464 134.761 283.464C132.274 283.464 130.225 281.417 130.225 278.932C130.225 276.447 132.274 274.4 134.761 274.4C137.249 274.4 139.297 276.3 139.297 278.932Z" fill="white"/>
<path d="M449.497 150.869C454.022 150.869 457.691 147.203 457.691 142.682C457.691 138.161 454.022 134.495 449.497 134.495C444.971 134.495 441.303 138.161 441.303 142.682C441.303 147.203 444.971 150.869 449.497 150.869Z" fill="white"/>
<path d="M1004.49 311.825C1004.49 316.357 1000.83 320.011 996.297 320.011C991.761 320.011 988.103 316.357 988.103 311.825C988.103 307.293 991.761 303.638 996.297 303.638C1000.83 303.784 1004.49 307.439 1004.49 311.825Z" fill="white"/>
<path d="M969.813 467.371C969.813 470.295 967.471 472.78 964.399 472.78C961.472 472.78 958.985 470.441 958.985 467.371C958.985 464.448 961.326 461.962 964.399 461.962C967.471 461.962 969.813 464.448 969.813 467.371Z" fill="white"/>
<path d="M737.163 425.853C737.163 428.777 734.822 431.262 731.749 431.262C728.823 431.262 726.335 428.923 726.335 425.853C726.335 422.929 728.676 420.444 731.749 420.444C734.822 420.444 737.163 422.929 737.163 425.853Z" fill="white"/>
<path d="M790.863 183.031C795.388 183.031 799.057 179.365 799.057 174.844C799.057 170.323 795.388 166.657 790.863 166.657C786.337 166.657 782.669 170.323 782.669 174.844C782.669 179.365 786.337 183.031 790.863 183.031Z" fill="white"/>
<path d="M883.63 176.452C883.63 179.668 880.996 182.154 877.923 182.154C874.704 182.154 872.217 179.522 872.217 176.452C872.217 173.382 874.851 170.751 877.923 170.751C880.996 170.604 883.63 173.236 883.63 176.452Z" fill="white"/>
<path d="M904.115 186.685C904.115 190.048 901.335 192.825 897.969 192.825C894.604 192.825 891.824 190.048 891.824 186.685C891.824 183.323 894.604 180.545 897.969 180.545C901.481 180.545 904.115 183.323 904.115 186.685Z" fill="white"/>
<path d="M556.75 342.525C562.649 342.525 567.431 337.747 567.431 331.853C567.431 325.959 562.649 321.181 556.75 321.181C550.851 321.181 546.068 325.959 546.068 331.853C546.068 337.747 550.851 342.525 556.75 342.525Z" fill="white"/>
<path d="M840.758 436.525C846.657 436.525 851.439 431.747 851.439 425.853C851.439 419.959 846.657 415.181 840.758 415.181C834.859 415.181 830.076 419.959 830.076 425.853C830.076 431.747 834.859 436.525 840.758 436.525Z" fill="white"/>
<path d="M515.78 234.344C515.78 237.121 513.585 239.314 510.805 239.314C508.025 239.314 505.83 237.121 505.83 234.344C505.83 231.566 508.025 229.373 510.805 229.373C513.585 229.373 515.78 231.566 515.78 234.344Z" fill="white"/>
<path d="M345.317 293.405C345.317 296.182 343.122 298.375 340.342 298.375C337.562 298.375 335.367 296.182 335.367 293.405C335.367 290.627 337.562 288.434 340.342 288.434C343.122 288.434 345.317 290.627 345.317 293.405Z" fill="white"/>
<path d="M546.068 210.368C539.923 210.368 534.948 205.398 534.948 199.258C534.948 193.118 539.923 188.147 546.068 188.147C552.214 188.147 557.189 193.118 557.189 199.258C557.189 205.398 552.214 210.368 546.068 210.368ZM546.068 189.755C540.801 189.755 536.411 194.141 536.411 199.404C536.411 204.667 540.801 209.052 546.068 209.052C551.336 209.052 555.725 204.667 555.725 199.404C555.725 193.995 551.336 189.755 546.068 189.755Z" fill="white"/>
<path d="M553.238 199.258C553.238 203.205 550.019 206.421 546.068 206.421C542.118 206.421 538.899 203.205 538.899 199.258C538.899 195.31 542.118 192.094 546.068 192.094C550.019 192.094 553.238 195.31 553.238 199.258Z" fill="white"/>
<path d="M301.42 211.392C305.946 211.392 309.614 207.726 309.614 203.205C309.614 198.684 305.946 195.018 301.42 195.018C296.895 195.018 293.226 198.684 293.226 203.205C293.226 207.726 296.895 211.392 301.42 211.392Z" fill="white"/>
<path d="M253.866 211.392C258.391 211.392 262.06 207.726 262.06 203.205C262.06 198.684 258.391 195.018 253.866 195.018C249.341 195.018 245.672 198.684 245.672 203.205C245.672 207.726 249.341 211.392 253.866 211.392Z" fill="white"/>
<path d="M149.832 242.384C154.358 242.384 158.026 238.719 158.026 234.197C158.026 229.676 154.358 226.011 149.832 226.011C145.307 226.011 141.638 229.676 141.638 234.197C141.638 238.719 145.307 242.384 149.832 242.384Z" fill="white"/>
<path d="M88.9629 166.365C88.9629 170.897 85.3048 174.552 80.7689 174.552C76.233 174.552 72.575 170.897 72.575 166.365C72.575 161.833 76.233 158.178 80.7689 158.178C85.3048 158.178 88.9629 161.833 88.9629 166.365Z" fill="white"/>
<path d="M422.574 172.943C424.352 172.943 425.793 171.503 425.793 169.727C425.793 167.951 424.352 166.511 422.574 166.511C420.796 166.511 419.355 167.951 419.355 169.727C419.355 171.503 420.796 172.943 422.574 172.943Z" fill="white"/>
<path d="M489.296 148.237C492.367 148.237 494.856 145.75 494.856 142.682C494.856 139.614 492.367 137.127 489.296 137.127C486.225 137.127 483.736 139.614 483.736 142.682C483.736 145.75 486.225 148.237 489.296 148.237Z" fill="white"/>
<path d="M327.612 148.237C330.682 148.237 333.172 145.75 333.172 142.682C333.172 139.614 330.682 137.127 327.612 137.127C324.541 137.127 322.052 139.614 322.052 142.682C322.052 145.75 324.541 148.237 327.612 148.237Z" fill="white"/>
<path d="M192.412 175.283C195.482 175.283 197.972 172.795 197.972 169.727C197.972 166.659 195.482 164.172 192.412 164.172C189.341 164.172 186.851 166.659 186.851 169.727C186.851 172.795 189.341 175.283 192.412 175.283Z" fill="white"/>
<path d="M807.397 84.0596H347.95C347.511 84.0596 347.219 83.7672 347.219 83.3286C347.219 82.89 347.511 82.5977 347.95 82.5977H807.397C807.836 82.5977 808.129 82.89 808.129 83.3286C808.129 83.7672 807.836 84.0596 807.397 84.0596Z" fill="white"/>
<path d="M343.853 88.8839C346.924 88.8839 349.414 86.3968 349.414 83.3287C349.414 80.2606 346.924 77.7734 343.853 77.7734C340.783 77.7734 338.293 80.2606 338.293 83.3287C338.293 86.3968 340.783 88.8839 343.853 88.8839Z" fill="white"/>
<path d="M807.397 88.8839C810.468 88.8839 812.957 86.3968 812.957 83.3287C812.957 80.2606 810.468 77.7734 807.397 77.7734C804.326 77.7734 801.837 80.2606 801.837 83.3287C801.837 86.3968 804.326 88.8839 807.397 88.8839Z" fill="white"/>
<path d="M879.094 175.575C878.947 175.575 878.655 175.575 878.509 175.429C878.216 175.136 878.216 174.698 878.509 174.405L1048.97 3.94707C1049.26 3.65469 1049.7 3.65469 1050 3.94707C1050.29 4.23945 1050.29 4.67802 1050 4.9704L879.533 175.282C879.386 175.429 879.24 175.575 879.094 175.575Z" fill="white"/>
<path d="M900.164 185.077C900.018 185.077 899.725 185.077 899.579 184.931C899.286 184.639 899.286 184.2 899.579 183.908L1070.19 13.4495C1070.48 13.1571 1070.92 13.1571 1071.21 13.4495C1071.51 13.7419 1071.51 14.1805 1071.21 14.4728L900.749 184.785C900.603 184.931 900.457 185.077 900.164 185.077Z" fill="white"/>
<path d="M1084.24 366.792H838.856L731.31 259.342C731.018 259.05 731.018 258.611 731.31 258.319C731.603 258.027 732.042 258.027 732.335 258.319L839.441 365.33H1084.24C1084.67 365.33 1084.97 365.623 1084.97 366.061C1084.97 366.5 1084.67 366.792 1084.24 366.792Z" fill="white"/>
<path d="M560.554 279.955H551.336L537.582 265.628H546.8L560.554 279.955Z" fill="white"/>
<path d="M577.82 279.955H568.602L554.848 265.628H563.92L577.82 279.955Z" fill="white"/>
<path d="M595.086 279.955H585.868L572.114 265.628H581.185L595.086 279.955Z" fill="white"/>
<path d="M612.205 279.955H603.133L589.379 265.628H598.451L612.205 279.955Z" fill="white"/>
<path d="M629.471 279.955H620.399L606.499 265.628H615.717L629.471 279.955Z" fill="white"/>
<path d="M646.737 279.955H637.665L623.765 265.628H632.983L646.737 279.955Z" fill="white"/>
<path d="M664.003 279.955H654.785L641.031 265.628H650.249L664.003 279.955Z" fill="white"/>
<path d="M681.268 279.955H672.05L658.296 265.628H667.368L681.268 279.955Z" fill="white"/>
<path d="M393.017 411.673H376.044L350.438 385.212H367.411L393.017 411.673Z" fill="white"/>
<path d="M425.061 411.673H408.088L382.482 385.212H399.455L425.061 411.673Z" fill="white"/>
<path d="M456.959 411.673H440.132L414.526 385.212H431.353L456.959 411.673Z" fill="white"/>
<path d="M489.003 411.673H472.03L446.424 385.212H463.397L489.003 411.673Z" fill="white"/>
<path d="M521.048 411.673H504.074L478.468 385.212H495.441L521.048 411.673Z" fill="white"/>
<path d="M552.945 411.673H535.972L510.366 385.212H527.339L552.945 411.673Z" fill="white"/>
<path d="M584.99 411.673H568.016L542.41 385.212H559.384L584.99 411.673Z" fill="white"/>
<path d="M616.887 411.673H599.914L574.308 385.212H591.281L616.887 411.673Z" fill="white"/>
<path d="M98.1811 340.039H108.57L123.202 326.444L106.814 311.094H96.4253L112.813 326.444L98.1811 340.039Z" fill="white"/>
<path d="M114.423 340.039H124.811L139.297 326.444L123.056 311.094H112.667L128.908 326.444L114.423 340.039Z" fill="white"/>
<path d="M130.664 340.039H141.053L155.539 326.444L139.297 311.094H128.908L145.15 326.444L130.664 340.039Z" fill="white"/>
<path d="M146.906 340.039H157.295L171.78 326.444L155.539 311.094H145.15L161.392 326.444L146.906 340.039Z" fill="white"/>
<path d="M163.147 340.039H173.536L188.022 326.444L171.78 311.094H161.392L177.633 326.444L163.147 340.039Z" fill="white"/>
<path d="M179.389 340.039H189.778L204.264 326.444L188.022 311.094H177.633L193.875 326.444L179.389 340.039Z" fill="white"/>
<path d="M195.631 340.039H206.019L220.505 326.444L204.264 311.094H193.875L210.116 326.444L195.631 340.039Z" fill="white"/>
<path d="M211.872 340.039H222.261L236.747 326.444L220.505 311.094H210.116L226.358 326.444L211.872 340.039Z" fill="white"/>
<path d="M227.967 340.039H238.503L252.988 326.444L236.747 311.094H226.358L242.599 326.444L227.967 340.039Z" fill="white"/>
<path d="M244.209 340.039H254.598L269.23 326.444L252.988 311.094H242.6L258.841 326.444L244.209 340.039Z" fill="white"/>
<path d="M260.451 340.039H270.839L285.471 326.444L269.084 311.094H258.695L275.083 326.444L260.451 340.039Z" fill="white"/>
<path d="M744.333 121.046H752.966L765.11 109.789L751.502 97.2168H743.016L756.477 109.789L744.333 121.046Z" fill="white"/>
<path d="M757.794 121.046H766.427L778.572 109.789L764.964 97.2168H756.331L769.939 109.789L757.794 121.046Z" fill="white"/>
<path d="M771.256 121.046H779.889L791.887 109.789L778.425 97.2168H769.792L783.4 109.789L771.256 121.046Z" fill="white"/>
<path d="M784.717 121.046H793.35L805.348 109.789L791.887 97.2168H783.254L796.715 109.789L784.717 121.046Z" fill="white"/>
<path d="M798.179 121.046H806.812L818.81 109.789L805.349 97.2168H796.716L810.177 109.789L798.179 121.046Z" fill="white"/>
<path d="M811.64 121.046H820.273L832.271 109.789L818.81 97.2168H810.177L823.639 109.789L811.64 121.046Z" fill="white"/>
<path d="M825.102 121.046H833.734L845.733 109.789L832.271 97.2168H823.638L837.1 109.789L825.102 121.046Z" fill="white"/>
<path d="M838.563 121.046H847.05L859.194 109.789L845.733 97.2168H837.1L850.561 109.789L838.563 121.046Z" fill="white"/>
<path d="M851.878 121.046H860.511L872.656 109.789L859.048 97.2168H850.562L864.023 109.789L851.878 121.046Z" fill="white"/>
<path d="M865.34 121.046H873.973L886.117 109.789L872.51 97.2168H863.877L877.485 109.789L865.34 121.046Z" fill="white"/>
<path d="M878.801 121.046H887.434L899.433 109.789L885.971 97.2168H877.338L890.946 109.789L878.801 121.046Z" fill="white"/>
</g>
<defs>
<clipPath id="clip0_78_831">
<rect width="1195" height="520" fill="white"/>
</clipPath>
</defs>
</svg>
