<svg width="213" height="43" viewBox="0 0 213 43" fill="none" xmlns="http://www.w3.org/2000/svg">
<g clip-path="url(#clip0_2003_53)">
<path d="M35.849 6.19405C37.5722 6.19405 38.9692 4.80746 38.9692 3.09702C38.9692 1.38658 37.5722 0 35.849 0C34.1257 0 32.7288 1.38658 32.7288 3.09702C32.7288 4.80746 34.1257 6.19405 35.849 6.19405Z" fill="#9B9EA0"/>
<path d="M3.12022 41.5974C4.84347 41.5974 6.24044 40.2108 6.24044 38.5003C6.24044 36.7899 4.84347 35.4033 3.12022 35.4033C1.39697 35.4033 0 36.7899 0 38.5003C0 40.2108 1.39697 41.5974 3.12022 41.5974Z" fill="#9B9EA0"/>
<path d="M35.8387 8.02667C35.1644 8.02686 34.4977 7.88611 33.8819 7.61358C33.2661 7.34104 32.7151 6.94284 32.2646 6.44489L26.7101 26.7829C26.5605 27.346 26.2201 27.7452 25.8282 27.7452C25.4362 27.7452 25.2196 27.4842 25.0443 27.0798L18.6285 12.4291C17.3546 9.51631 15.2968 7.62739 12.9553 7.62739C10.1136 7.62739 7.66902 10.4531 6.5705 14.5176L1.26355 33.97C2.18409 33.5877 3.20152 33.4986 4.17527 33.715C5.14902 33.9315 6.03103 34.4427 6.69943 35.1781L12.0941 15.4339C12.2488 14.8811 12.584 14.4971 12.9708 14.4971C13.3576 14.4971 13.5794 14.7633 13.7547 15.1677L20.1912 29.8594C21.465 32.7466 23.5177 34.615 25.8282 34.615C28.6596 34.615 31.099 31.8098 32.2027 27.7657L37.7005 7.6581C37.1108 7.90286 36.4778 8.02817 35.8387 8.02667Z" fill="#9B9EA0"/>
<path d="M51.5017 34.615H50.8673C48.1809 34.6738 45.504 34.2791 42.9507 33.4479C40.8924 32.7984 39.0685 31.5695 37.7005 29.9106C36.8134 28.7597 36.2317 27.4061 36.0089 25.9741C35.9211 25.4531 35.878 24.9256 35.8799 24.3974C35.8969 23.2146 36.0703 22.0391 36.3957 20.9011C36.8381 19.244 37.5847 17.6822 38.5979 16.2939C39.5696 14.9502 40.7218 13.7446 42.0224 12.7106C44.07 11.153 46.3853 9.97701 48.8559 9.23988C51.4973 8.39521 54.2553 7.96515 57.0304 7.96524H59.0624L58.8097 9.14774C58.7684 9.34738 58.6962 9.69548 58.6085 10.1715C58.5157 10.6425 58.4212 11.1544 58.3249 11.7073L58.1392 12.5007H56.6952C55.1362 12.5124 53.5819 12.6718 52.0535 12.9768C50.5445 13.2525 49.079 13.7258 47.6955 14.3845C46.1287 15.1267 44.7262 16.1708 43.5696 17.456C42.5338 18.5965 41.7783 19.9596 41.3623 21.4386C41.1582 22.1621 41.0507 22.909 41.0425 23.6602C41.0385 24.2294 41.1149 24.7963 41.2694 25.3444C41.6354 26.5171 42.4228 27.5155 43.4819 28.1496C44.5802 28.8649 45.8053 29.3669 47.0921 29.6291C48.5637 29.952 50.0667 30.1134 51.5739 30.1102H51.9504H52.4042L53.9256 30.013L53.4099 31.431L53.0179 32.3524C52.8323 32.8438 52.6363 33.3813 52.43 33.9649L52.1979 34.6201L51.5017 34.615Z" fill="#9B9EA0"/>
<path d="M62.1207 34.7583C60.9198 34.7769 59.7279 34.5504 58.6188 34.0929C57.5729 33.6472 56.6601 32.9421 55.9679 32.0452C55.1586 30.9641 54.6612 29.6847 54.529 28.3442C54.4801 27.9313 54.456 27.5159 54.4568 27.1002C54.4645 26.0172 54.6153 24.9398 54.9055 23.8957C55.2891 22.4475 55.8944 21.0664 56.7003 19.8005C57.5273 18.5208 58.5605 17.3846 59.7586 16.4373C60.8403 15.5505 62.0594 14.8435 63.3688 14.3436C64.6291 13.8594 65.9679 13.6078 67.3193 13.6013C68.5789 13.5742 69.8296 13.8169 70.9862 14.3129C72.0489 14.7923 72.9587 15.5519 73.6165 16.5089C74.3749 17.5931 74.8434 18.8508 74.978 20.1639C75.0138 20.504 75.031 20.8458 75.0296 21.1877C75.0177 22.285 74.8617 23.376 74.5655 24.4332C74.1419 25.962 73.4713 27.4125 72.5799 28.7281C71.6938 30.0724 70.5848 31.258 69.2998 32.2346C68.2718 33.0208 67.1315 33.6505 65.9165 34.1031C64.6954 34.5447 63.4048 34.7666 62.1052 34.7583H62.1207ZM64.7716 18.188C64.1105 18.456 63.4961 18.8257 62.951 19.2835C62.1727 19.9183 61.5068 20.6779 60.9809 21.5307C60.4053 22.4173 59.9688 23.3857 59.6864 24.4025C59.4641 25.1876 59.3462 25.9982 59.3357 26.8136C59.3357 27.0286 59.3357 27.2385 59.3666 27.4381C59.4249 28.218 59.73 28.9598 60.2382 29.5574C60.5066 29.8667 60.8488 30.1043 61.2336 30.2485C61.714 30.4308 62.2253 30.5195 62.7396 30.5095C63.389 30.5089 64.0333 30.3946 64.6426 30.1717C65.2852 29.9298 65.883 29.5838 66.4116 29.1479C67.2229 28.5066 67.9202 27.7348 68.4746 26.8648C69.0385 25.9905 69.4646 25.0359 69.7381 24.0339C69.9526 23.26 70.0636 22.4614 70.0682 21.6587C70.0682 21.4573 70.0682 21.256 70.0682 21.0546C70.0342 20.2636 69.759 19.5013 69.2791 18.8688C69.0185 18.5358 68.6732 18.2778 68.2786 18.1214C67.7885 17.9197 67.2618 17.8204 66.7314 17.8296C66.0715 17.8202 65.4156 17.9331 64.7974 18.1624L64.7716 18.188Z" fill="#9B9EA0"/>
<path d="M96.7009 34.2925C96.7009 34.2925 97.1754 32.9769 97.1857 32.9411C97.1857 32.9104 97.6602 31.2979 97.8768 30.5249C98.3135 28.9755 98.7158 27.5183 99.0837 26.1532C99.2281 25.6157 100.358 21.3464 100.507 20.7475C100.641 20.2459 100.715 19.7305 100.729 19.2118C100.751 18.9773 100.706 18.7414 100.6 18.531C100.501 18.4036 100.364 18.3105 100.208 18.2648C99.8616 18.1548 99.4987 18.1046 99.1352 18.1163C98.3846 18.1516 97.6438 18.3 96.9382 18.5566C95.9179 18.9048 94.925 19.3274 93.9675 19.821C93.9263 20.0001 90.1304 34.2771 90.1304 34.2771H85.2206L86.1799 30.8474C86.5615 29.5318 87.4795 26.1737 87.4795 26.1737C87.6394 25.5748 88.2067 23.4452 88.2067 23.4452C88.5316 22.2269 88.7637 21.3311 88.903 20.7629C89.016 20.312 89.0953 19.8534 89.1402 19.391C89.1402 19.3039 89.1402 19.2169 89.1402 19.1401C89.1461 18.9658 89.1181 18.792 89.0577 18.6282C89.0034 18.477 88.8926 18.3524 88.7483 18.2801C88.3741 18.1441 87.975 18.0882 87.5775 18.1163C86.8256 18.1578 86.087 18.3311 85.396 18.6282C84.3377 19.0547 83.3046 19.54 82.3015 20.082C82.1932 20.4711 78.5263 34.2669 78.5263 34.2669H73.6113L73.9466 33.0332C73.9775 32.9155 74.1786 32.2295 74.5551 30.9191C74.9299 29.6256 75.523 27.4688 76.3344 24.4486C76.5992 23.4657 76.955 22.1382 77.402 20.466C77.8455 18.8006 78.3338 16.9116 78.8667 14.7992L79.0524 14.0569H83.9519L83.627 15.2138C84.1324 14.9749 84.6705 14.7394 85.2412 14.5074C86.4594 13.9577 87.7724 13.6449 89.1093 13.586C90.3046 13.5268 91.4868 13.8556 92.477 14.5227C92.9495 14.8676 93.3418 15.3093 93.6271 15.8179C94.7712 15.2405 95.9512 14.7361 97.16 14.3077C98.2766 13.8806 99.4559 13.6368 100.651 13.586C102.493 13.586 104.076 14.1491 104.984 15.4595C105.52 16.251 105.796 17.1883 105.773 18.1419C105.763 18.8345 105.663 19.5228 105.474 20.1895C105.128 21.4693 101.709 34.2618 101.709 34.2618L96.7009 34.2925Z" fill="#9B9EA0"/>
<path d="M102.338 42.4983L102.756 41.2186C102.756 41.1776 104.133 36.2736 104.133 36.2736C104.994 33.1561 106.711 26.8904 106.711 26.8904C107.134 25.3188 108.166 21.4027 108.166 21.4027C108.718 19.3193 109.93 14.6661 109.93 14.6661L110.115 13.9545H110.853C111.255 13.9545 111.651 13.9545 112.039 13.9545H112.921C114.932 13.9085 116.944 14.0473 118.929 14.3692C120.299 14.6207 121.6 15.1524 122.751 15.9305C123.94 16.7355 124.822 17.9149 125.252 19.2783C125.472 19.9653 125.581 20.6821 125.577 21.4027C125.569 22.2523 125.449 23.0972 125.221 23.9162C124.731 25.829 123.784 27.5968 122.462 29.0711C121.185 30.4541 119.642 31.5698 117.924 32.3524C116.432 33.0389 114.856 33.526 113.236 33.8011C112.005 34.017 110.761 34.1504 109.512 34.2004L107.346 42.4932L102.338 42.4983ZM110.652 29.9618C111.335 29.9131 112.015 29.8294 112.689 29.711C113.658 29.5571 114.607 29.2925 115.515 28.9226C116.701 28.4357 117.767 27.7006 118.641 26.7675C119.478 25.8269 120.074 24.6995 120.379 23.4811C120.509 23.0246 120.579 22.553 120.585 22.0785C120.59 21.6989 120.529 21.3215 120.404 20.9625C120.184 20.3036 119.753 19.7339 119.177 19.3398C118.517 18.9229 117.784 18.6329 117.016 18.4849C115.998 18.2783 114.961 18.1805 113.922 18.1931H113.839C113.762 18.531 110.745 29.5369 110.652 29.9618Z" fill="#9B9EA0"/>
<path d="M126 32.8643C125.473 32.0654 125.205 31.126 125.232 30.1717C125.243 29.4061 125.355 28.6453 125.567 27.909C125.83 26.9415 127.331 21.5768 127.331 21.5768C127.625 20.4915 129.26 14.0876 129.26 14.0876H134.169L131.23 24.7813C130.905 26.0201 130.678 26.9006 130.539 27.4074C130.379 27.9817 130.289 28.5728 130.27 29.1683C130.258 29.4158 130.297 29.663 130.384 29.8952C130.436 30.0117 130.53 30.1048 130.647 30.1563C130.919 30.2689 131.214 30.3196 131.508 30.3048C132.688 30.2546 133.848 29.9854 134.928 29.5113C135.877 29.1455 136.805 28.7268 137.707 28.2571L138.156 26.6498C138.5 25.469 138.904 23.9964 139.368 22.232C139.708 20.9779 141.472 14.0927 141.472 14.0927H146.382L143.845 23.2251C143.427 24.7608 140.931 34.3027 140.931 34.3027H136.103L136.439 33.0639C135.892 33.3165 135.307 33.5707 134.685 33.8267C133.313 34.416 131.838 34.7326 130.343 34.7583H130.276C128.46 34.7583 126.897 34.1645 126.005 32.854L126 32.8643Z" fill="#9B9EA0"/>
<path d="M148.027 32.5572C147.202 31.6667 146.763 30.49 146.805 29.281C146.817 28.4791 146.935 27.6824 147.156 26.9108C147.517 25.5748 149.1 19.8875 149.569 18.1675H146.516L147.615 14.103H150.828L152.004 9.82858H156.645L155.49 14.103H162.009L160.91 18.1675H154.402C154.293 18.5463 152.256 25.9382 151.983 26.9518C151.853 27.3999 151.782 27.8627 151.771 28.3288C151.735 28.7187 151.855 29.1071 152.107 29.4089C152.437 29.7826 153.381 30.1512 155.041 30.141H155.805H156.408H157.873L156.129 34.2618L155.567 34.3386C155.382 34.3386 155.186 34.3693 154.83 34.3847C154.484 34.3847 154.185 34.3847 153.927 34.3847C151.349 34.3847 149.286 33.8728 148.001 32.5418L148.027 32.5572Z" fill="#9B9EA0"/>
<path d="M177.543 34.2925L177.93 33.0332C178.023 32.7209 179.838 26.2249 179.838 26.2249C180.008 25.6003 181.127 21.3515 181.267 20.7987C181.4 20.2969 181.477 19.7817 181.494 19.263C181.509 19.0173 181.465 18.7715 181.365 18.5463C181.318 18.4746 181.267 18.403 181.035 18.3108C180.666 18.1903 180.278 18.1366 179.89 18.1521C179.004 18.2094 178.133 18.4082 177.311 18.7408C176.198 19.1454 175.111 19.6172 174.057 20.1537L172.597 25.4365C172.221 26.8238 170.292 34.313 170.292 34.313H165.382C165.382 34.313 165.944 32.2653 166.346 30.8576C166.743 29.4806 168.053 24.6738 168.053 24.6738C168.394 23.4145 169.24 20.2407 169.24 20.2407C169.688 18.5514 170.818 14.0978 170.818 14.0978H175.728L175.367 15.3981C176.341 14.9536 177.342 14.5673 178.363 14.2412C179.417 13.8811 180.519 13.6742 181.633 13.6269C183.371 13.6269 184.897 14.2156 185.784 15.5005C186.311 16.288 186.581 17.2173 186.558 18.1624C186.548 18.8758 186.444 19.5848 186.249 20.2714C185.836 21.8071 184.593 26.1942 184.413 26.875C184.119 27.9602 182.499 34.2925 182.499 34.2925H177.543Z" fill="#9B9EA0"/>
<path d="M184.222 42.4983L184.825 38.2649H185.666C187.064 38.2649 188.327 38.1676 189.451 38.0448C190.488 37.9369 191.51 37.719 192.499 37.3946C193.669 37.0507 194.733 36.4205 195.594 35.562C196.009 35.1014 196.357 34.5843 196.625 34.0263C195.279 33.9943 193.939 33.8227 192.628 33.5144C191.215 33.2167 189.893 32.5904 188.771 31.6869C187.739 30.8436 186.984 29.7134 186.605 28.4414C186.411 27.8059 186.315 27.1448 186.321 26.4808C186.335 25.5248 186.475 24.5748 186.739 23.6551C187.24 21.805 188.223 20.1187 189.591 18.7664C190.99 17.3711 192.649 16.2585 194.475 15.4902C195.814 14.9158 197.221 14.5133 198.662 14.2924C200.321 14.0579 201.995 13.9484 203.67 13.9648H207.043C207.043 13.9648 204.609 22.8514 204.093 24.766C203.743 26.0611 202.365 31.3132 202.061 32.4445C201.612 34.3566 200.73 36.1422 199.483 37.6659C198.338 38.9577 196.932 39.9956 195.357 40.7118C193.974 41.3163 192.525 41.7611 191.04 42.0376C189.169 42.3761 187.269 42.5355 185.367 42.5137H184.232L184.222 42.4983ZM199.018 18.3671C198.099 18.5297 197.199 18.7835 196.331 19.1248C195.151 19.5541 194.09 20.2559 193.237 21.1724C192.429 22.0449 191.847 23.0989 191.54 24.2438C191.401 24.7304 191.327 25.2329 191.318 25.7386C191.311 26.1699 191.392 26.5982 191.556 26.9979C191.865 27.7322 192.425 28.3343 193.139 28.6974C193.802 29.0385 194.508 29.2915 195.238 29.4499C196.126 29.6507 197.035 29.7503 197.946 29.7468C198.038 29.4243 199.493 24.2233 199.493 24.2233C199.725 23.3582 200.844 19.135 201.092 18.1726C200.401 18.192 199.712 18.2552 199.029 18.362L199.018 18.3671Z" fill="#9B9EA0"/>
<path d="M166.233 13.7446C167.956 13.7446 169.353 12.3581 169.353 10.6476C169.353 8.93718 167.956 7.5506 166.233 7.5506C164.51 7.5506 163.113 8.93718 163.113 10.6476C163.113 12.3581 164.51 13.7446 166.233 13.7446Z" fill="#9B9EA0"/>
<path d="M166.223 15.5772C165.185 15.5736 164.177 15.2359 163.35 14.6149C163.252 15.0039 162.318 18.6333 161.957 20.0308C161.562 21.5153 161.197 22.8804 160.864 24.1261C160.482 25.5389 158.435 32.9001 158.394 33.023L157.971 34.3078H162.953C162.953 34.3078 163.386 32.6595 163.819 30.9498C164.252 29.24 164.851 27.0183 165.588 24.2182C165.908 23.0459 168.11 15.2189 168.11 15.2189C167.512 15.4635 166.87 15.5854 166.223 15.5772Z" fill="#9B9EA0"/>
<path d="M212.861 16.1864C212.874 16.6499 212.748 17.1068 212.498 17.4986C212.248 17.8904 211.886 18.1993 211.458 18.3857C211.031 18.5721 210.557 18.6275 210.097 18.5449C209.637 18.4622 209.213 18.2453 208.878 17.9218C208.543 17.5984 208.314 17.1831 208.218 16.7293C208.123 16.2754 208.166 15.8035 208.342 15.3741C208.518 14.9447 208.82 14.5773 209.207 14.3189C209.595 14.0606 210.052 13.923 210.519 13.9238C210.823 13.9177 211.125 13.9716 211.408 14.0824C211.691 14.1932 211.949 14.3586 212.167 14.5691C212.385 14.7796 212.558 15.031 212.677 15.3086C212.796 15.5863 212.859 15.8847 212.861 16.1864ZM208.735 16.1864C208.724 16.426 208.763 16.6652 208.849 16.8892C208.935 17.1133 209.067 17.3175 209.235 17.4892C209.404 17.6609 209.606 17.7965 209.83 17.8876C210.053 17.9787 210.293 18.0235 210.535 18.019C210.769 18.0185 211.001 17.9712 211.217 17.8798C211.432 17.7885 211.627 17.655 211.79 17.4874C211.953 17.3198 212.08 17.1214 212.164 16.904C212.247 16.6867 212.286 16.4548 212.278 16.2223C212.291 15.9847 212.255 15.7471 212.172 15.5238C212.09 15.3005 211.962 15.0963 211.797 14.9236C211.632 14.7509 211.434 14.6134 211.214 14.5194C210.993 14.4254 210.756 14.3769 210.517 14.3769C210.277 14.3769 210.04 14.4254 209.82 14.5194C209.6 14.6134 209.401 14.7509 209.236 14.9236C209.071 15.0963 208.944 15.3005 208.861 15.5238C208.778 15.7471 208.742 15.9847 208.755 16.2223L208.735 16.1864ZM210.143 17.374H209.627V15.1063C209.916 15.0549 210.21 15.0309 210.504 15.0346C210.779 15.0113 211.055 15.0683 211.298 15.1985C211.372 15.2612 211.431 15.34 211.469 15.4287C211.508 15.5175 211.525 15.6139 211.52 15.7104C211.507 15.8349 211.453 15.952 211.368 16.0441C211.282 16.1363 211.169 16.1988 211.045 16.2223V16.2479C211.159 16.2937 211.258 16.3694 211.331 16.4668C211.405 16.5642 211.451 16.6796 211.463 16.8007C211.485 16.9981 211.541 17.1903 211.628 17.3689H211.056C210.968 17.1946 210.907 17.0083 210.875 16.8161C210.834 16.5652 210.695 16.4577 210.401 16.4577H210.148L210.143 17.374ZM210.143 16.0892H210.395C210.689 16.0892 210.911 15.9919 210.911 15.7564C210.911 15.521 210.756 15.4083 210.421 15.4083C210.323 15.4055 210.224 15.4141 210.127 15.4339L210.143 16.0892Z" fill="#9B9EA0"/>
</g>
<defs>
<clipPath id="clip0_2003_53">
<rect width="213" height="43" fill="white"/>
</clipPath>
</defs>
</svg>
