<svg width="219" height="36" viewBox="0 0 219 36" fill="none" xmlns="http://www.w3.org/2000/svg">
<g clip-path="url(#clip0_2003_266)">
<path fill-rule="evenodd" clip-rule="evenodd" d="M10.0829 0H24.2288C20.8683 11.5233 17.5069 23.0466 14.1469 34.5705H0L10.0829 0ZM19.8518 26.6964L20.1693 27.3759C20.1531 30.2984 21.7006 35.2684 35.2883 35.3957C35.2883 35.3957 47.328 34.9865 50.8328 33.0563L53.4472 26.6984L53.4947 26.583C53.4947 26.583 53.4266 26.6203 53.2963 26.6919L53.4472 26.6989H53.2963C51.8427 27.4719 42.6749 32.161 35.2469 30.4231C35.2469 30.4231 33.0619 30.0608 33.0619 28.1022L33.1886 27.4102L36.2538 26.6984L58.1154 21.6249C58.1154 21.6249 63.4367 10.1926 43.1312 10.468C22.8272 10.7434 20.1688 23.414 19.8876 26.0327C19.8675 26.2316 19.8538 26.4538 19.8518 26.6964ZM74.0652 26.6984L77.6533 14.9528C77.6533 14.9528 86.2442 13.7399 85.1197 18.102L82.5784 26.6984L80.2506 34.5705H94.5081L96.8939 26.6984L99.5508 17.932C99.5508 17.932 101.282 13.1429 95.2016 11.9518C95.2016 11.9518 88.6018 10.1642 79.4718 10.6743C70.3424 11.1848 63.8289 12.3773 63.8289 12.3773L59.5145 26.6984L57.1433 34.5705H71.6612L74.0652 26.6984ZM99.6734 26.6984C99.6648 25.0977 100.156 23.9121 100.156 23.9121C100.156 23.9121 101.562 11.3558 122.42 10.5898C143.277 9.82423 141.113 20.762 141.113 20.762C141.113 20.762 140.919 23.5552 138.649 26.6954C135.879 30.527 130.015 34.8747 117.638 35.2942C102.154 35.8212 99.6976 30.2442 99.6734 26.6984ZM124.698 26.6984C126.176 23.9166 126.422 20.762 126.422 20.762C126.768 18.7179 127.374 14.9528 122.42 14.8663C117.464 14.7823 116.339 19.6544 116.339 19.6544L114.934 23.7426C114.635 24.9118 114.508 25.8881 114.508 26.7058C114.512 31.137 118.244 30.8482 118.244 30.8482C121.529 30.9222 123.511 28.9323 124.698 26.6984ZM144.299 26.6984L142.41 11.3558H155.523L157.433 26.6984L157.535 27.5071L158.104 26.6984L168.915 11.3558H182.567L171.943 26.6984L166.492 34.5705H145.268L144.299 26.6984ZM177.499 26.6984C177.488 25.0977 177.98 23.9121 177.98 23.9121C177.98 23.9121 179.386 11.3558 200.243 10.5898C221.099 9.82423 218.936 20.762 218.936 20.762C218.936 20.762 218.744 23.5552 216.473 26.6954C213.702 30.527 207.84 34.8747 195.46 35.2942C179.976 35.8212 177.521 30.2442 177.499 26.6984ZM202.52 26.6984C204 23.9166 204.245 20.762 204.245 20.762C204.592 18.7179 205.199 14.9528 200.243 14.8663C195.288 14.7823 194.163 19.6544 194.163 19.6544L192.757 23.7426C192.457 24.9118 192.331 25.8881 192.333 26.7058C192.335 31.137 196.066 30.8482 196.066 30.8482C199.353 30.9222 201.333 28.9323 202.52 26.6984ZM33.495 25.7196L46.6284 19.2085C46.6284 19.2085 47.9256 14.1649 41.9325 14.2504C35.9399 14.3349 35.0531 19.5689 35.0531 19.5689L33.495 25.7196Z" fill="#9B9EA0"/>
</g>
<defs>
<clipPath id="clip0_2003_266">
<rect width="219" height="36" fill="white"/>
</clipPath>
</defs>
</svg>
