<svg width="151" height="53" viewBox="0 0 151 53" fill="none" xmlns="http://www.w3.org/2000/svg">
<g clip-path="url(#clip0_2003_25)">
<path d="M27.2853 26.6259C27.2853 20.7893 23.4127 17.474 17.9302 17.474H14.5749V35.7839H17.8348C22.9325 35.7839 27.2853 33.0134 27.2853 26.6259ZM86.9709 33.2135L62.2519 52.6777L39.6601 34.8911C36.4002 42.7224 28.5227 48.1618 19.4509 48.1618H0.115967V5.0899H19.4509C29.5878 5.0899 36.8927 11.5359 39.654 18.4036L62.2519 0.635563L70.6219 7.22318L49.9109 23.5014L53.8912 26.6166L74.596 10.3477L82.9783 16.9168L62.2704 33.2135L66.2445 36.3349L86.9709 20.0352V5.0899H101.996V35.5899H116.985V48.2141H86.9709V33.2135ZM136.018 35.5961H151V48.2141H120.977V5.0899H136.018V35.5961Z" fill="#9B9EA0"/>
</g>
<defs>
<clipPath id="clip0_2003_25">
<rect width="151" height="53" fill="white"/>
</clipPath>
</defs>
</svg>
