<svg width="151" height="44" viewBox="0 0 151 44" fill="none" xmlns="http://www.w3.org/2000/svg">
<g clip-path="url(#clip0_2003_339)">
<path d="M71.7503 22.8518C69.5794 20.8753 66.6191 19.4918 62.8695 18.7012C59.1198 17.713 56.5542 16.9224 55.5675 16.3294C54.5807 15.5388 53.9887 14.7482 53.9887 13.5624C53.9887 12.3765 54.3834 11.3882 55.3701 10.7953C56.1595 10.0047 57.3436 9.80707 58.9225 9.80707C62.6721 9.80707 66.2244 11.1906 69.7768 13.76L74.3158 7.23765C72.3423 5.45883 69.9741 4.27295 67.2112 3.28471C64.4483 2.29648 61.8827 1.90118 59.1198 1.90118C54.9754 1.90118 51.6205 2.88942 48.8575 5.06354C46.0946 7.04001 44.7132 10.0047 44.7132 13.9577C44.7132 17.7129 45.6999 20.6777 47.8708 22.4565C50.0417 24.2353 53.3966 25.6188 58.1331 26.8047C61.0933 27.5953 63.0668 28.1882 64.0536 28.9788C65.0403 29.7694 65.6324 30.56 65.6324 31.9435C65.6324 33.1294 65.2377 34.1177 64.2509 34.9082C63.2642 35.6988 62.0801 35.8965 60.3039 35.8965C56.5542 35.8965 52.6072 33.92 48.2655 30.1647L42.937 36.0941C48.0681 40.8377 53.7913 43.2094 60.1066 43.2094C64.4483 43.2094 68.0006 42.0235 70.7635 39.8494C73.5264 37.6753 74.9079 34.7106 74.9079 30.9553C74.9079 27.3977 73.9211 24.6306 71.7503 22.8518Z" fill="#9B9EA0"/>
<path d="M142.007 2.09885V27.9906L122.272 2.09885H113.786V36.0941L99.1822 2.09885H90.4987L73.1318 42.4188H82.6047L86.3544 33.7224H103.129L106.879 42.4188H122.667V17.12L141.81 42.4188H150.888V2.09885H142.007ZM89.7093 25.8165L94.8405 14.1553L99.7742 25.8165H89.7093Z" fill="#9B9EA0"/>
<path d="M14.9132 29.3741C10.9662 25.4212 10.9662 18.8988 14.9132 14.7482C18.8603 10.7953 25.3729 10.7953 29.5172 14.7482C32.4775 17.713 33.2669 22.0612 31.8854 25.6188L40.3715 34.1177C45.8974 25.6188 45.108 14.1553 37.6086 6.64472C29.1225 -1.85411 15.3079 -1.85411 6.82185 6.64472C-1.66425 15.1435 -1.66425 28.9788 6.82185 37.4777C14.3212 44.9882 25.7676 45.7788 34.2537 40.2447L25.7676 31.7459C22.2152 33.1294 17.8735 32.3388 14.9132 29.3741Z" fill="#9B9EA0"/>
</g>
<defs>
<clipPath id="clip0_2003_339">
<rect width="151" height="44" fill="white"/>
</clipPath>
</defs>
</svg>
