<svg width="182" height="31" viewBox="0 0 182 31" fill="none" xmlns="http://www.w3.org/2000/svg">
<g clip-path="url(#clip0_2003_361)">
<path d="M176.817 6.57738V2.53391H178.599C178.976 2.53391 179.246 2.58782 179.408 2.64173C179.57 2.69564 179.732 2.85738 179.84 3.01912C179.948 3.18086 180.002 3.39651 180.002 3.61217C180.002 3.88173 179.894 4.1513 179.732 4.31304C179.57 4.52869 179.246 4.63651 178.869 4.69043C179.03 4.74434 179.138 4.85217 179.192 4.90608C179.354 5.06782 179.516 5.22956 179.624 5.44521L180.326 6.52347H179.678L179.138 5.66086C178.976 5.44521 178.869 5.22956 178.761 5.12173C178.653 5.0139 178.545 4.90608 178.491 4.85217C178.437 4.79825 178.329 4.74434 178.221 4.74434C178.167 4.74434 178.059 4.74434 177.897 4.74434H177.303V6.52347H176.817V6.57738ZM177.357 4.31304H178.491C178.761 4.31304 178.923 4.31304 179.084 4.25912C179.246 4.20521 179.354 4.1513 179.408 3.98956C179.462 3.88173 179.516 3.7739 179.516 3.61217C179.516 3.39651 179.462 3.28869 179.3 3.12695C179.138 3.01912 178.922 2.96521 178.653 2.96521H177.357V4.31304Z" fill="#9B9EA0"/>
<path d="M174.873 4.52869C174.873 2.58782 176.493 0.970428 178.437 0.970428C180.38 0.970428 182 2.58782 182 4.52869C182 6.46956 180.38 8.08695 178.437 8.08695C176.439 8.08695 174.873 6.46956 174.873 4.52869ZM175.413 4.52869C175.413 6.19999 176.763 7.54782 178.437 7.54782C180.11 7.54782 181.46 6.19999 181.46 4.52869C181.46 2.85738 180.11 1.50956 178.437 1.50956C176.763 1.45565 175.413 2.85738 175.413 4.52869Z" fill="#9B9EA0"/>
<path d="M128.28 30.7304H116.672V22.6435H100.421V30.7304H88.8134V7.0087C88.8134 4.96 89.5692 3.39652 91.0809 2.15652C92.5926 0.970435 94.6983 0.431305 97.5057 0.431305H119.534C122.287 0.431305 124.447 1.02435 125.958 2.15652C127.47 3.34261 128.226 4.96 128.226 7.0087V30.7304H128.28ZM116.672 17.0365V8.30261H100.421V17.0904H116.672V17.0365Z" fill="#9B9EA0"/>
<path d="M169.798 1.94087C168.61 1.02435 166.829 0.539131 164.399 0.431305H164.453H164.021C163.913 0.431305 163.859 0.431305 163.751 0.431305H143.127H142.479C139.726 0.431305 137.566 1.02435 136.055 2.15652C134.543 3.34261 133.787 4.90609 133.787 6.84696V6.90087C133.787 6.95478 133.787 6.95478 133.787 6.95478V30.6765H145.395V22.8052H164.129C169.204 22.8052 171.742 20.7565 171.742 16.6591V6.95478C171.688 4.63652 171.04 2.96522 169.798 1.94087ZM159.918 16.12H145.179V8.30261H159.918V16.12Z" fill="#9B9EA0"/>
<path d="M74.2901 0.431305H72.5624V18.0609C72.5084 18.2226 72.3465 18.3843 71.9685 18.3304C71.9685 18.3304 71.7526 18.2765 71.5906 18.1148C69.647 15.0957 62.0884 4.74435 59.7128 1.45565C59.7128 1.45565 59.7128 1.45565 59.6588 1.40174C59.6048 1.34783 59.6048 1.34783 59.5508 1.29391C59.5508 1.24 59.4968 1.24 59.4968 1.24C58.903 0.70087 58.0931 0.431305 57.0133 0.431305H47.6191C46.4313 0.431305 45.5135 0.754783 44.9196 1.40174C44.2717 2.0487 43.9478 2.96522 43.9478 4.04348V30.7304H54.9077C54.9077 30.7304 54.8537 16.6591 54.7997 12.5078C54.8537 12.2383 55.0697 11.8609 55.8795 11.9148C55.8795 11.9148 56.2035 11.9148 56.3114 12.1843C58.4171 15.527 72.2925 30.7304 72.2925 30.7304H83.6843V0.431305H74.2901Z" fill="#9B9EA0"/>
<path d="M24.8894 23.6678C24.7274 23.56 24.5654 23.3983 24.3495 23.2904H12.2557V7.33217H28.3987V20.9183C33.2578 22.4278 36.6052 24.3687 38.8727 26.2017C39.2507 25.2313 39.4666 24.0991 39.4666 22.8052V8.03304C39.4126 2.96522 36.4432 0.323478 30.5043 0H29.5325C29.4785 0 29.4785 0 29.4245 0H9.98813C3.34737 0 0 2.69565 0 8.03304V22.8052C0 28.1426 3.34737 30.7843 9.98813 30.7843H29.4785C30.5043 30.7843 31.4761 30.7304 32.34 30.5687C30.7203 28.2504 27.6968 25.7165 24.8894 23.6678Z" fill="#9B9EA0"/>
<path d="M21.1101 19.9478C24.7274 22.2661 31.3682 26.8487 33.5278 31H41.7882C40.3845 28.4661 35.6334 22.4278 21.1101 19.9478Z" fill="#9B9EA0"/>
</g>
<defs>
<clipPath id="clip0_2003_361">
<rect width="182" height="31" fill="white"/>
</clipPath>
</defs>
</svg>
