<svg width="226" height="33" viewBox="0 0 226 33" fill="none" xmlns="http://www.w3.org/2000/svg">
<g clip-path="url(#clip0_64_684)">
<path d="M124.421 16.6585C124.421 13.8135 126.584 11.6534 129.433 11.6534C132.019 11.6534 133.655 13.234 134.077 14.7619L132.23 15.236C131.913 14.2877 130.858 13.4447 129.433 13.4447C127.534 13.4447 126.32 14.9199 126.32 16.6585C126.32 18.3971 127.534 19.925 129.433 19.925C130.911 19.925 131.913 19.082 132.23 18.1337L134.077 18.6079C133.655 20.1357 132.019 21.7163 129.486 21.7163C126.584 21.6636 124.421 19.5035 124.421 16.6585Z" fill="#9B9EA0"/>
<path d="M135.026 16.6585C135.026 13.8135 137.19 11.6534 140.092 11.6534C142.994 11.6534 145.157 13.8135 145.157 16.6585C145.157 19.5035 142.994 21.6636 140.092 21.6636C137.19 21.6636 135.026 19.5035 135.026 16.6585ZM143.258 16.6585C143.258 14.8672 141.991 13.392 140.092 13.392C138.192 13.392 136.926 14.8145 136.926 16.6585C136.926 18.5025 138.14 19.925 140.092 19.925C141.991 19.925 143.258 18.5025 143.258 16.6585Z" fill="#9B9EA0"/>
<path d="M154.813 11.8641V21.5055H153.283L148.429 15.236V21.5055H146.529V11.8641H148.059L152.914 18.081V11.8641H154.813Z" fill="#9B9EA0"/>
<path d="M156.08 18.766L157.874 18.2391C158.243 19.2401 159.246 20.0304 160.618 20.0304C161.726 20.0304 162.464 19.4509 162.464 18.8186C162.464 18.2918 162.095 17.9757 161.198 17.6596L158.718 16.8693C157.452 16.4478 156.555 15.6575 156.555 14.4458C156.555 12.9706 157.979 11.7062 159.984 11.7062C162.042 11.7062 163.625 12.8652 164.1 14.1824L162.359 14.7092C161.937 13.9189 161.04 13.3921 159.984 13.3921C159.035 13.3921 158.454 13.8663 158.454 14.4458C158.454 14.8673 158.718 15.1834 159.351 15.3414L161.726 16.1317C163.203 16.6059 164.311 17.1854 164.311 18.766C164.311 20.3992 162.781 21.769 160.459 21.769C158.19 21.6636 156.66 20.2411 156.08 18.766Z" fill="#9B9EA0"/>
<path d="M173.915 11.8641V17.5541C173.915 19.9776 172.437 21.7162 169.746 21.7162C167.055 21.7162 165.578 20.0303 165.578 17.5541V11.8641H167.477V17.5014C167.477 18.9239 168.216 19.9249 169.746 19.9249C171.276 19.9249 172.015 18.9239 172.015 17.5014V11.8641H173.915Z" fill="#9B9EA0"/>
<path d="M182.304 19.7669V21.5055H175.603V11.8641H177.503V19.7669H182.304Z" fill="#9B9EA0"/>
<path d="M189.85 13.5501H186.631V21.4528H184.731V13.5501H181.513V11.8641H189.85V13.5501Z" fill="#9B9EA0"/>
<path d="M196.181 19.3981H191.855L191.063 21.5055H189.111L192.804 11.8641H195.232L198.925 21.5055H196.973L196.181 19.3981ZM195.548 17.7122L194.018 13.6554L192.488 17.7122H195.548Z" fill="#9B9EA0"/>
<path d="M208.159 11.8641V21.5055H206.629L201.775 15.236V21.5055H199.875V11.8641H201.405L206.26 18.081V11.8641H208.159Z" fill="#9B9EA0"/>
<path d="M217.604 13.5501H214.386V21.4528H212.486V13.5501H209.267V11.8641H217.604V13.5501Z" fill="#9B9EA0"/>
<path d="M217.551 18.766L219.345 18.2391C219.715 19.2401 220.717 20.0304 222.089 20.0304C223.197 20.0304 223.936 19.4509 223.936 18.8186C223.936 18.2918 223.567 17.9757 222.67 17.6596L220.19 16.8693C218.923 16.4478 218.026 15.6575 218.026 14.4458C218.026 12.9706 219.451 11.7062 221.456 11.7062C223.514 11.7062 225.097 12.8652 225.572 14.1824L223.83 14.7092C223.408 13.9189 222.511 13.3921 221.456 13.3921C220.506 13.3921 219.926 13.8663 219.926 14.4458C219.926 14.8673 220.19 15.1834 220.823 15.3414L223.197 16.1317C224.675 16.6059 225.783 17.1854 225.783 18.766C225.783 20.3992 224.252 21.769 221.931 21.769C219.662 21.6636 218.079 20.2411 217.551 18.766Z" fill="#9B9EA0"/>
<path d="M38.5714 0.905762H0V32.464H38.5714C45.6947 32.464 51.4989 26.6687 51.4989 19.5562V13.7609C51.4989 6.64842 45.6947 0.905762 38.5714 0.905762ZM46.2224 19.5562C46.2224 23.771 42.7927 27.1955 38.5714 27.1955H5.27653V6.12157H38.5714C42.7927 6.12157 46.2224 9.54608 46.2224 13.7609V19.5562Z" fill="#9B9EA0"/>
<path d="M108.011 10.073C108.011 5.01526 103.895 0.853149 98.7767 0.853149H56.5117V14.0244V19.2929V32.4641H98.7767C103.842 32.4641 108.011 28.3547 108.011 23.2442C108.011 20.6627 106.955 18.3445 105.214 16.6586C106.955 15.0254 108.011 12.6546 108.011 10.073ZM102.787 23.2442C102.787 25.4043 100.993 27.1956 98.8295 27.1956H61.841V19.2929H98.8295C100.993 19.2929 102.787 21.0842 102.787 23.2442ZM61.7882 14.0244V6.12164H98.7767C100.94 6.12164 102.734 7.91293 102.734 10.073C102.734 12.2331 100.94 14.0244 98.7767 14.0244H61.7882Z" fill="#9B9EA0"/>
<path d="M159.14 27.1956H125.845C121.624 27.1956 118.194 23.7711 118.194 19.5563V13.761C118.194 9.54616 121.624 6.12164 125.845 6.12164H159.14L164.417 0.853149H125.845C118.722 0.853149 112.918 6.64849 112.918 13.761V19.5036C112.918 26.6161 118.722 32.4114 125.845 32.4114H164.417L159.14 27.1956Z" fill="#9B9EA0"/>
</g>
<defs>
<clipPath id="clip0_64_684">
<rect width="226" height="33" fill="white"/>
</clipPath>
</defs>
</svg>
