<svg width="271" height="57" viewBox="0 0 271 57" fill="none" xmlns="http://www.w3.org/2000/svg">
<g clip-path="url(#clip0_64_669)">
<path d="M81.7417 15.4888L72.2769 36.6132H76.6938L84.5525 19.082L92.3729 36.6132H96.7516L87.2676 15.4888H81.7417Z" fill="#9B9EA0"/>
<path d="M119.831 36.6132H123.731V23.8667H134.84V20.3491H119.831V36.6132Z" fill="#9B9EA0"/>
<path d="M171.973 15.4888L161.438 36.6132H165.893L168.914 30.5614H180.52L183.522 36.6132H188.015L177.499 15.4888H171.973ZM170.768 26.8926L174.746 18.9307L178.723 26.8926H170.768Z" fill="#9B9EA0"/>
<path d="M206.983 21.7297C206.104 21.011 205.071 20.4815 203.886 20.1222C202.719 19.7818 201.438 19.5927 200.081 19.5927C198.608 19.5927 197.232 19.8385 195.989 20.3113C195.205 20.6139 194.478 20.9921 193.828 21.446L193.924 20.3302H190.023V41.4546L193.886 41.4925V35.4596C194.574 35.9135 195.339 36.2917 196.18 36.5754C197.423 36.9915 198.761 37.1995 200.195 37.1806C201.553 37.1806 202.834 37.0104 203.981 36.67C205.167 36.3295 206.219 35.7811 207.079 35.0435C207.959 34.306 208.647 33.3604 209.144 32.2446C209.641 31.1288 209.89 29.805 209.89 28.2921C209.871 26.8359 209.603 25.5309 209.106 24.453C208.57 23.3561 207.863 22.4483 206.983 21.7297ZM205.951 28.3866C205.932 29.3511 205.779 30.1643 205.492 30.8073C205.224 31.4314 204.823 31.9609 204.345 32.3581C203.848 32.7552 203.236 33.0578 202.528 33.2469C201.783 33.436 200.941 33.5495 200.043 33.5495C199.125 33.5495 198.264 33.455 197.499 33.2469C196.773 33.0578 196.123 32.7552 195.606 32.3581C195.09 31.9609 194.689 31.4314 194.402 30.8073C194.096 30.1643 193.943 29.3511 193.924 28.4055C193.943 27.4788 194.096 26.6656 194.402 26.0037C194.689 25.3607 195.109 24.8312 195.645 24.4341C196.18 24.018 196.83 23.7154 197.576 23.5074C198.341 23.2994 199.201 23.2048 200.119 23.2048C201.018 23.2048 201.859 23.2994 202.586 23.4885C203.293 23.6776 203.886 23.9802 204.383 24.3773C204.861 24.7934 205.263 25.3229 205.53 25.9659C205.779 26.6089 205.932 27.441 205.951 28.3866Z" fill="#9B9EA0"/>
<path d="M211.438 23.9234H218.685V36.6132H222.567V23.9234H229.756V20.3491H211.438V23.9234Z" fill="#9B9EA0"/>
<path d="M236.066 32.0933V20.3491H232.204V36.6132H237.462L246.258 24.7556V36.6132H250.12V20.3491H244.862L236.066 32.0933Z" fill="#9B9EA0"/>
<path d="M153.961 22.1457C153.139 21.2757 152.087 20.5949 150.825 20.1221C149.583 19.6682 148.129 19.4224 146.485 19.4224C145.07 19.4224 143.732 19.6115 142.527 19.9708C141.303 20.349 140.232 20.9164 139.334 21.6539C138.435 22.4104 137.709 23.356 137.211 24.4907C136.714 25.6254 136.447 26.9303 136.447 28.4244C136.466 29.8995 136.714 31.2044 137.192 32.3202C137.67 33.4549 138.378 34.4005 139.257 35.138C140.137 35.8756 141.189 36.424 142.393 36.7833C143.579 37.1238 144.898 37.3129 146.332 37.3129C147.422 37.3129 148.493 37.1994 149.487 36.9914C150.5 36.7644 151.437 36.4429 152.259 35.9891C153.101 35.5352 153.827 34.9678 154.42 34.287C154.822 33.8331 155.166 33.3036 155.453 32.7362L155.873 31.9041H151.514L151.342 32.1121C150.94 32.566 150.405 32.9443 149.774 33.1901C148.799 33.5873 147.632 33.7953 146.332 33.7953C144.592 33.7953 143.196 33.4171 142.183 32.6606C141.322 32.0176 140.787 31.1098 140.519 29.8616H155.931L155.988 29.351C156.141 27.8948 156.045 26.5521 155.701 25.3417C155.376 24.0747 154.783 23.0156 153.961 22.1457ZM140.691 26.3819C140.997 25.3228 141.59 24.5474 142.45 23.999C143.54 23.3182 144.917 22.9589 146.561 22.9589C147.326 22.9589 148.072 23.0534 148.76 23.2425C149.449 23.4317 150.041 23.7153 150.539 24.0557C151.017 24.3962 151.418 24.8122 151.705 25.3039C151.896 25.6254 152.03 25.9847 152.087 26.363H140.691V26.3819Z" fill="#9B9EA0"/>
<path d="M115.05 22.1457C114.228 21.2757 113.176 20.5949 111.914 20.1221C110.671 19.6682 109.218 19.4224 107.574 19.4224C106.159 19.4224 104.82 19.6115 103.616 19.9708C102.392 20.349 101.321 20.9164 100.423 21.6539C99.524 22.4104 98.7974 23.356 98.3002 24.4907C97.8031 25.6254 97.5354 26.9303 97.5354 28.4244C97.5545 29.8995 97.8031 31.2044 98.2811 32.3202C98.7591 33.4549 99.4666 34.4005 100.346 35.138C101.226 35.8756 102.277 36.424 103.482 36.7833C104.667 37.1238 105.987 37.3129 107.421 37.3129C108.511 37.3129 109.582 37.1994 110.576 36.9914C111.589 36.7644 112.526 36.4429 113.348 35.9891C114.19 35.5352 114.916 34.9678 115.509 34.287C115.911 33.8331 116.255 33.3036 116.542 32.7362L116.962 31.9041H112.603L112.431 32.1121C112.029 32.566 111.494 32.9443 110.863 33.1901C109.887 33.5873 108.721 33.7953 107.421 33.7953C105.681 33.7953 104.285 33.4171 103.272 32.6606C102.411 32.0176 101.876 31.1098 101.608 29.8616H117.02L117.077 29.351C117.23 27.8948 117.134 26.5521 116.79 25.3417C116.465 24.0747 115.872 23.0156 115.05 22.1457ZM101.78 26.3819C102.086 25.3228 102.679 24.5474 103.539 23.999C104.629 23.3182 106.006 22.9589 107.65 22.9589C108.415 22.9589 109.161 23.0534 109.849 23.2425C110.538 23.4317 111.13 23.7153 111.627 24.0557C112.105 24.3962 112.507 24.8122 112.794 25.3039C112.985 25.6254 113.119 25.9847 113.176 26.363H101.78V26.3819Z" fill="#9B9EA0"/>
<path d="M266.908 31.1098C266.698 31.9987 266.182 32.6417 265.34 33.0956C264.403 33.6062 263.199 33.852 261.784 33.852C259.91 33.852 258.476 33.4171 257.52 32.5471C256.583 31.6961 256.086 30.3155 256.047 28.4622C256.086 26.571 256.564 25.1716 257.482 24.3205C258.399 23.4695 259.814 23.0156 261.688 22.9967C262.396 22.9967 263.065 23.0723 263.677 23.2047C264.289 23.3371 264.824 23.5451 265.283 23.791C265.723 24.0368 266.086 24.3394 266.373 24.6988C266.64 25.0203 266.813 25.3985 266.908 25.8335H270.981L270.962 25.7011C270.809 24.6609 270.465 23.7343 269.91 22.9589C269.375 22.1835 268.667 21.5216 267.845 21.011C267.023 20.5004 266.086 20.1221 265.034 19.8574C264.002 19.5926 262.874 19.4602 261.707 19.4602C260.292 19.4602 258.973 19.6493 257.807 20.0086C256.621 20.3869 255.589 20.9542 254.747 21.6918C253.906 22.4483 253.237 23.3938 252.797 24.5286C252.357 25.6443 252.128 26.9682 252.128 28.4433C252.147 29.9184 252.376 31.2233 252.835 32.3391C253.294 33.4738 253.944 34.4194 254.805 35.157C255.646 35.8945 256.678 36.443 257.864 36.8023C259.011 37.1427 260.331 37.3318 261.765 37.3318C262.931 37.3318 264.059 37.1994 265.073 36.9536C266.105 36.7077 267.042 36.3106 267.864 35.8189C268.686 35.3082 269.375 34.6463 269.91 33.871C270.445 33.0956 270.79 32.1689 270.943 31.1288V31.0909L266.908 31.1098Z" fill="#9B9EA0"/>
<path d="M28.8151 57C12.9066 57 0 44.2346 0 28.5C0 12.7654 12.9066 0 28.8151 0C44.7237 0 57.6303 12.7654 57.6303 28.5C57.6303 44.2346 44.7237 57 28.8151 57Z" fill="#9B9EA0"/>
<path d="M44.6089 6.82715L44.4368 6.71368C40.0199 3.59324 34.6278 1.77771 28.8151 1.77771C23.0024 1.77771 17.6103 3.59324 13.1934 6.69476L13.0021 6.80823L13.0213 6.82715C6.21424 11.6875 1.7782 19.5926 1.7782 28.5C1.7782 43.2323 13.9008 55.2223 28.8151 55.2223C43.7294 55.2223 55.8329 43.2323 55.8329 28.5C55.8329 19.5926 51.3968 11.6875 44.6089 6.82715ZM53.4619 34.4572C49.0067 29.3321 43.194 25.7956 36.5782 24.207L35.5839 23.9612C41.2437 22.6185 46.4445 19.6304 50.4217 15.3563C52.8118 19.1765 54.1885 23.6775 54.1885 28.4811C54.1885 30.5425 53.9399 32.5471 53.4619 34.4572ZM29.7138 13.1626V3.47977C34.1689 3.63106 38.4138 4.93597 42.1041 7.18647C39.0448 10.6473 34.647 12.9167 29.7138 13.1626ZM27.9164 13.1626C22.9832 12.9167 18.5663 10.6473 15.5261 7.18647C19.2164 4.93597 23.4804 3.63106 27.9164 3.47977V13.1626ZM28.8151 44.2913C25.9852 44.2913 23.6716 42.0219 23.6716 39.223C23.6716 36.424 25.9661 34.1546 28.796 34.1546C31.6259 34.1546 33.9204 36.424 33.9204 39.223C33.9204 42.0219 31.645 44.2913 28.8151 44.2913ZM19.0061 43.8374C19.0061 40.8683 20.3637 38.2017 22.4861 36.424C22.1037 37.2751 21.8742 38.2206 21.8742 39.2041C21.8742 42.9675 24.9718 46.0501 28.7769 46.0501L29.121 46.0312C35.2971 45.7097 40.3259 40.7548 40.345 34.6463C40.3641 31.0909 38.7197 27.8948 36.1575 25.7767C42.6777 27.3464 48.5096 30.9774 52.8309 36.2727C49.4274 46.5985 39.8096 53.5202 28.7769 53.5202C23.4039 53.5392 19.0061 49.1895 19.0061 43.8374ZM29.7138 23.1291V14.9214C35.278 14.6755 40.2303 12.1035 43.6146 8.16988C45.8518 9.75847 47.8404 11.7253 49.4656 13.9947C44.3986 19.5926 37.2665 22.8832 29.7138 23.1291ZM14.0347 8.16988C17.3999 12.1035 22.3714 14.6755 27.9164 14.9214V23.1102C20.3446 22.8643 13.2316 19.5926 8.16457 13.9947C9.80896 11.7253 11.7975 9.75847 14.0347 8.16988ZM28.8151 24.9068C34.2263 24.9068 38.605 29.2565 38.605 34.5896C38.605 37.5587 37.2474 40.2064 35.125 41.9841C35.5074 41.1331 35.7177 40.2064 35.7177 39.2041C35.7177 35.4406 32.6202 32.358 28.796 32.358C22.4096 32.358 17.2087 37.502 17.2087 43.8185C17.2087 47.2037 18.7002 50.2296 21.052 52.3288C13.4419 49.9459 7.30413 44.0833 4.72281 36.2727C10.6503 29.0484 19.3885 24.9068 28.8151 24.9068ZM7.1894 15.3563C11.1665 19.6493 16.3865 22.6374 22.0654 23.9801C15.1437 25.4174 8.85292 29.0484 4.14919 34.4572C3.67116 32.5471 3.42259 30.5425 3.42259 28.5C3.44171 23.6775 4.81842 19.1954 7.1894 15.3563Z" fill="white"/>
</g>
<defs>
<clipPath id="clip0_64_669">
<rect width="271" height="57" fill="white"/>
</clipPath>
</defs>
</svg>
