<svg width="176" height="64" viewBox="0 0 176 64" fill="none" xmlns="http://www.w3.org/2000/svg">
<g clip-path="url(#clip0_61_660)">
<mask id="mask0_61_660" style="mask-type:luminance" maskUnits="userSpaceOnUse" x="0" y="0" width="176" height="64">
<path d="M0 0H176V64H0V0Z" fill="white"/>
</mask>
<g mask="url(#mask0_61_660)">
<path fill-rule="evenodd" clip-rule="evenodd" d="M81.2038 51.6693L83.3968 46.0322H85.2731L84.2606 48.6172L88.0677 46.0322H90.2961L86.0736 48.7996L88.2725 51.6686H86.0426L84.1354 48.9622L83.0801 51.6693H81.2038ZM96.205 46.0322L97.1873 51.6693H95.2675L94.6644 47.5976L91.2328 51.6693H89.1142L94.0886 46.0322H96.205ZM100.634 46.0322H102.509L101.129 49.5816L105.995 46.0322H107.871L105.679 51.6693H103.801L105.182 48.1177L100.317 51.6693H98.4407L100.634 46.0322ZM109.816 46.0322H112.538L113.063 49.9406L116.588 46.0322H119.311L117.12 51.6693H115.242L116.809 47.6307L113.153 51.6693H111.589L111.066 47.6307L109.5 51.6693H107.622L109.817 46.0322H109.816ZM129.06 46.0322L126.867 51.6693H125.145L125.27 51.3346H125.241C124.627 51.7532 123.683 51.8547 123.062 51.8547C122.034 51.8547 121.218 51.5774 120.698 51.2221C120.162 50.855 119.603 50.215 119.734 49.1152C119.871 47.9559 120.631 47.1408 121.394 46.6626C122.095 46.2257 123.127 45.8483 124.482 45.8483C126.216 45.8483 126.811 46.428 127.044 46.7237H127.071L127.338 46.0322H129.06ZM124.339 47.0488C122.66 47.0488 121.735 48.0566 121.617 49.0645C121.503 50.0208 122.204 50.652 123.446 50.652C124.899 50.652 126.051 49.867 126.191 48.6775C126.309 47.68 125.593 47.0488 124.339 47.0488ZM130.383 46.0322H136.013L135.547 47.232H133.669L131.943 51.6693H130.067L131.793 47.232H129.916L130.383 46.0322ZM140.703 45.8483C141.747 45.8483 142.687 46.0108 143.409 46.581C144.016 47.0606 144.306 47.6991 144.207 48.5363C144.091 49.5228 143.478 50.3982 142.589 50.9874C141.502 51.712 140.285 51.8547 139.369 51.8547C138.338 51.8547 137.384 51.6921 136.649 51.1205C135.925 50.5615 135.753 49.8575 135.839 49.1469C135.953 48.1788 136.552 47.3034 137.454 46.7134C138.54 45.9998 139.744 45.8483 140.703 45.8483ZM140.461 47.0488C139.615 47.0488 139.006 47.3034 138.589 47.6086C138.351 47.7773 138.151 47.994 138.002 48.2446C137.853 48.4953 137.758 48.7743 137.724 49.0637C137.662 49.5816 137.846 49.9406 138.073 50.1628C138.364 50.4585 138.847 50.652 139.582 50.652C140.428 50.652 141.038 50.3982 141.455 50.0921C141.693 49.9236 141.893 49.7069 142.042 49.4561C142.191 49.2053 142.285 48.926 142.319 48.6363C142.38 48.1177 142.195 47.7609 141.969 47.5388C141.68 47.2423 141.195 47.0488 140.461 47.0488ZM146.83 46.0322H149.554L150.078 49.9406L153.602 46.0322H156.326L154.133 51.6693H152.256L153.823 47.6307L150.167 51.6693H148.602L148.08 47.6307L146.514 51.6693H144.638L146.83 46.0322ZM90.8734 35.0764H93.0561L87.4462 40.7158H85.2135L86.5758 39.3894L85.1398 35.0764H87.3475L88.1981 37.9233L90.8734 35.0764ZM94.0466 35.0764H100.703L98.5158 40.7143H96.6439L98.3656 36.2784H95.4524L93.7307 40.7143H91.8602L94.0466 35.0764ZM102.232 40.7158H100.306L102.53 35.047H105.584C110.284 35.047 108.52 39.1496 104.401 39.1496H102.839L102.232 40.7158ZM103.952 36.3498L103.358 37.8468H104.795C106.596 37.8468 107.194 36.3498 105.19 36.3498H103.952ZM118.097 35.0771L115.908 40.7143H114.191L114.316 40.3796H114.287C113.675 40.7989 112.734 40.9019 112.114 40.9019C111.088 40.9019 110.275 40.6223 109.754 40.2678C109.223 39.9 108.663 39.26 108.795 38.1617C108.932 37.0001 109.69 36.1872 110.45 35.7091C111.15 35.2714 112.179 34.8932 113.53 34.8932C115.262 34.8932 115.853 35.4744 116.086 35.7686H116.113L116.378 35.0771H118.097ZM113.387 36.0945C111.711 36.0945 110.792 37.1023 110.672 38.1094C110.56 39.0657 111.259 39.6969 112.497 39.6969C113.946 39.6969 115.093 38.9135 115.235 37.7225C115.353 36.7257 114.64 36.0945 113.387 36.0945ZM119.483 35.0764H122.536C123.086 35.0764 123.826 35.1176 124.278 35.4751C124.523 35.6679 124.681 35.9827 124.633 36.3895C124.592 36.7353 124.389 37.0406 124.018 37.3069C123.689 37.5302 123.316 37.6823 122.924 37.7534C123.668 37.8954 124.005 38.3743 123.937 38.9451C123.851 39.6675 123.282 40.0949 122.787 40.3288C122.043 40.6841 121.249 40.7143 120.716 40.7143H117.297L119.483 35.0764ZM120.91 36.2372L120.543 37.1744H121.811C122.021 37.1744 122.204 37.1744 122.416 37.0508C122.497 37.0117 122.567 36.9532 122.62 36.8804C122.674 36.8077 122.708 36.7229 122.721 36.6337C122.727 36.5812 122.719 36.5279 122.697 36.4797C122.675 36.4314 122.641 36.3901 122.597 36.3601C122.442 36.2372 122.232 36.2372 122.092 36.2372H120.91ZM120.083 38.3338L119.614 39.5549H120.966C121.162 39.5549 121.405 39.5351 121.658 39.4225C121.955 39.2909 122.102 39.1172 122.133 38.8531C122.144 38.7838 122.135 38.7127 122.108 38.6479C122.081 38.5832 122.036 38.5274 121.978 38.4868C121.774 38.3228 121.518 38.3331 121.323 38.3331L120.083 38.3338ZM131.133 35.0764L132.113 40.7143H130.199L129.596 36.644L126.173 40.7143H124.061L129.022 35.0764H131.133ZM141.271 38.4971H135.094C135.086 38.67 135.145 39.015 135.558 39.321C135.884 39.5557 136.343 39.6969 136.978 39.6969C137.457 39.6969 137.834 39.6057 138.114 39.5034C138.452 39.3725 138.666 39.2188 138.81 39.0878H140.92C140.385 39.8102 139.65 40.1964 139.41 40.3178C138.707 40.665 137.765 40.9011 136.541 40.9011C135.653 40.9011 134.728 40.768 133.969 40.1457C133.574 39.8102 133.04 39.1996 133.158 38.2109C133.279 37.1833 133.932 36.3079 134.801 35.748C135.851 35.0669 137.027 34.8932 138.095 34.8932C138.982 34.8932 140.01 35.0065 140.765 35.6362C141.265 36.0541 141.611 36.7154 141.5 37.6423C141.463 37.9362 141.387 38.2238 141.272 38.4971H141.271ZM135.405 37.2951H139.669C139.661 37.1242 139.614 36.9575 139.532 36.8075C139.449 36.6576 139.334 36.5284 139.194 36.43C139.013 36.2976 138.615 36.0945 137.897 36.0945C137.276 36.0945 136.698 36.2269 136.264 36.4609C135.903 36.6551 135.587 36.9493 135.405 37.2951ZM143.69 35.0764H145.562L144.752 37.1538H147.665L148.475 35.0764H150.345L148.158 40.7143H146.287L147.199 38.3551H144.285L143.374 40.7143H141.503L143.69 35.0764ZM151.852 35.0764H153.724L152.345 38.628L157.2 35.0764H159.072L156.883 40.7143H155.013L156.39 37.1641L151.537 40.7143H149.666L151.852 35.0764ZM167.166 38.4971H160.988C160.981 38.67 161.039 39.015 161.454 39.321C161.779 39.5557 162.24 39.6969 162.874 39.6969C163.26 39.6997 163.644 39.6342 164.008 39.5034C164.264 39.4106 164.5 39.2695 164.704 39.0878H166.815C166.279 39.8102 165.544 40.1964 165.305 40.3178C164.602 40.665 163.659 40.9011 162.435 40.9011C161.548 40.9011 160.621 40.768 159.865 40.1457C159.468 39.8102 158.935 39.1996 159.054 38.2109C159.174 37.1833 159.826 36.3079 160.694 35.748C161.746 35.0669 162.921 34.8932 163.991 34.8932C164.878 34.8932 165.905 35.0065 166.66 35.6362C167.161 36.0541 167.505 36.7154 167.395 37.6423C167.359 37.9363 167.282 38.224 167.167 38.4971H167.166ZM161.299 37.2951H165.563C165.555 37.1244 165.508 36.9578 165.426 36.8079C165.344 36.6579 165.229 36.5287 165.089 36.43C164.908 36.2976 164.509 36.0945 163.792 36.0945C163.171 36.0945 162.595 36.2269 162.158 36.4609C161.797 36.6551 161.48 36.9493 161.299 37.2951ZM50.0333 0C70.9611 5.68791 84.0161 13.07 84.0161 23.6874C84.0161 41.7435 50.0216 60.6529 0 64L10.1469 35.7539C22.6142 37.0185 84.3578 35.8628 84.3578 15.6675C84.3578 15.6675 85.8659 2.16791 50.6924 0.0191264L50.0333 0ZM114.829 15.076C114.829 15.9787 114.336 16.7349 113.346 17.3469C112.359 17.9583 111.263 18.4283 109.283 18.7557C110.949 19.0396 111.809 19.4472 112.642 19.9827C113.474 20.516 113.891 21.1752 113.891 21.9601C113.891 23.1592 113.273 24.2001 111.259 25.0843C109.247 25.9708 106.104 26.4129 101.833 26.4129C98.3221 26.4129 95.7094 26.3996 93.7852 26.3746L93.7719 26.4114H87.2842L92.8183 11.2294H99.3052L99.2935 11.2647C100.91 11.2338 102.941 11.2191 105.494 11.2191C109.099 11.2191 111.233 11.6083 112.672 12.3888C114.111 13.1678 114.83 14.0631 114.83 15.076H114.829ZM106.232 23.1606C107.012 22.884 107.541 22.2779 107.596 21.7291C107.667 21.0008 107.135 20.469 106.213 20.1195C105.291 19.7709 104.265 19.7856 103.135 19.7856H96.314C96.3162 19.8532 94.8515 23.452 94.8515 23.452C96.7867 23.5299 99.3465 23.5741 102.693 23.5741C104.271 23.5741 105.451 23.4372 106.232 23.1606ZM107.427 17.1358C108.35 16.7901 108.811 16.2692 108.811 15.5763C108.811 15.065 108.474 14.6862 107.801 14.4353C107.127 14.183 106.11 14.0572 104.745 14.0572C101.948 14.0572 99.8458 14.0484 98.2831 14.0359L96.9635 17.6566H102.051C104.712 17.6566 106.504 17.4838 107.426 17.1366L107.427 17.1358ZM151.869 11.2191H158.943L156.885 16.8438H166.842L168.9 11.2191H176L170.441 26.4129H163.342L165.676 20.032H155.72L153.384 26.4129H146.31L151.868 11.2191H151.869ZM144.021 20.0717H126.062C126.046 20.196 126.037 20.321 126.035 20.4462C126.035 21.4613 126.54 22.2801 127.548 22.9032C128.557 23.5263 129.786 23.8374 131.237 23.8374C133.619 23.8374 135.479 23.1408 136.812 21.7453L143.236 22.3728C141.987 23.8367 140.315 24.9365 138.222 25.6684C136.128 26.4004 133.781 26.7667 131.18 26.7667C127.61 26.7667 124.709 26.1216 122.474 24.8291C120.24 23.5373 119.123 21.8291 119.123 19.7017C119.123 17.625 120.13 15.7749 122.145 14.1536C124.892 11.9614 128.813 10.8653 133.907 10.8653C137.154 10.8653 139.734 11.4391 141.649 12.5867C143.566 13.7328 144.521 15.3379 144.521 17.4036C144.521 18.393 144.355 19.2817 144.021 20.0717ZM137.968 17.5603C137.982 17.4233 137.99 17.2859 137.993 17.1483C137.993 16.0302 137.554 15.193 136.675 14.6339C135.793 14.0749 134.615 13.7938 133.137 13.7938C131.658 13.7938 130.335 14.1131 129.163 14.7472C127.994 15.3813 127.202 16.32 126.786 17.5603H137.968ZM45.4316 20.1026C45.4316 17.291 46.8175 15.0488 49.5893 13.3753C52.3618 11.7017 56.0041 10.8653 60.5153 10.8653C64.4278 10.8653 67.4816 11.4817 69.6798 12.7161C71.878 13.9513 72.9759 15.6131 72.9759 17.7008C72.9759 20.16 71.604 22.2867 68.8558 24.0787C66.109 25.87 62.4292 26.7667 57.8186 26.7667C55.3207 26.7667 53.1071 26.4806 51.1762 25.909C49.2447 25.3366 47.8042 24.5267 46.8558 23.4777C45.9065 22.4294 45.4316 21.3046 45.4316 20.1026ZM65.8873 17.1748C65.8873 16.2038 65.391 15.4269 64.3961 14.8399C63.402 14.2551 62.1206 13.9623 60.5499 13.9623C58.9953 13.9623 57.6168 14.236 56.415 14.7825C55.2117 15.3306 54.2765 16.1258 53.6078 17.1667C52.9399 18.2091 52.6063 19.1684 52.6063 20.0445C52.6063 21.131 53.124 21.9917 54.1587 22.6295C55.1948 23.268 56.4982 23.5873 58.069 23.5873C60.0403 23.5873 61.6943 23.1055 63.0301 22.1447C64.9366 20.7831 65.8873 19.1264 65.8873 17.1748ZM19.8828 26.4129H12.8782L18.5146 10.8653H31.1329C33.767 10.8653 35.8488 11.044 37.382 11.4016C38.9144 11.7576 40.128 12.3491 41.022 13.1722C41.9175 13.9954 42.2113 14.8318 42.2113 15.7013C42.2113 16.7577 41.9528 17.5963 41.2392 18.5953C40.5484 19.5747 39.6536 20.393 38.6162 20.9942C37.569 21.5991 36.4439 22.058 35.2722 22.3581C34.0792 22.667 32.7596 22.9024 30.7381 23.0643C29.5614 23.1599 27.3551 23.207 24.1253 23.207H21.0581L19.8828 26.4129ZM22.1775 20.0857H22.757C26.7189 20.0857 29.3625 19.9437 30.6881 19.659C32.0136 19.3773 33.0585 18.9234 33.8207 18.2996C34.5829 17.6772 34.9644 16.9931 34.9644 16.2457C34.9644 15.7455 34.8075 15.2143 34.4157 14.8943C34.0254 14.5729 33.4776 14.3389 32.7699 14.1918C32.0629 14.0462 30.487 13.9726 28.0422 13.9726H24.3859L22.1775 20.0857Z" fill="#9B9EA0"/>
</g>
</g>
<defs>
<clipPath id="clip0_61_660">
<rect width="176" height="64" fill="white"/>
</clipPath>
</defs>
</svg>
