<svg width="36" height="36" viewBox="0 0 36 36" fill="none" xmlns="http://www.w3.org/2000/svg">
<g clip-path="url(#clip0_333_832)">
<path fill-rule="evenodd" clip-rule="evenodd" d="M21.4722 11.3258C20.3565 15.3855 15.9021 22.7763 11.2832 22.7763C6.57421 22.7763 2.15524 15.1858 1.09451 11.3258C0.45703 11.3258 0 11.7188 0 12.3802V31.7257C0 32.308 0.434234 32.7801 0.969816 32.7801H3.45794C3.84136 34.6346 5.48272 36 7.41631 36C9.3499 36 10.9915 34.6346 11.3747 32.7801H21.5966C22.1325 32.7801 22.5667 32.308 22.5667 31.7257V12.3802C22.5667 11.7188 22.1097 11.3258 21.4722 11.3258ZM8.78328 33.3251C7.56902 34.5393 5.48299 33.6755 5.48299 31.9578C5.48299 30.2404 7.56902 29.3766 8.78328 30.5908C9.53831 31.3456 9.53831 32.57 8.78328 33.3251Z" fill="#1E1F7B"/>
<path fill-rule="evenodd" clip-rule="evenodd" d="M32.7263 22.0811H27.8365C27.2543 22.0811 26.7821 21.6093 26.7821 21.0267C26.7821 20.4444 27.2543 19.9723 27.8365 19.9723H31.4694L30.6586 18.6119C29.5529 16.7561 27.8613 15.4786 25.8535 14.9595C25.5269 14.8752 25.2105 14.9403 24.9438 15.1468C24.6774 15.3534 24.5352 15.6434 24.5352 15.9804V31.712C24.5352 32.2926 25.0087 32.7664 25.5896 32.7664H26.3026C26.6805 34.6275 28.3249 35.9999 30.2637 35.9999C32.2025 35.9999 33.8469 34.6275 34.2248 32.7664H34.9378C35.5201 32.7664 35.9922 32.2943 35.9922 31.712V25.3852C35.9922 23.542 34.5593 22.1218 32.7263 22.0811ZM31.6307 33.3251C30.4164 34.5393 28.3304 33.6755 28.3304 31.9578C28.3304 30.2404 30.4164 29.3766 31.6307 30.5908C32.3857 31.3456 32.3857 32.57 31.6307 33.3251Z" fill="#1E1F7B"/>
<path fill-rule="evenodd" clip-rule="evenodd" d="M12.1845 9.40349C12.6824 8.90553 12.6824 8.09804 12.1845 7.60008C11.3838 6.79946 10.0078 7.36882 10.0078 8.50178C10.0078 9.63475 11.3838 10.2041 12.1845 9.40349Z" fill="#1E1F7B"/>
<path fill-rule="evenodd" clip-rule="evenodd" d="M11.2827 20.6672C12.9524 20.6672 15.1903 18.6473 16.9247 16.0598C18.5279 13.6681 19.7845 10.7339 19.7845 8.50175C19.7845 3.80648 15.978 0 11.2827 0C6.58773 0 2.78125 3.80648 2.78125 8.50175C2.78125 10.7339 4.03781 13.6681 5.64099 16.0598C7.37517 18.6473 9.61336 20.6672 11.2827 20.6672ZM11.2827 5.1177C13.1515 5.1177 14.6668 6.63298 14.6668 8.50175C14.6668 10.3702 13.1515 11.8855 11.2827 11.8855C9.41423 11.8855 7.89895 10.3702 7.89895 8.50175C7.89895 6.63298 9.41423 5.1177 11.2827 5.1177Z" fill="#1E1F7B"/>
</g>
<defs>
<clipPath id="clip0_333_832">
<rect width="36" height="36" fill="white"/>
</clipPath>
</defs>
</svg>
