<svg width="36" height="36" viewBox="0 0 36 36" fill="none" xmlns="http://www.w3.org/2000/svg">
<g clip-path="url(#clip0_334_860)">
<path d="M32.8359 10.6214H30.6266C28.7476 6.15978 24.6101 2.91746 19.8468 2.29822C15.1264 1.66892 10.4884 3.48579 7.45418 7.14317C6.5622 8.21846 5.85464 9.38747 5.33658 10.6214H3.16406C1.41933 10.6214 0 12.0407 0 13.7854V18.0042C0 19.7489 1.41933 21.1683 3.16406 21.1683H7.49538L7.04222 19.785C5.7228 15.7557 6.46545 11.6389 9.07847 8.49036C11.6462 5.39527 15.5673 3.86372 19.5728 4.38903C23.8089 4.94084 27.4859 7.93665 28.9428 12.0231L28.9517 12.0468C29.1865 12.671 29.3513 13.3127 29.446 13.9729C29.7622 15.9453 29.582 17.9444 28.9259 19.7541L28.9213 19.7667C27.2928 24.3904 22.9127 27.4964 18.0206 27.4964C16.2645 27.4964 14.8359 28.9157 14.8359 30.6604C14.8359 32.4052 16.2553 33.8245 18 33.8245C19.7447 33.8245 21.1641 32.4052 21.1641 30.6604V29.238C25.3754 28.2371 28.9126 25.2518 30.6129 21.1682H32.8359C34.5807 21.1682 36 19.7489 36 18.0041V13.7854C36 12.0406 34.5807 10.6214 32.8359 10.6214Z" fill="#03045E"/>
<path d="M8.50781 23.2776V25.387H18C23.2343 25.387 27.4922 21.1291 27.4922 15.8948C27.4922 10.6606 23.2343 6.40265 18 6.40265C12.7657 6.40265 8.50781 10.6606 8.50781 15.8948C8.50781 18.029 9.22465 20.0909 10.5348 21.7585C10.2804 22.6473 9.46877 23.2776 8.50781 23.2776ZM21.1641 14.8401H23.2734V16.9495H21.1641V14.8401ZM16.9453 14.8401H19.0547V16.9495H16.9453V14.8401ZM12.7266 14.8401H14.8359V16.9495H12.7266V14.8401Z" fill="#03045E"/>
</g>
<defs>
<clipPath id="clip0_334_860">
<rect width="36" height="36" fill="white"/>
</clipPath>
</defs>
</svg>
