<svg width="36" height="36" viewBox="0 0 36 36" fill="none" xmlns="http://www.w3.org/2000/svg">
<g clip-path="url(#clip0_264_4682)">
<path d="M34.0042 7.27874C33.9816 7.15391 33.9269 7.0371 33.8455 6.9398C33.7641 6.84249 33.6588 6.76804 33.5399 6.72374C31.2247 5.83874 28.9319 4.90124 26.7217 3.94874C23.8739 2.72549 21.0569 1.42049 18.3524 0.0854932C18.2383 0.0268664 18.1113 -0.00245724 17.983 0.000161162C17.8547 0.00277956 17.7291 0.0372578 17.6174 0.100493C14.9174 1.43549 12.1109 2.73299 9.27819 3.95624C7.06794 4.90124 4.77819 5.83874 2.45994 6.72374C2.34106 6.76804 2.23575 6.84249 2.15436 6.9398C2.07296 7.0371 2.01828 7.15391 1.99569 7.27874C1.55319 9.52199 -0.22956 21.126 7.43544 29.6287C10.2138 32.684 13.8057 34.8837 17.7899 35.97C17.8578 35.9915 17.9288 36.0016 17.9999 36C18.0838 35.9991 18.1671 35.9865 18.2474 35.9625C22.2161 34.8707 25.7935 32.6755 28.5644 29.6317C36.2294 21.126 34.4467 9.52499 34.0042 7.27874ZM25.6792 10.827C25.9893 11.0757 26.188 11.4375 26.2316 11.8326C26.2752 12.2278 26.1601 12.6241 25.9117 12.9345L19.9177 20.4345C19.786 20.5992 19.6214 20.7345 19.4344 20.8319C19.2474 20.9293 19.0421 20.9865 18.8317 21H18.7499C18.5521 20.9997 18.3563 20.9604 18.1737 20.8843C17.9911 20.8082 17.8253 20.6969 17.6857 20.5567L14.6857 17.5567C14.5338 17.4205 14.4112 17.2548 14.3256 17.0696C14.2399 16.8844 14.1929 16.6837 14.1875 16.4797C14.1821 16.2757 14.2183 16.0728 14.294 15.8833C14.3698 15.6938 14.4833 15.5218 14.6278 15.3777C14.7723 15.2336 14.9447 15.1205 15.1344 15.0454C15.3241 14.9702 15.5271 14.9345 15.731 14.9405C15.935 14.9465 16.1356 14.994 16.3205 15.0802C16.5055 15.1664 16.6709 15.2894 16.8067 15.4417L18.6194 17.2567L23.5694 11.061C23.6925 10.9069 23.8448 10.7786 24.0176 10.6834C24.1903 10.5882 24.3801 10.528 24.5762 10.5063C24.7722 10.4845 24.9706 10.5017 25.16 10.5567C25.3494 10.6117 25.5261 10.7036 25.6799 10.827H25.6792ZM17.9999 26.25C15.8119 26.25 13.7135 25.3808 12.1663 23.8336C10.6191 22.2865 9.74994 20.188 9.74994 18C9.74994 15.812 10.6191 13.7135 12.1663 12.1664C13.7135 10.6192 15.8119 9.74999 17.9999 9.74999C18.3978 9.74999 18.7793 9.90803 19.0606 10.1893C19.3419 10.4706 19.4999 10.8522 19.4999 11.25C19.4999 11.6478 19.3419 12.0293 19.0606 12.3107C18.7793 12.592 18.3978 12.75 17.9999 12.75C16.9614 12.749 15.9458 13.056 15.0818 13.6322C14.2177 14.2085 13.544 15.028 13.1458 15.9873C12.7477 16.9465 12.6429 18.0023 12.8449 19.021C13.0469 20.0397 13.5465 20.9757 14.2805 21.7104C15.0145 22.4452 15.95 22.9457 16.9685 23.1487C17.9871 23.3517 19.0429 23.2481 20.0026 22.8509C20.9622 22.4537 21.7824 21.7808 22.3595 20.9173C22.9367 20.0538 23.2447 19.0386 23.2447 18C23.2447 17.6022 23.4027 17.2206 23.684 16.9393C23.9653 16.658 24.3469 16.5 24.7447 16.5C25.1425 16.5 25.524 16.658 25.8054 16.9393C26.0867 17.2206 26.2447 17.6022 26.2447 18C26.2431 20.1866 25.3741 22.2833 23.8284 23.83C22.2827 25.3767 20.1866 26.247 17.9999 26.25Z" fill="#1E1F7B"/>
</g>
<defs>
<clipPath id="clip0_264_4682">
<rect width="36" height="36" fill="white"/>
</clipPath>
</defs>
</svg>
