<svg width="36" height="36" viewBox="0 0 36 36" fill="none" xmlns="http://www.w3.org/2000/svg">
<path d="M18.8246 24.0244L16.9369 23.8174C16.8075 23.8027 16.7017 23.7161 16.659 23.5935C16.3687 22.7587 15.9458 22.0252 15.3675 21.3559C15.2831 21.258 15.2606 21.1219 15.3124 21.0037L16.0774 19.2656C16.1471 19.1081 16.0864 18.9236 15.9368 18.837L13.3132 17.3227C13.1636 17.2361 12.9746 17.2766 12.8723 17.415L11.745 18.9529C11.6685 19.0564 11.5414 19.1047 11.4142 19.08C10.5682 18.918 9.69188 18.909 8.829 19.0721C8.703 19.0957 8.57475 19.0485 8.49937 18.945L7.37775 17.4139C7.27537 17.2755 7.08637 17.235 6.93675 17.3216L4.31325 18.8359C4.16363 18.9225 4.104 19.107 4.17263 19.2645L4.93762 21.0015C4.98937 21.1185 4.96575 21.2535 4.8825 21.3502C4.30875 22.0163 3.879 22.7801 3.59663 23.5924C3.55387 23.7139 3.44925 23.8005 3.321 23.8151L1.42537 24.0221C1.25437 24.0435 1.125 24.1886 1.125 24.3607V27.3904C1.125 27.5625 1.25437 27.7076 1.42537 27.7256L3.31312 27.9326C3.4425 27.9473 3.54825 28.0339 3.591 28.1565C3.88125 28.9913 4.30425 29.7247 4.8825 30.3941C4.96688 30.492 4.98937 30.6281 4.93762 30.7463L4.17263 32.4844C4.10288 32.6419 4.16363 32.8264 4.31325 32.913L6.93675 34.4272C7.08637 34.5139 7.27537 34.4734 7.37775 34.335L8.505 32.7971C8.5815 32.6936 8.70863 32.6453 8.83575 32.67C9.68175 32.832 10.5581 32.841 11.421 32.6779C11.547 32.6543 11.6753 32.7015 11.7506 32.805L12.8723 34.3361C12.9735 34.4745 13.1636 34.515 13.3132 34.4284L15.9368 32.9141C16.0864 32.8275 16.146 32.643 16.0774 32.4855L15.3124 30.7485C15.2606 30.6315 15.2843 30.4965 15.3675 30.3997C15.9412 29.7337 16.371 28.9699 16.6534 28.1576C16.6961 28.0361 16.8008 27.9495 16.929 27.9349L18.8246 27.7279C18.9956 27.7065 19.125 27.5614 19.125 27.3893V24.3596C19.125 24.1886 18.9956 24.0435 18.8246 24.0244ZM10.125 29.25C8.26088 29.25 6.75 27.7391 6.75 25.875C6.75 24.0109 8.26088 22.5 10.125 22.5C11.9891 22.5 13.5 24.0109 13.5 25.875C13.5 27.7391 11.9891 29.25 10.125 29.25Z" fill="#1E1F7B"/>
<path d="M34.5746 8.27435L32.6869 8.06735C32.5575 8.05272 32.4518 7.9661 32.409 7.84347C32.1188 7.00872 31.6958 6.27522 31.1175 5.60585C31.0331 5.50797 31.0106 5.37185 31.0624 5.25372L31.8274 3.5156C31.8971 3.3581 31.8364 3.1736 31.6868 3.08697L29.0632 1.57272C28.9136 1.4861 28.7246 1.5266 28.6222 1.66497L27.495 3.20397C27.4185 3.30747 27.2914 3.35585 27.1642 3.3311C26.3182 3.1691 25.4419 3.1601 24.579 3.32322C24.453 3.34685 24.3248 3.2996 24.2494 3.1961L23.1278 1.66497C23.0254 1.5266 22.8364 1.4861 22.6868 1.57272L20.0632 3.08697C19.9136 3.1736 19.854 3.3581 19.9226 3.5156L20.6876 5.2526C20.7394 5.3696 20.7158 5.5046 20.6325 5.60135C20.0588 6.26735 19.629 7.03122 19.3466 7.84347C19.3039 7.96497 19.1992 8.0516 19.071 8.06622L17.1754 8.27322C17.0044 8.29347 16.875 8.4386 16.875 8.61072V11.6403C16.875 11.8125 17.0044 11.9576 17.1754 11.9756L19.0631 12.1826C19.1925 12.1972 19.2982 12.2838 19.341 12.4065C19.6312 13.2412 20.0543 13.9747 20.6325 14.6441C20.7169 14.742 20.7394 14.8781 20.6876 14.9962L19.9226 16.7343C19.8529 16.8918 19.9136 17.0763 20.0632 17.163L22.6868 18.6772C22.8364 18.7638 23.0254 18.7233 23.1278 18.585L24.255 17.0471C24.3315 16.9436 24.4586 16.8952 24.5858 16.92C25.4318 17.082 26.3081 17.091 27.171 16.9278C27.297 16.9042 27.4253 16.9515 27.5006 17.055L28.6222 18.5861C28.7235 18.7245 28.9136 18.765 29.0632 18.6783L31.6868 17.1641C31.8364 17.0775 31.896 16.893 31.8274 16.7355L31.0624 14.9985C31.0106 14.8815 31.0343 14.7465 31.1175 14.6497C31.6912 13.9837 32.121 13.2198 32.4034 12.4076C32.4461 12.2861 32.5508 12.1995 32.679 12.1848L34.5746 11.9778C34.7456 11.9565 34.875 11.8113 34.875 11.6392V8.61072C34.875 8.4386 34.7456 8.29347 34.5746 8.27435ZM25.875 13.5C24.0109 13.5 22.5 11.9891 22.5 10.125C22.5 8.26085 24.0109 6.74997 25.875 6.74997C27.7391 6.74997 29.25 8.26085 29.25 10.125C29.25 11.9891 27.7391 13.5 25.875 13.5Z" fill="#1E1F7B"/>
<path d="M15.7501 5.0625V6.1875C15.7501 6.498 15.4981 6.75 15.1876 6.75H9.00007C7.75694 6.75 6.75007 7.75688 6.75007 9V11.25H9.31057C9.61094 11.25 9.76169 11.6134 9.54907 11.826L5.62507 15.75L1.70107 11.826C1.48844 11.6134 1.63919 11.25 1.93957 11.25H4.50007V9C4.50007 6.51487 6.51494 4.5 9.00007 4.5H15.1876C15.4981 4.5 15.7501 4.752 15.7501 5.0625Z" fill="#1E1F7B"/>
<path d="M20.25 30.9375V29.8125C20.25 29.502 20.502 29.25 20.8125 29.25H27C28.2431 29.25 29.25 28.2431 29.25 27V24.75H26.6895C26.3891 24.75 26.2384 24.3866 26.451 24.174L30.375 20.25L34.299 24.174C34.5116 24.3866 34.3609 24.75 34.0605 24.75H31.5V27C31.5 29.4851 29.4851 31.5 27 31.5H20.8125C20.502 31.5 20.25 31.248 20.25 30.9375Z" fill="#1E1F7B"/>
</svg>
