<svg width="40" height="40" viewBox="0 0 40 40" fill="none" xmlns="http://www.w3.org/2000/svg">
<path d="M37.3125 2.99217C37.2813 2.85155 37.1719 2.74217 37.0391 2.70311C32.461 1.58592 21.8907 5.5703 16.1641 11.2969C15.1407 12.3125 14.211 13.414 13.3828 14.5859C11.6172 14.4297 9.85159 14.5625 8.34378 15.2187C4.09378 17.0859 2.8594 21.9687 2.50784 24.0625C2.43753 24.4687 2.71097 24.8594 3.12503 24.9297C3.19534 24.9375 3.26565 24.9453 3.33597 24.9375L10.1563 24.1875C10.1641 24.7031 10.1953 25.2187 10.25 25.7265C10.2813 26.0781 10.4453 26.414 10.6953 26.664L13.336 29.2969C13.586 29.5469 13.9219 29.7109 14.2735 29.7422C14.7813 29.7969 15.2891 29.8281 15.8047 29.8359L15.0547 36.6484C15.0078 37.0625 15.3125 37.4375 15.7266 37.4766C15.7969 37.4844 15.8672 37.4844 15.9297 37.4687C18.0235 37.1328 22.9141 35.8984 24.7735 31.6484C25.4297 30.1406 25.5625 28.3828 25.4141 26.625C26.5938 25.7969 27.6953 24.8594 28.711 23.8437C34.4532 18.1328 38.4141 7.79686 37.3125 2.99217ZM28.2735 17.0234C26.8125 18.4844 24.4375 18.4922 22.9766 17.0234C21.5078 15.5625 21.5078 13.1875 22.9766 11.7187C24.4375 10.25 26.8125 10.25 28.2813 11.7187C29.7422 13.1875 29.7422 15.5625 28.2735 17.0234Z" fill="#2B5DE9"/>
<path d="M13.1562 31.2031C12.7266 31.6328 12.0391 31.7969 11.2109 31.9453C9.35156 32.2578 7.71094 30.6562 8.04688 28.7812C8.17188 28.0703 8.55469 27.0703 8.78906 26.8359C8.92188 26.7031 8.92969 26.4844 8.79688 26.3515C8.71875 26.2734 8.61719 26.2344 8.50781 26.25C7.46875 26.375 6.5 26.8515 5.76563 27.5859C3.92188 29.4297 3.75 36.25 3.75 36.25C3.75 36.25 10.5781 36.0781 12.4141 34.2344C13.1562 33.4922 13.625 32.5312 13.75 31.4844C13.7812 31.164 13.3828 30.9687 13.1562 31.2031Z" fill="#2B5DE9"/>
</svg>
