<svg width="40" height="40" viewBox="0 0 40 40" fill="none" xmlns="http://www.w3.org/2000/svg">
<g clip-path="url(#clip0_2003_41)">
<path d="M39.1667 22.5716L32.0834 20.0716C31.8134 19.975 31.52 19.975 31.25 20.0716L24.1667 22.5716C23.6667 22.7466 23.3334 23.22 23.3334 23.75V29.375C23.3334 36.36 30.8434 39.7533 31.1617 39.8933C31.3234 39.965 31.4934 40 31.6667 40C31.84 40 32.01 39.965 32.1717 39.8933C32.49 39.7533 40 36.36 40 29.375V23.75C40 23.22 39.6667 22.7466 39.1667 22.5716ZM36.24 28.4633L31.885 32.9816C31.6484 33.2266 31.3234 33.3633 30.985 33.3633C30.9734 33.3633 30.96 33.3633 30.95 33.3633C30.5984 33.3533 30.2667 33.195 30.0367 32.9283L27.725 30.2366C27.275 29.7133 27.3367 28.9233 27.86 28.4733C28.385 28.0233 29.1717 28.085 29.6234 28.6066L31.04 30.2566L34.4417 26.7266C34.9234 26.2283 35.715 26.2166 36.21 26.6933C36.7034 27.175 36.7184 27.9666 36.24 28.4633Z" fill="#2B5DE9"/>
<path d="M15.3667 0L7.26667 0.0333333C6.21667 0.0333333 5.23333 0.616667 4.73333 1.53333L0.5 9.2L14.55 9.16667L15.3667 0Z" fill="#2B5DE9"/>
<path d="M32.8 9.13334L28.5167 1.46667C28 0.550008 27.0334 -0.0333252 25.9667 -0.0333252L17.8667 8.13976e-06L18.7167 9.16668L32.8 9.13334Z" fill="#2B5DE9"/>
<path d="M33.3333 16.9834L33.1999 16.9334C32.6999 16.75 32.1833 16.6667 31.6666 16.6667C31.1499 16.6667 30.6333 16.75 30.1333 16.9334L23.0666 19.4334C21.2333 20.0667 19.9999 21.8 19.9999 23.75V29.3667C19.9999 30.8 20.2333 32.1167 20.6333 33.3334L2.68328 33.3834C2.66661 33.3834 2.66661 33.3834 2.66661 33.3834C1.23328 33.3834 0.049943 32.2 0.049943 30.75L-0.0167236 11.7L15.3999 11.6667H17.8999L33.3166 11.6167L33.3333 16.9834Z" fill="#2B5DE9"/>
</g>
<defs>
<clipPath id="clip0_2003_41">
<rect width="40" height="40" fill="white"/>
</clipPath>
</defs>
</svg>
