<svg width="36" height="36" viewBox="0 0 36 36" fill="none" xmlns="http://www.w3.org/2000/svg">
<path d="M13.8002 34.8H34.2002C34.3593 34.8 34.5119 34.7368 34.6245 34.6243C34.737 34.5117 34.8002 34.3591 34.8002 34.2V21C34.8002 20.8409 34.737 20.6883 34.6245 20.5757C34.5119 20.4632 34.3593 20.4 34.2002 20.4H13.8002C13.6411 20.4 13.4885 20.4632 13.3759 20.5757C13.2634 20.6883 13.2002 20.8409 13.2002 21V34.2C13.2002 34.3591 13.2634 34.5117 13.3759 34.6243C13.4885 34.7368 13.6411 34.8 13.8002 34.8ZM27.6002 24C27.6002 23.8409 27.6634 23.6883 27.7759 23.5757C27.8885 23.4632 28.0411 23.4 28.2002 23.4C28.3593 23.4 28.5119 23.4632 28.6245 23.5757C28.737 23.6883 28.8002 23.8409 28.8002 24V30.6H31.8002C31.9593 30.6 32.1119 30.6632 32.2245 30.7757C32.337 30.8883 32.4002 31.0409 32.4002 31.2C32.4002 31.3591 32.337 31.5117 32.2245 31.6243C32.1119 31.7368 31.9593 31.8 31.8002 31.8H28.2002C28.0411 31.8 27.8885 31.7368 27.7759 31.6243C27.6634 31.5117 27.6002 31.3591 27.6002 31.2V24ZM21.6002 25.8C21.6002 25.1635 21.8531 24.553 22.3031 24.1029C22.7532 23.6529 23.3637 23.4 24.0002 23.4C24.6367 23.4 25.2472 23.6529 25.6973 24.1029C26.1473 24.553 26.4002 25.1635 26.4002 25.8V29.4C26.3981 29.8271 26.2806 30.2457 26.06 30.6114L26.2244 30.7758C26.2817 30.8311 26.3274 30.8973 26.3589 30.9706C26.3903 31.0438 26.4069 31.1225 26.4075 31.2022C26.4082 31.2818 26.3931 31.3608 26.3629 31.4346C26.3327 31.5083 26.2882 31.5753 26.2318 31.6316C26.1755 31.688 26.1085 31.7325 26.0348 31.7627C25.961 31.7929 25.882 31.808 25.8024 31.8073C25.7227 31.8067 25.644 31.7901 25.5708 31.7587C25.4976 31.7272 25.4313 31.6815 25.376 31.6242L25.2116 31.4598C24.8459 31.6804 24.4273 31.7979 24.0002 31.8C23.3637 31.8 22.7532 31.5471 22.3031 31.097C21.8531 30.647 21.6002 30.0365 21.6002 29.4V25.8ZM18.0002 28.2C17.5255 28.2 17.0615 28.0592 16.6668 27.7955C16.2721 27.5318 15.9645 27.157 15.7829 26.7184C15.6012 26.2799 15.5537 25.7973 15.6463 25.3318C15.7389 24.8662 15.9675 24.4386 16.3031 24.1029C16.6388 23.7673 17.0664 23.5387 17.532 23.4461C17.9975 23.3535 18.4801 23.401 18.9186 23.5827C19.3572 23.7643 19.732 24.0719 19.9957 24.4666C20.2594 24.8613 20.4002 25.3253 20.4002 25.8C20.4002 25.9591 20.337 26.1117 20.2245 26.2243C20.1119 26.3368 19.9593 26.4 19.8002 26.4C19.6411 26.4 19.4885 26.3368 19.3759 26.2243C19.2634 26.1117 19.2002 25.9591 19.2002 25.8C19.2002 25.5627 19.1298 25.3306 18.998 25.1333C18.8661 24.936 18.6787 24.7822 18.4594 24.6913C18.2401 24.6005 17.9989 24.5767 17.7661 24.6231C17.5333 24.6694 17.3195 24.7836 17.1517 24.9515C16.9838 25.1193 16.8696 25.3331 16.8233 25.5659C16.777 25.7987 16.8007 26.0399 16.8915 26.2592C16.9824 26.4785 17.1362 26.6659 17.3335 26.7978C17.5308 26.9296 17.7629 27 18.0002 27C18.4749 27 18.9389 27.1408 19.3336 27.4045C19.7282 27.6682 20.0359 28.043 20.2175 28.4816C20.3992 28.9201 20.4467 29.4027 20.3541 29.8682C20.2615 30.3338 20.0329 30.7614 19.6973 31.097C19.3616 31.4327 18.934 31.6613 18.4684 31.7539C18.0029 31.8465 17.5203 31.799 17.0818 31.6173C16.6432 31.4357 16.2684 31.128 16.0047 30.7334C15.741 30.3387 15.6002 29.8747 15.6002 29.4C15.6002 29.2409 15.6634 29.0883 15.7759 28.9757C15.8885 28.8632 16.0411 28.8 16.2002 28.8C16.3593 28.8 16.5119 28.8632 16.6245 28.9757C16.737 29.0883 16.8002 29.2409 16.8002 29.4C16.8002 29.6373 16.8706 29.8693 17.0024 30.0667C17.1343 30.264 17.3217 30.4178 17.541 30.5086C17.7602 30.5995 18.0015 30.6232 18.2343 30.5769C18.4671 30.5306 18.6809 30.4163 18.8487 30.2485C19.0165 30.0807 19.1308 29.8669 19.1771 29.6341C19.2234 29.4013 19.1997 29.16 19.1089 28.9408C19.018 28.7215 18.8642 28.5341 18.6669 28.4022C18.4695 28.2704 18.2375 28.2 18.0002 28.2Z" fill="#03045E"/>
<path d="M12.0002 29.9772V23.9838C7.69039 23.868 3.266 23.1138 1.2002 21.6696V27C1.2002 28.1508 5.297 29.7936 12.0002 29.9772Z" fill="#03045E"/>
<path d="M1.2002 19.8C1.2002 20.952 5.297 22.596 12.0002 22.779V21C12.0002 20.5226 12.1898 20.0648 12.5274 19.7272C12.865 19.3896 13.3228 19.2 13.8002 19.2H25.2002V13.86C22.9958 15.402 18.077 16.2 13.2002 16.2C8.3234 16.2 3.4046 15.402 1.2002 13.86V19.8Z" fill="#03045E"/>
<path d="M13.2002 7.20001C19.8276 7.20001 25.2002 5.85687 25.2002 4.20001C25.2002 2.54316 19.8276 1.20001 13.2002 1.20001C6.57278 1.20001 1.2002 2.54316 1.2002 4.20001C1.2002 5.85687 6.57278 7.20001 13.2002 7.20001Z" fill="#03045E"/>
<path d="M1.2002 12C1.2002 13.2234 5.8748 15 13.2002 15C20.5256 15 25.2002 13.2234 25.2002 12V6.06C22.9958 7.602 18.077 8.4 13.2002 8.4C8.3234 8.4 3.4046 7.602 1.2002 6.06V12Z" fill="#03045E"/>
<path d="M23.9998 30.6C24.1035 30.5986 24.2066 30.5835 24.3064 30.555L24.1756 30.4242C24.0663 30.311 24.0058 30.1595 24.0072 30.0022C24.0086 29.8448 24.0717 29.6944 24.1829 29.5831C24.2942 29.4719 24.4446 29.4088 24.602 29.4074C24.7593 29.406 24.9108 29.4665 25.024 29.5758L25.1548 29.7066C25.1833 29.6068 25.1984 29.5037 25.1998 29.4V25.8C25.1998 25.4817 25.0734 25.1765 24.8483 24.9515C24.6233 24.7264 24.3181 24.6 23.9998 24.6C23.6815 24.6 23.3763 24.7264 23.1513 24.9515C22.9262 25.1765 22.7998 25.4817 22.7998 25.8V29.4C22.7998 29.7183 22.9262 30.0235 23.1513 30.2485C23.3763 30.4736 23.6815 30.6 23.9998 30.6Z" fill="#03045E"/>
</svg>
