<svg width="36" height="36" viewBox="0 0 36 36" fill="none" xmlns="http://www.w3.org/2000/svg">
<g clip-path="url(#clip0_271_5453)">
<path d="M35.9297 17.9297C35.9297 17.9231 35.9293 17.9167 35.9293 17.9102C35.9293 17.8966 35.9295 17.883 35.9294 17.8693L35.9283 17.8685C35.8984 14.5675 33.4631 11.8305 30.2932 11.3314C30.3008 11.1872 30.3047 11.0428 30.3047 10.8984C30.3047 6.43985 26.6773 2.8125 22.2188 2.8125C21.0151 2.8125 19.8357 3.08074 18.7563 3.59473C17.1117 1.35492 14.4824 0 11.6719 0C6.82559 0 2.88281 3.94277 2.88281 8.78906C2.88281 9.5997 2.99524 10.4009 3.21778 11.1809C1.2567 12.5533 0.0703125 14.7966 0.0703125 17.2266L0.073125 17.2278C0.0714375 17.2838 0.0710156 17.3399 0.0722812 17.3962C0.163687 21.422 3.5183 24.6094 7.54516 24.6094H8.15625V17.3672C8.15625 15.6197 9.57284 14.2031 11.3203 14.2031H19.6725C20.5117 14.2031 21.3165 14.5365 21.9099 15.1298L26.917 20.137C27.5104 20.7304 27.8438 21.5352 27.8438 22.3744V24.6094H29.1672C32.8542 24.6094 35.9285 21.6089 35.9292 17.9293L35.9297 17.9297Z" fill="#03045E"/>
<path d="M21.1641 20.8828H24.6797L21.1641 17.3672V20.8828Z" fill="#03045E"/>
<path d="M19.0547 21.9375V16.3125H11.3203C10.7378 16.3125 10.2656 16.7847 10.2656 17.3672V34.9453C10.2656 35.5278 10.7378 36 11.3203 36H24.6797C25.2622 36 25.7344 35.5278 25.7344 34.9453V22.9922H20.1094C19.5269 22.9922 19.0547 22.52 19.0547 21.9375ZM21.5156 31.0781H14.4844C13.9019 31.0781 13.4297 30.6059 13.4297 30.0234C13.4297 29.441 13.9019 28.9688 14.4844 28.9688H21.5156C22.0981 28.9688 22.5703 29.441 22.5703 30.0234C22.5703 30.6059 22.0981 31.0781 21.5156 31.0781ZM22.5703 25.8047C22.5703 26.3872 22.0981 26.8594 21.5156 26.8594H14.4844C13.9019 26.8594 13.4297 26.3872 13.4297 25.8047C13.4297 25.2222 13.9019 24.75 14.4844 24.75H21.5156C22.0981 24.75 22.5703 25.2222 22.5703 25.8047Z" fill="#03045E"/>
</g>
<defs>
<clipPath id="clip0_271_5453">
<rect width="36" height="36" fill="white"/>
</clipPath>
</defs>
</svg>
