<svg width="36" height="36" viewBox="0 0 36 36" fill="none" xmlns="http://www.w3.org/2000/svg">
<g clip-path="url(#clip0_268_5443)">
<path d="M28.3239 9.60068C26.6962 7.33169 23.9659 5.93247 21.1654 5.94935C19.3176 5.94935 18.04 6.49216 18.0006 6.50904L17.9999 6.50974C17.0366 3.82169 14.5525 1.89872 11.5312 1.89872C7.28276 1.85822 3.94362 5.79916 4.66094 9.97474C3.59501 10.339 2.64157 10.9823 1.86251 11.819C0.661641 13.1191 0 14.8115 0 16.5812C0 19.8726 2.27883 22.6435 5.34375 23.4001V16.7788C5.34375 14.7109 7.02703 13.0291 9.09562 13.0291H26.9043C28.9729 13.0291 30.6562 14.711 30.6562 16.7788V23.4015C33.7204 22.6477 35.9999 19.8782 35.9999 16.5876C36.0217 12.4891 32.4063 9.2006 28.3239 9.60068Z" fill="#03045E"/>
<path d="M26.9043 15.1385H9.09563C8.18859 15.1385 7.45312 15.8733 7.45312 16.7789V21.9243C7.45312 22.8306 8.18859 23.5654 9.09563 23.5654H26.9043C27.8113 23.5654 28.5468 22.8306 28.5468 21.9243V16.7789C28.5468 15.8732 27.8113 15.1385 26.9043 15.1385ZM11.8125 20.4055C11.2303 20.4055 10.7578 19.9337 10.7578 19.3515C10.7578 18.7701 11.2303 18.2983 11.8125 18.2983C12.3947 18.2983 12.8672 18.7701 12.8672 19.3515C12.8671 19.9337 12.3947 20.4055 11.8125 20.4055ZM23.9765 20.4055H16.3827C15.8006 20.4055 15.3281 19.933 15.3281 19.3515C15.3281 18.7701 15.8006 18.2983 16.3827 18.2983H23.9765C24.5587 18.2983 25.0312 18.7701 25.0312 19.3515C25.0312 19.933 24.5587 20.4055 23.9765 20.4055Z" fill="#03045E"/>
<path d="M26.9043 25.6747H9.09563C8.18859 25.6747 7.45312 26.4094 7.45312 27.3151V32.4612C7.45312 33.3668 8.18859 34.1016 9.09563 34.1016H26.9043C27.8113 34.1016 28.5468 33.3668 28.5468 32.4612V27.3151C28.5468 26.4094 27.8113 25.6747 26.9043 25.6747ZM11.8125 30.9417C11.2303 30.9417 10.7578 30.4699 10.7578 29.8877C10.7578 29.3063 11.2303 28.8345 11.8125 28.8345C12.3947 28.8345 12.8672 29.3063 12.8672 29.8877C12.8671 30.4699 12.3947 30.9417 11.8125 30.9417ZM23.9765 30.9417H16.3827C15.8006 30.9417 15.3281 30.4699 15.3281 29.8877C15.3281 29.3063 15.8006 28.8345 16.3827 28.8345H23.9765C24.5587 28.8345 25.0312 29.3063 25.0312 29.8877C25.0312 30.4699 24.5587 30.9417 23.9765 30.9417Z" fill="#03045E"/>
</g>
<defs>
<clipPath id="clip0_268_5443">
<rect width="36" height="36" fill="white"/>
</clipPath>
</defs>
</svg>
