<svg width="36" height="36" viewBox="0 0 36 36" fill="none" xmlns="http://www.w3.org/2000/svg">
<path d="M3.00002 13.5H30C31.6538 13.5 33 12.1546 33 10.5V5.99996C33 4.34544 31.6538 2.99994 30 2.99994H3.00002C1.3462 3.00001 0 4.34544 0 5.99996V10.5C0 12.1546 1.3462 13.5 3.00002 13.5ZM27 6.74999C27.8276 6.74999 28.5 7.42309 28.5 8.24996C28.5 9.07684 27.8276 9.74994 27 9.74994C26.1724 9.74994 25.5 9.07684 25.5 8.24996C25.5 7.42309 26.1724 6.74999 27 6.74999ZM22.5 6.74999C23.3276 6.74999 24 7.42309 24 8.24996C24 9.07684 23.3276 9.74994 22.5 9.74994C21.6724 9.74994 21 9.07684 21 8.24996C21 7.42309 21.6724 6.74999 22.5 6.74999ZM10.5 6.74999C10.5 6.33542 10.8354 5.99996 11.25 5.99996C11.6646 5.99996 12 6.33542 12 6.74999V9.75001C12 10.1646 11.6646 10.5 11.25 10.5C10.8354 10.5 10.5 10.1646 10.5 9.75001V6.74999ZM7.50002 6.74999C7.50002 6.33542 7.83548 5.99996 8.25005 5.99996C8.66454 5.99996 9 6.33542 9 6.74999V9.75001C9 10.1646 8.66454 10.5 8.24998 10.5C7.83541 10.5 7.49995 10.1646 7.49995 9.75001L7.50002 6.74999ZM4.5 6.74999C4.5 6.33542 4.83546 5.99996 5.25002 5.99996C5.66459 5.99996 6.00005 6.33542 6.00005 6.74999V9.75001C6.00005 10.1646 5.66459 10.5 5.25002 10.5C4.83546 10.5 4.5 10.1646 4.5 9.75001V6.74999Z" fill="#03045E"/>
<path d="M26.2486 18C26.8492 18 27.4132 18.2336 27.8379 18.6585L28.4619 19.281C28.6026 19.4209 28.793 19.5 28.9922 19.5H32.25C32.6646 19.5 33 19.1646 33 18.75V18C33 16.3455 31.6538 15 30 15H3.00002C1.3462 15 0 16.3455 0 18V22.5C0 24.1545 1.3462 25.5 3.00002 25.5H17.25C17.6646 25.5 18.0001 25.1646 18.0001 24.75V21.2498C18.0001 19.4575 19.4576 18 21.2505 18H26.2486ZM5.99998 21.75C5.99998 22.1645 5.66452 22.5 5.24995 22.5C4.83546 22.5 4.5 22.1645 4.5 21.75V18.7499C4.5 18.3355 4.83546 18 5.25002 18C5.66459 18 6.00005 18.3355 6.00005 18.75L5.99998 21.75ZM9 21.75C9 22.1645 8.66454 22.5 8.24998 22.5C7.83541 22.5 7.49995 22.1645 7.49995 21.75V18.7499C7.49995 18.3354 7.83541 17.9999 8.24998 17.9999C8.66454 17.9999 9 18.3354 9 18.7499V21.75ZM12 21.75C12 22.1645 11.6646 22.5 11.25 22.5C10.8354 22.5 10.5 22.1645 10.5 21.75V18.7499C10.5 18.3354 10.8354 17.9999 11.25 17.9999C11.6646 17.9999 12 18.3354 12 18.7499V21.75Z" fill="#03045E"/>
<path d="M34.2495 21H28.0605L26.7788 19.7198C26.6382 19.5791 26.4478 19.5 26.2485 19.5H21.2505C20.2852 19.5 19.5 20.2852 19.5 21.2498V31.2502C19.5 32.2148 20.2852 33 21.2505 33H34.2495C35.2148 33 36 32.2148 36 31.2502V22.7497C36 21.7851 35.2148 21 34.2495 21Z" fill="#03045E"/>
</svg>
