<svg width="192" height="53" viewBox="0 0 192 53" fill="none" xmlns="http://www.w3.org/2000/svg">
<path d="M132.342 32.6431L132.143 32.8036L132.461 32.5627L132.342 32.6431ZM139.982 32.9643L139.625 33.0044H140.022C139.982 33.0044 139.982 32.9643 139.982 32.9643ZM139.982 32.9643L139.625 33.0044H140.022C139.982 33.0044 139.982 32.9643 139.982 32.9643ZM139.546 33.3256L139.902 33.5264V33.4862L139.546 33.3256ZM139.546 33.3256L139.902 33.5264V33.4862L139.546 33.3256ZM132.342 32.6431L132.143 32.8036L132.461 32.5627L132.342 32.6431Z" fill="white"/>
<path d="M11.8763 8.4317H7.9176V48.9847H11.8763V8.4317Z" fill="url(#paint0_linear_17_33)"/>
<path d="M3.95876 8.4317H0V48.9847H3.95876V8.4317Z" fill="url(#paint1_linear_17_33)"/>
<path d="M11.8763 1.20465H0V5.2198H11.8763V1.20465Z" fill="url(#paint2_linear_17_33)"/>
<path fill-rule="evenodd" clip-rule="evenodd" d="M23.04 8.4317V26.9014H25.4153V8.4317H38.0833H58.6689V11.6036V20.7582V31.0771H53.9184H51.5431V33.4461V42.159H38.0833H27.3946V41.0347H22.2483V46.2143H27.3946V44.568H38.0833H53.9184V43.4036V42.159V33.4862H58.6689V36.6582V44.568L61.8359 47.7802L57.0854 52.5984L53.5225 48.9847H46.3967H38.0833H29.77H17.4978V36.6582V20.7582V11.6036V8.4317H23.04ZM29.77 20.7582H38.0833H46.3967V24.3317H50.7514V15.5786H46.0009V16.7832H40.8544V11.6036H46.0009V13.2097H53.1266V14.4143V15.6188V24.3719V26.7408H50.7514H46.3967V36.6984H38.0833H29.77V20.7582Z" fill="url(#paint3_linear_17_33)"/>
<path d="M119.99 43.8857V39.2683H120.861V38.666H118.367V39.2683H119.277V43.8857H118.367V44.4479H120.94V43.8857H119.99ZM122.524 38.666V39.2683H124.344V44.4479H125.097V39.2683H126.878V38.666H122.524ZM134.756 41.7577C134.598 41.6773 134.321 41.5569 133.885 41.4364C133.846 41.4364 133.767 41.3963 133.569 41.3562C133.411 41.316 133.252 41.2758 133.054 41.1955C132.896 41.1554 132.698 41.0751 132.539 40.9948C132.341 40.9145 132.183 40.794 132.024 40.6736C131.866 40.5129 131.747 40.3122 131.747 40.0713C131.747 39.8304 131.827 39.5895 132.024 39.4288C132.183 39.3084 132.341 39.188 132.539 39.1479C132.698 39.1077 132.856 39.0675 133.015 39.0675C133.213 39.0675 133.411 39.1077 133.608 39.1479C133.806 39.188 134.004 39.3084 134.123 39.4288C134.242 39.5493 134.321 39.6698 134.4 39.7903V39.8304V39.8705H135.152C135.152 39.7099 135.112 39.5895 135.033 39.469C134.954 39.3084 134.835 39.1479 134.717 39.0675C134.598 38.9471 134.4 38.8266 134.202 38.7463C134.004 38.666 133.806 38.5857 133.569 38.5455C133.371 38.5054 133.133 38.4653 132.896 38.4653C132.619 38.4653 132.341 38.5054 132.104 38.5857C131.866 38.666 131.629 38.7864 131.47 38.9069C131.312 39.0273 131.154 39.188 131.035 39.3888C130.956 39.5895 130.877 39.7903 130.877 40.0312C130.877 40.2319 130.916 40.3925 130.956 40.5531C131.035 40.7138 131.075 40.8342 131.154 40.9145C131.233 40.9948 131.352 41.1153 131.47 41.1955C131.629 41.316 131.787 41.3963 131.945 41.4364C132.104 41.4766 132.262 41.5569 132.499 41.6372C132.619 41.6773 132.777 41.7175 132.975 41.7577C133.173 41.7979 133.331 41.8379 133.45 41.8781C133.608 41.9183 133.727 41.9584 133.885 41.9986C134.044 42.0788 134.202 42.1592 134.321 42.3198C134.44 42.4804 134.479 42.641 134.479 42.8418C134.479 43.0425 134.44 43.2031 134.36 43.3638C134.281 43.5244 134.163 43.6448 133.965 43.7251C133.846 43.8054 133.688 43.8455 133.569 43.8455C133.411 43.8857 133.292 43.8857 133.133 43.8857C132.618 43.8857 132.143 43.7653 131.866 43.4038C131.747 43.2433 131.629 43.0827 131.589 42.8418H130.758C130.758 43.0023 130.797 43.163 130.877 43.3236C130.956 43.5244 131.075 43.6849 131.193 43.8054C131.352 43.9258 131.51 44.0463 131.708 44.1668C131.906 44.2471 132.104 44.3273 132.341 44.4077C132.579 44.4479 132.777 44.488 133.015 44.488C133.49 44.488 133.886 44.4077 134.242 44.2872C134.558 44.1668 134.796 43.966 134.994 43.7251C135.152 43.4842 135.271 43.163 135.271 42.8016C135.389 42.3599 135.192 41.9986 134.756 41.7577ZM141.565 39.7099C141.486 39.5092 141.368 39.3486 141.209 39.1879C141.051 39.0273 140.893 38.9069 140.695 38.8266C140.497 38.7062 140.299 38.6258 140.1 38.5857C139.902 38.5455 139.665 38.5054 139.467 38.5054C139.269 38.5054 139.032 38.5455 138.834 38.5857C138.636 38.6258 138.438 38.7062 138.24 38.7864C138.042 38.8668 137.884 39.0273 137.725 39.1479C137.607 39.2683 137.488 39.4288 137.409 39.6698C137.33 39.8705 137.29 40.1114 137.29 40.3523V42.7213C137.29 42.9622 137.33 43.2031 137.409 43.4038C137.488 43.6046 137.607 43.8054 137.765 43.9258C137.923 44.0463 138.082 44.2069 138.28 44.2872C138.477 44.4077 138.675 44.488 138.873 44.5281C139.071 44.5683 139.309 44.6084 139.507 44.6084C139.704 44.6084 139.942 44.5683 140.14 44.5281C140.339 44.488 140.536 44.4077 140.734 44.2872C140.932 44.1668 141.13 44.0463 141.249 43.9258C141.368 43.8054 141.486 43.6448 141.605 43.4038C141.684 43.2031 141.724 42.9622 141.724 42.7213V40.3523C141.684 40.1114 141.645 39.9107 141.565 39.7099ZM140.932 42.6008C140.932 43.0023 140.813 43.3638 140.497 43.6448C140.219 43.8857 139.823 44.0062 139.427 44.0062C139.032 44.0062 138.675 43.8857 138.359 43.6448C138.042 43.3638 137.923 43.0023 137.923 42.6008V40.513C137.923 40.1114 138.042 39.7501 138.359 39.469C138.636 39.2281 139.032 39.1077 139.427 39.1077C139.823 39.1077 140.179 39.2281 140.497 39.469C140.813 39.7501 140.932 40.1114 140.932 40.513V42.6008ZM144.495 43.8455V38.666H143.742V44.4479H147.622V43.8455H144.495ZM153.085 38.666V42.641C153.085 43.0425 152.967 43.4038 152.65 43.6849C152.373 43.9258 152.017 44.0463 151.62 44.0463C151.224 44.0463 150.868 43.9258 150.591 43.6849C150.314 43.4038 150.195 43.0425 150.195 42.641V38.666H149.443V42.8418C149.443 43.0827 149.483 43.3236 149.562 43.5244C149.641 43.7251 149.76 43.8857 149.879 44.0062C150.037 44.1266 150.195 44.2471 150.393 44.3273C150.591 44.4077 150.789 44.488 150.987 44.5281C151.185 44.5683 151.422 44.6084 151.62 44.6084C151.859 44.6084 152.056 44.6084 152.254 44.5281C152.452 44.488 152.65 44.4077 152.848 44.3273C153.046 44.2471 153.204 44.1266 153.363 43.966C153.481 43.8455 153.6 43.6849 153.679 43.4842C153.758 43.2834 153.798 43.0827 153.798 42.8016V38.666H153.085ZM155.579 38.666V39.2683H157.4V44.4479H158.152V39.2683H159.974V38.666H155.579ZM163.14 43.8857V39.2683H164.012V38.666H161.478V39.2683H162.388V43.8857H161.478V44.4479H164.051V43.8857H163.14ZM170.306 39.7099C170.227 39.5092 170.108 39.3486 169.949 39.1879C169.791 39.0273 169.633 38.9069 169.435 38.8266C169.237 38.7062 169.039 38.6258 168.802 38.5857C168.564 38.5455 168.366 38.5054 168.168 38.5054C167.971 38.5054 167.733 38.5455 167.535 38.5857C167.337 38.6258 167.139 38.7062 166.941 38.8266C166.743 38.9471 166.584 39.0675 166.426 39.1879C166.307 39.3084 166.189 39.469 166.07 39.7099C165.991 39.9107 165.951 40.1516 165.951 40.3925V42.7614C165.951 43.0023 165.991 43.2433 166.07 43.444C166.149 43.6448 166.268 43.8054 166.426 43.966C166.584 44.1266 166.743 44.2471 166.941 44.3273C167.139 44.4479 167.337 44.5281 167.535 44.5683C167.733 44.6084 167.971 44.6486 168.168 44.6486C168.366 44.6486 168.604 44.6084 168.802 44.5683C169 44.5281 169.197 44.4479 169.435 44.3273C169.633 44.2069 169.831 44.0864 169.949 43.966C170.108 43.8455 170.187 43.6849 170.306 43.444C170.385 43.2433 170.424 43.0023 170.424 42.7614V40.3925C170.424 40.1114 170.385 39.9107 170.306 39.7099ZM169.672 42.6008C169.672 43.0023 169.514 43.3638 169.237 43.6448C168.96 43.8857 168.564 44.0062 168.168 44.0062C167.773 44.0062 167.416 43.8857 167.099 43.6448C166.782 43.3638 166.664 43.0023 166.664 42.6008V40.513C166.664 40.1114 166.782 39.7501 167.099 39.469C167.377 39.2281 167.773 39.1077 168.168 39.1077C168.564 39.1077 168.92 39.2281 169.237 39.469C169.554 39.7501 169.672 40.1114 169.672 40.513V42.6008ZM176.244 38.666V43.444L175.492 42.2395L173.394 38.8266V38.7864C173.354 38.7463 173.354 38.7062 173.315 38.666H172.483V44.4479H173.235V39.6698L173.987 40.8744L176.086 44.2872C176.086 44.2872 176.086 44.3273 176.125 44.3273C176.125 44.3273 176.125 44.3675 176.165 44.3675C176.165 44.3675 176.165 44.3675 176.165 44.4077H176.957V38.666H176.244ZM182.658 41.7577C182.499 41.6773 182.221 41.5569 181.826 41.4364C181.786 41.4364 181.707 41.3963 181.509 41.3562C181.351 41.316 181.153 41.2758 180.995 41.1955C180.836 41.1554 180.638 41.0751 180.48 40.9948C180.282 40.9145 180.124 40.794 179.965 40.6736C179.807 40.5129 179.688 40.3122 179.688 40.0713C179.688 39.8304 179.768 39.5895 179.965 39.4288C180.124 39.3084 180.282 39.188 180.48 39.1479C180.638 39.1077 180.797 39.0675 180.955 39.0675C181.153 39.0675 181.351 39.1077 181.549 39.1479C181.747 39.188 181.944 39.3084 182.063 39.4288C182.182 39.5493 182.261 39.6698 182.34 39.7903V39.8304C182.34 39.8304 182.34 39.8304 182.34 39.8705H183.093C183.093 39.7099 183.053 39.5895 182.974 39.469C182.895 39.3084 182.776 39.1479 182.658 39.0675C182.539 38.9471 182.34 38.8266 182.142 38.7463C181.944 38.666 181.747 38.5857 181.509 38.5455C181.311 38.5054 181.074 38.4653 180.836 38.4653C180.559 38.4653 180.282 38.5054 180.045 38.5857C179.807 38.666 179.57 38.7864 179.372 38.9069C179.213 39.0273 179.055 39.188 178.936 39.3888C178.857 39.5895 178.778 39.7903 178.778 40.0312C178.778 40.2319 178.818 40.3925 178.857 40.5531C178.936 40.7138 178.976 40.8342 179.055 40.9145C179.134 40.9948 179.253 41.1153 179.372 41.1955C179.53 41.316 179.688 41.3963 179.847 41.4364C180.005 41.4766 180.163 41.5569 180.401 41.6372C180.52 41.6773 180.678 41.7175 180.876 41.7577C181.074 41.7979 181.232 41.8379 181.351 41.8781C181.509 41.9183 181.628 41.9584 181.786 41.9986C181.944 42.0788 182.103 42.1592 182.221 42.3198C182.34 42.4804 182.38 42.641 182.38 42.8418C182.38 43.0425 182.34 43.2031 182.261 43.3638C182.182 43.5244 182.063 43.6448 181.865 43.7251C181.747 43.8054 181.588 43.8455 181.469 43.8455C181.351 43.8857 181.192 43.8857 181.034 43.8857C180.52 43.8857 180.045 43.7653 179.768 43.4038C179.649 43.2433 179.53 43.0827 179.491 42.8418H178.659C178.659 43.0023 178.699 43.163 178.778 43.3236C178.857 43.5244 178.976 43.6849 179.095 43.8054C179.253 43.9258 179.411 44.0463 179.609 44.1668C179.807 44.2471 180.005 44.3273 180.243 44.4077C180.48 44.4479 180.678 44.488 180.915 44.488C181.39 44.488 181.786 44.4077 182.142 44.2872C182.459 44.1668 182.697 43.966 182.895 43.7251C183.053 43.4842 183.172 43.163 183.172 42.8016C183.291 42.3599 183.053 41.9986 182.658 41.7577Z" fill="black"/>
<path d="M83.1737 8.5923C83.1341 8.512 82.9757 8.4317 82.6194 8.4317H65.0029C64.6467 8.4317 64.4883 8.512 64.4092 8.5923C64.33 8.67257 64.2509 8.83319 64.2509 9.15444V12.3666C64.2509 12.6877 64.33 12.8484 64.4092 12.9286C64.4488 12.9688 64.6071 13.0491 65.0029 13.0491H71.2578V32.2817C71.2578 32.6431 71.337 32.8036 71.3766 32.8438C71.4557 32.9241 71.6141 32.9643 71.9308 32.9643H75.6916C76.0083 32.9643 76.1667 32.884 76.2855 32.8036C76.325 32.7635 76.4438 32.6029 76.4438 32.2416V13.0893H82.659C83.0153 13.0893 83.1737 13.009 83.2133 12.9688C83.2925 12.8885 83.3716 12.7279 83.3716 12.4067V9.19453C83.332 8.83319 83.2529 8.67257 83.1737 8.5923ZM106.214 28.5877C106.174 28.5075 106.016 28.4271 105.66 28.4271H93.1495V22.5249H103.72C104.076 22.5249 104.234 22.4445 104.274 22.4044C104.353 22.3241 104.432 22.1635 104.432 21.8423V18.831C104.432 18.5097 104.353 18.3491 104.274 18.2688C104.234 18.1885 104.076 18.1082 103.72 18.1082H93.1495V13.0893H105.026C105.383 13.0893 105.541 13.009 105.581 12.9688C105.66 12.8885 105.699 12.7279 105.699 12.4067V9.19453C105.699 8.87337 105.62 8.71275 105.541 8.63248C105.501 8.55212 105.343 8.47185 104.986 8.47185H88.597C88.2408 8.47185 88.0825 8.55212 88.0429 8.63248C87.9638 8.71275 87.8846 8.87337 87.8846 9.19453V32.3219C87.8846 32.6431 87.9638 32.8036 88.0034 32.884C88.0429 32.9241 88.2013 33.0044 88.5575 33.0044H105.581C105.976 33.0044 106.095 32.9241 106.174 32.884C106.253 32.8036 106.293 32.6431 106.293 32.3219V29.1499C106.372 28.8286 106.293 28.6681 106.214 28.5877ZM131.629 32.7234C131.629 32.6431 131.589 32.5226 131.51 32.4021L126.166 24.5325L125.889 24.0908L126.364 23.9302C127.591 23.4885 128.779 22.6453 129.808 21.2802C130.837 19.9552 131.352 18.4294 131.352 16.6226C131.352 15.4181 131.154 14.334 130.797 13.3302C130.441 12.3264 129.927 11.5234 129.293 10.881C128.462 10.0377 127.551 9.4756 126.483 9.07409C125.414 8.71275 123.949 8.51201 122.009 8.51201H112.429C112.072 8.51201 111.954 8.5923 111.914 8.63248C111.835 8.71275 111.795 8.87337 111.795 9.23471V32.3219C111.795 32.6832 111.875 32.8438 111.914 32.884C111.993 32.9643 112.152 33.0044 112.429 33.0044H116.189C116.506 33.0044 116.664 32.9241 116.744 32.884C116.784 32.8438 116.903 32.6832 116.903 32.3219V13.0893H122.326C123.434 13.0893 124.344 13.4105 125.097 14.0931C125.849 14.7756 126.245 15.659 126.245 16.7431C126.245 17.7469 125.81 18.5901 125.018 19.2726C124.226 19.9151 123.276 20.2764 122.247 20.2764H121.495C121.139 20.2764 120.98 20.3567 120.941 20.437C120.861 20.5173 120.782 20.6779 120.782 21.0393V24.0908C120.782 24.6127 120.822 25.0143 120.861 25.2552C120.901 25.456 120.98 25.6567 121.139 25.8575L125.256 32.081C125.533 32.4825 125.77 32.7234 125.968 32.884C126.166 33.0044 126.443 33.0446 126.839 33.0446H131.312C131.431 33.0446 131.51 33.0044 131.549 33.0044C131.589 33.0044 131.589 32.9643 131.629 32.884C131.629 32.8036 131.629 32.7635 131.629 32.7234ZM156.925 32.7636V32.7234C156.925 32.6431 156.886 32.5627 156.807 32.4423L151.463 24.5726L151.185 24.131L151.661 23.9703C152.927 23.5286 154.075 22.6855 155.104 21.3203C156.134 19.9953 156.648 18.4695 156.648 16.6627C156.648 15.4582 156.451 14.3741 156.094 13.3703C155.738 12.3666 155.224 11.5635 154.589 10.9211C153.758 10.0779 152.848 9.51578 151.779 9.11426C150.71 8.75292 149.245 8.55212 147.305 8.55212H137.725C137.369 8.55212 137.251 8.63248 137.211 8.67257C137.132 8.75292 137.092 8.91355 137.092 9.27489V32.362C137.092 32.7234 137.171 32.884 137.211 32.9241C137.29 33.0044 137.448 33.0446 137.725 33.0446H141.486C141.803 33.0446 141.961 32.9643 142.04 32.9241C142.08 32.884 142.199 32.7234 142.199 32.362V13.0893H147.662C148.731 13.0893 149.681 13.4105 150.433 14.0931C151.185 14.7756 151.581 15.659 151.581 16.7431C151.581 17.7469 151.145 18.5901 150.354 19.2726C149.562 19.9151 148.612 20.2764 147.583 20.2764H146.83C146.474 20.2764 146.316 20.3567 146.276 20.437C146.197 20.5173 146.118 20.6779 146.118 21.0393V24.0908C146.118 24.6127 146.157 25.0143 146.197 25.2552C146.237 25.456 146.316 25.6567 146.474 25.8575L150.591 32.081C150.868 32.4825 151.106 32.7234 151.304 32.884C151.502 33.0044 151.779 33.0446 152.175 33.0446H156.648C156.767 33.0446 156.846 33.0044 156.886 33.0044C156.925 33.0044 156.925 32.9643 156.965 32.884V32.8438C156.965 32.8036 156.965 32.7636 156.925 32.7636ZM183.172 32.5627L183.133 32.4825L174.74 9.39534C174.582 8.99382 174.424 8.75292 174.265 8.63248C174.146 8.512 173.908 8.4317 173.552 8.4317H169.91C169.554 8.4317 169.316 8.512 169.158 8.63248C169 8.75292 168.841 8.99382 168.723 9.35516L160.291 32.4423V32.4825V32.5226C160.251 32.6029 160.211 32.6832 160.211 32.7234C160.211 32.7635 160.211 32.8036 160.251 32.884C160.251 32.9241 160.291 32.9241 160.33 32.9241C160.37 32.9241 160.449 32.9643 160.607 32.9643H164.605C165.001 32.9643 165.199 32.884 165.278 32.8438C165.397 32.7635 165.516 32.5226 165.674 32.1211L166.744 29.0696L166.823 28.7885H176.719L176.798 29.0696L177.867 32.1211C178.025 32.5627 178.145 32.7635 178.264 32.8438C178.343 32.9241 178.58 32.9643 178.936 32.9643H182.935C183.093 32.9643 183.172 32.9241 183.212 32.9241C183.251 32.9241 183.251 32.884 183.291 32.8438V32.8036C183.291 32.7635 183.331 32.7635 183.331 32.7234C183.251 32.7234 183.212 32.6431 183.172 32.5627ZM168.327 24.2112L168.525 23.6893L171.375 15.1771L171.771 14.0529L172.127 15.1771L174.978 23.6893L175.176 24.2112H168.327Z" fill="black"/>
<defs>
<linearGradient id="paint0_linear_17_33" x1="9.89697" y1="8.4317" x2="9.89697" y2="48.9847" gradientUnits="userSpaceOnUse">
<stop stop-color="#25A4DE"/>
<stop offset="1" stop-color="#2B5DE9"/>
</linearGradient>
<linearGradient id="paint1_linear_17_33" x1="1.97938" y1="8.4317" x2="1.97938" y2="48.9847" gradientUnits="userSpaceOnUse">
<stop stop-color="#25A4DE"/>
<stop offset="1" stop-color="#2B5DE9"/>
</linearGradient>
<linearGradient id="paint2_linear_17_33" x1="0" y1="3.21222" x2="11.8763" y2="3.21222" gradientUnits="userSpaceOnUse">
<stop stop-color="#25A4DE"/>
<stop offset="1" stop-color="#2B5DE9"/>
</linearGradient>
<linearGradient id="paint3_linear_17_33" x1="39.6751" y1="8.4317" x2="39.6751" y2="52.6152" gradientUnits="userSpaceOnUse">
<stop stop-color="#25A4DE"/>
<stop offset="1" stop-color="#2B5DE9"/>
</linearGradient>
</defs>
</svg>
