<svg width="210" height="58" viewBox="0 0 210 58" fill="none" xmlns="http://www.w3.org/2000/svg">
<path d="M144.749 35.7227L144.532 35.8984L144.879 35.6348L144.749 35.7227ZM153.106 36.0742L152.715 36.1181H153.149C153.106 36.1181 153.106 36.0742 153.106 36.0742ZM153.106 36.0742L152.715 36.1181H153.149C153.106 36.1181 153.106 36.0742 153.106 36.0742ZM152.629 36.4696L153.018 36.6893V36.6454L152.629 36.4696ZM152.629 36.4696L153.018 36.6893V36.6454L152.629 36.4696ZM144.749 35.7227L144.532 35.8984L144.879 35.6348L144.749 35.7227Z" fill="white"/>
<path d="M12.9897 9.22705H8.65979V53.6058H12.9897V9.22705Z" fill="url(#paint0_linear_68_743)"/>
<path d="M4.3299 9.22705H0V53.6058H4.3299V9.22705Z" fill="url(#paint1_linear_68_743)"/>
<path d="M12.9897 1.31836H0V5.7123H12.9897V1.31836Z" fill="url(#paint2_linear_68_743)"/>
<path fill-rule="evenodd" clip-rule="evenodd" d="M25.2 9.22705V29.4392H27.7979V9.22705H41.6536H64.1691V12.6982V22.7164V34.0088H58.9732H56.3752V36.6012V46.1362H41.6536H29.9629V44.9058H24.334V50.574H29.9629V48.7724H41.6536H58.9732V47.4982V46.1362V36.6452H64.1691V40.1164V48.7724L67.633 52.2876L62.4371 57.5604L58.5402 53.6058H50.7464H41.6536H32.5609H19.1382V40.1164V22.7164V12.6982V9.22705H25.2ZM32.5609 22.7164H41.6536H50.7464V26.627H55.5093V17.0482H50.3134V18.3664H44.6845V12.6982H50.3134V14.4558H58.1072V15.774V17.0922V26.671V29.2634H55.5093H50.7464V40.1604H41.6536H32.5609V22.7164Z" fill="url(#paint3_linear_68_743)"/>
<path d="M131.239 48.0258V42.9728H132.191V42.3136H129.464V42.9728H130.46V48.0258H129.464V48.641H132.278V48.0258H131.239ZM134.01 42.3136V42.9728H136.002V48.641H136.825V42.9728H138.773V42.3136H134.01ZM147.39 45.697C147.216 45.6091 146.913 45.4773 146.437 45.3455C146.394 45.3455 146.307 45.3016 146.091 45.2576C145.918 45.2136 145.745 45.1697 145.528 45.0818C145.355 45.0379 145.139 44.95 144.965 44.8622C144.748 44.7742 144.575 44.6424 144.402 44.5106C144.229 44.3348 144.099 44.1152 144.099 43.8516C144.099 43.5879 144.185 43.3242 144.402 43.1485C144.575 43.0167 144.748 42.8849 144.965 42.841C145.139 42.797 145.312 42.753 145.485 42.753C145.701 42.753 145.918 42.797 146.134 42.841C146.351 42.8849 146.567 43.0167 146.697 43.1485C146.827 43.2803 146.913 43.4122 147 43.544V43.5879V43.6318H147.823C147.823 43.4561 147.779 43.3242 147.693 43.1924C147.606 43.0167 147.476 42.841 147.346 42.753C147.216 42.6212 147 42.4894 146.784 42.4016C146.567 42.3136 146.351 42.2258 146.091 42.1818C145.875 42.1379 145.615 42.094 145.355 42.094C145.052 42.094 144.748 42.1379 144.488 42.2258C144.229 42.3136 143.969 42.4455 143.796 42.5773C143.623 42.7091 143.449 42.8849 143.32 43.1046C143.233 43.3242 143.146 43.544 143.146 43.8076C143.146 44.0273 143.19 44.203 143.233 44.3788C143.319 44.5546 143.363 44.6864 143.449 44.7742C143.536 44.8622 143.666 44.994 143.796 45.0818C143.969 45.2136 144.142 45.3016 144.315 45.3455C144.488 45.3894 144.661 45.4773 144.921 45.5652C145.052 45.6091 145.225 45.653 145.442 45.697C145.658 45.741 145.831 45.7848 145.961 45.8288C146.134 45.8728 146.264 45.9167 146.437 45.9606C146.61 46.0485 146.784 46.1364 146.913 46.3122C147.043 46.4879 147.087 46.6636 147.087 46.8834C147.087 47.103 147.043 47.2788 146.957 47.4546C146.87 47.6304 146.74 47.7622 146.524 47.85C146.394 47.9379 146.221 47.9818 146.091 47.9818C145.918 48.0258 145.788 48.0258 145.615 48.0258C145.051 48.0258 144.532 47.894 144.229 47.4985C144.099 47.3228 143.969 47.147 143.926 46.8834H143.016C143.016 47.0591 143.06 47.2349 143.146 47.4106C143.233 47.6304 143.363 47.8061 143.493 47.9379C143.666 48.0697 143.839 48.2016 144.055 48.3334C144.272 48.4212 144.488 48.5091 144.748 48.597C145.008 48.641 145.225 48.6849 145.485 48.6849C146.004 48.6849 146.437 48.597 146.827 48.4652C147.173 48.3334 147.433 48.1136 147.649 47.85C147.823 47.5864 147.952 47.2349 147.952 46.8394C148.082 46.3561 147.866 45.9606 147.39 45.697ZM154.837 43.4561C154.751 43.2364 154.621 43.0606 154.448 42.8849C154.275 42.7091 154.101 42.5773 153.885 42.4894C153.668 42.3576 153.452 42.2697 153.235 42.2258C153.018 42.1818 152.758 42.1379 152.542 42.1379C152.326 42.1379 152.066 42.1818 151.849 42.2258C151.633 42.2697 151.416 42.3576 151.2 42.4455C150.984 42.5334 150.81 42.7091 150.637 42.841C150.507 42.9728 150.378 43.1485 150.291 43.4122C150.204 43.6318 150.161 43.8955 150.161 44.1591V46.7516C150.161 47.0152 150.204 47.2788 150.291 47.4985C150.378 47.7182 150.507 47.9379 150.681 48.0697C150.854 48.2016 151.027 48.3773 151.243 48.4652C151.46 48.597 151.676 48.6849 151.893 48.7288C152.109 48.7728 152.369 48.8167 152.585 48.8167C152.802 48.8167 153.061 48.7728 153.278 48.7288C153.495 48.6849 153.712 48.597 153.928 48.4652C154.145 48.3334 154.361 48.2016 154.491 48.0697C154.621 47.9379 154.751 47.7622 154.881 47.4985C154.967 47.2788 155.01 47.0152 155.01 46.7516V44.1591C154.967 43.8955 154.924 43.6758 154.837 43.4561ZM154.145 46.6197C154.145 47.0591 154.015 47.4546 153.668 47.7622C153.364 48.0258 152.932 48.1576 152.499 48.1576C152.066 48.1576 151.676 48.0258 151.33 47.7622C150.984 47.4546 150.854 47.0591 150.854 46.6197V44.3349C150.854 43.8955 150.984 43.5 151.33 43.1924C151.633 42.9288 152.066 42.797 152.499 42.797C152.932 42.797 153.321 42.9288 153.668 43.1924C154.015 43.5 154.145 43.8955 154.145 44.3349V46.6197ZM158.042 47.9818V42.3136H157.218V48.641H161.461V47.9818H158.042ZM167.437 42.3136V46.6636C167.437 47.103 167.307 47.4985 166.961 47.8061C166.658 48.0697 166.268 48.2016 165.835 48.2016C165.402 48.2016 165.012 48.0697 164.709 47.8061C164.406 47.4985 164.276 47.103 164.276 46.6636V42.3136H163.454V46.8834C163.454 47.147 163.497 47.4106 163.584 47.6304C163.67 47.85 163.8 48.0258 163.93 48.1576C164.103 48.2894 164.276 48.4212 164.493 48.5091C164.709 48.597 164.926 48.6849 165.142 48.7288C165.358 48.7728 165.618 48.8167 165.835 48.8167C166.095 48.8167 166.312 48.8167 166.528 48.7288C166.745 48.6849 166.961 48.597 167.178 48.5091C167.394 48.4212 167.567 48.2894 167.74 48.1136C167.87 47.9818 168 47.8061 168.087 47.5864C168.173 47.3667 168.216 47.147 168.216 46.8394V42.3136H167.437ZM170.165 42.3136V42.9728H172.157V48.641H172.979V42.9728H174.971V42.3136H170.165ZM178.435 48.0258V42.9728H179.388V42.3136H176.616V42.9728H177.612V48.0258H176.616V48.641H179.431V48.0258H178.435ZM186.272 43.4561C186.185 43.2364 186.055 43.0606 185.882 42.8849C185.709 42.7091 185.536 42.5773 185.319 42.4894C185.103 42.3576 184.887 42.2697 184.627 42.2258C184.367 42.1818 184.151 42.1379 183.934 42.1379C183.718 42.1379 183.458 42.1818 183.242 42.2258C183.025 42.2697 182.809 42.3576 182.591 42.4894C182.375 42.6212 182.202 42.753 182.029 42.8849C181.899 43.0167 181.769 43.1924 181.639 43.4561C181.552 43.6758 181.509 43.9394 181.509 44.203V46.7955C181.509 47.0591 181.552 47.3228 181.639 47.5424C181.726 47.7622 181.855 47.9379 182.029 48.1136C182.202 48.2894 182.375 48.4212 182.591 48.5091C182.809 48.641 183.025 48.7288 183.242 48.7728C183.458 48.8167 183.718 48.8606 183.934 48.8606C184.151 48.8606 184.41 48.8167 184.627 48.7728C184.843 48.7288 185.06 48.641 185.319 48.5091C185.536 48.3773 185.752 48.2455 185.882 48.1136C186.055 47.9818 186.142 47.8061 186.272 47.5424C186.358 47.3228 186.402 47.0591 186.402 46.7955V44.203C186.402 43.8955 186.358 43.6758 186.272 43.4561ZM185.579 46.6197C185.579 47.0591 185.406 47.4546 185.103 47.7622C184.8 48.0258 184.367 48.1576 183.934 48.1576C183.501 48.1576 183.112 48.0258 182.764 47.7622C182.418 47.4546 182.288 47.0591 182.288 46.6197V44.3349C182.288 43.8955 182.418 43.5 182.764 43.1924C183.068 42.9288 183.501 42.797 183.934 42.797C184.367 42.797 184.757 42.9288 185.103 43.1924C185.449 43.5 185.579 43.8955 185.579 44.3349V46.6197ZM192.767 42.3136V47.5424L191.945 46.2242L189.649 42.4894V42.4455C189.606 42.4016 189.606 42.3576 189.563 42.3136H188.654V48.641H189.476V43.4122L190.299 44.7304L192.594 48.4652C192.594 48.4652 192.594 48.5091 192.637 48.5091C192.637 48.5091 192.637 48.553 192.681 48.553C192.681 48.553 192.681 48.553 192.681 48.597H193.546V42.3136H192.767ZM199.782 45.697C199.608 45.6091 199.305 45.4773 198.872 45.3455C198.829 45.3455 198.742 45.3016 198.526 45.2576C198.352 45.2136 198.136 45.1697 197.963 45.0818C197.79 45.0379 197.573 44.95 197.4 44.8622C197.184 44.7742 197.01 44.6424 196.837 44.5106C196.664 44.3348 196.534 44.1152 196.534 43.8516C196.534 43.5879 196.621 43.3242 196.837 43.1485C197.01 43.0167 197.184 42.8849 197.4 42.841C197.573 42.797 197.746 42.753 197.92 42.753C198.136 42.753 198.352 42.797 198.569 42.841C198.785 42.8849 199.002 43.0167 199.132 43.1485C199.261 43.2803 199.348 43.4122 199.435 43.544V43.5879C199.435 43.5879 199.435 43.5879 199.435 43.6318H200.258C200.258 43.4561 200.215 43.3242 200.128 43.1924C200.042 43.0167 199.912 42.841 199.782 42.753C199.652 42.6212 199.435 42.4894 199.218 42.4016C199.002 42.3136 198.785 42.2258 198.526 42.1818C198.309 42.1379 198.049 42.094 197.79 42.094C197.487 42.094 197.184 42.1379 196.924 42.2258C196.664 42.3136 196.404 42.4455 196.188 42.5773C196.015 42.7091 195.842 42.8849 195.712 43.1046C195.625 43.3242 195.539 43.544 195.539 43.8076C195.539 44.0273 195.582 44.203 195.625 44.3788C195.712 44.5546 195.755 44.6864 195.842 44.7742C195.928 44.8622 196.058 44.994 196.188 45.0818C196.361 45.2136 196.534 45.3016 196.707 45.3455C196.881 45.3894 197.054 45.4773 197.313 45.5652C197.443 45.6091 197.616 45.653 197.833 45.697C198.049 45.741 198.223 45.7848 198.352 45.8288C198.526 45.8728 198.655 45.9167 198.829 45.9606C199.002 46.0485 199.175 46.1364 199.305 46.3122C199.435 46.4879 199.478 46.6636 199.478 46.8834C199.478 47.103 199.435 47.2788 199.348 47.4546C199.261 47.6304 199.132 47.7622 198.915 47.85C198.785 47.9379 198.612 47.9818 198.482 47.9818C198.352 48.0258 198.179 48.0258 198.006 48.0258C197.443 48.0258 196.924 47.894 196.621 47.4985C196.491 47.3228 196.361 47.147 196.318 46.8834H195.408C195.408 47.0591 195.452 47.2349 195.539 47.4106C195.625 47.6304 195.755 47.8061 195.885 47.9379C196.058 48.0697 196.231 48.2016 196.448 48.3334C196.664 48.4212 196.881 48.5091 197.14 48.597C197.4 48.641 197.616 48.6849 197.876 48.6849C198.396 48.6849 198.829 48.597 199.218 48.4652C199.565 48.3334 199.825 48.1136 200.042 47.85C200.215 47.5864 200.345 47.2349 200.345 46.8394C200.474 46.3561 200.215 45.9606 199.782 45.697Z" fill="white"/>
<path d="M90.9713 9.4028C90.928 9.31492 90.7548 9.22705 90.3651 9.22705H71.097C70.7074 9.22705 70.5342 9.31492 70.4476 9.4028C70.361 9.49064 70.2744 9.66642 70.2744 10.018V13.5331C70.2744 13.8846 70.361 14.0604 70.4476 14.1482C70.4909 14.1922 70.664 14.28 71.097 14.28H77.9383V35.327C77.9383 35.7225 78.0249 35.8982 78.0682 35.9422C78.1548 36.03 78.328 36.074 78.6743 36.074H82.7877C83.1341 36.074 83.3074 35.9862 83.4373 35.8982C83.4806 35.8544 83.6104 35.6786 83.6104 35.2831V14.324H90.4083C90.798 14.324 90.9713 14.2362 91.0146 14.1922C91.1012 14.1044 91.1877 13.9286 91.1877 13.577V10.0618C91.1445 9.66642 91.0579 9.49064 90.9713 9.4028ZM116.171 31.2846C116.128 31.1968 115.955 31.1088 115.565 31.1088H101.882V24.6498H113.443C113.833 24.6498 114.006 24.5618 114.049 24.518C114.136 24.43 114.223 24.2544 114.223 23.9028V20.6074C114.223 20.2558 114.136 20.08 114.049 19.9922C114.006 19.9044 113.833 19.8164 113.443 19.8164H101.882V14.324H114.872C115.262 14.324 115.436 14.2362 115.479 14.1922C115.565 14.1044 115.609 13.9286 115.609 13.577V10.0618C115.609 9.71039 115.522 9.53461 115.436 9.44677C115.392 9.35883 115.219 9.27099 114.829 9.27099H96.9031C96.5135 9.27099 96.3403 9.35883 96.297 9.44677C96.2104 9.53461 96.1238 9.71039 96.1238 10.0618V35.371C96.1238 35.7225 96.2104 35.8982 96.2537 35.9862C96.297 36.03 96.4702 36.118 96.8598 36.118H115.479C115.912 36.118 116.042 36.03 116.128 35.9862C116.215 35.8982 116.258 35.7225 116.258 35.371V31.8998C116.345 31.5482 116.258 31.3725 116.171 31.2846ZM143.969 35.8104C143.969 35.7225 143.926 35.5906 143.839 35.4588L137.994 26.8468L137.691 26.3634L138.21 26.1876C139.552 25.7044 140.852 24.7816 141.978 23.2876C143.103 21.8376 143.666 20.168 143.666 18.1906C143.666 16.8725 143.449 15.6862 143.06 14.5876C142.67 13.4892 142.107 12.6104 141.415 11.9074C140.506 10.9846 139.509 10.3694 138.34 9.93004C137.171 9.53461 135.569 9.31493 133.448 9.31493H122.969C122.579 9.31493 122.449 9.4028 122.406 9.44677C122.319 9.53461 122.276 9.71039 122.276 10.1058V35.371C122.276 35.7664 122.363 35.9422 122.406 35.9862C122.493 36.074 122.666 36.118 122.969 36.118H127.082C127.429 36.118 127.602 36.03 127.689 35.9862C127.733 35.9422 127.862 35.7664 127.862 35.371V14.324H133.794C135.006 14.324 136.002 14.6756 136.825 15.4225C137.648 16.1694 138.081 17.1362 138.081 18.3225C138.081 19.421 137.604 20.3438 136.739 21.0906C135.872 21.7938 134.833 22.1892 133.707 22.1892H132.885C132.495 22.1892 132.322 22.277 132.279 22.365C132.192 22.4528 132.106 22.6286 132.106 23.024V26.3634C132.106 26.9346 132.149 27.374 132.192 27.6376C132.236 27.8574 132.322 28.077 132.495 28.2968L136.998 35.1074C137.301 35.5468 137.561 35.8104 137.778 35.9862C137.994 36.118 138.297 36.1619 138.73 36.1619H143.623C143.752 36.1619 143.839 36.118 143.882 36.118C143.926 36.118 143.926 36.074 143.969 35.9862C143.969 35.8982 143.969 35.8544 143.969 35.8104ZM171.637 35.8544V35.8104C171.637 35.7225 171.594 35.6346 171.507 35.5028L165.662 26.8906L165.358 26.4074L165.879 26.2316C167.264 25.7482 168.52 24.8256 169.645 23.3316C170.771 21.8816 171.334 20.2118 171.334 18.2346C171.334 16.9164 171.118 15.73 170.728 14.6316C170.339 13.5331 169.776 12.6544 169.082 11.9512C168.173 11.0286 167.178 10.4134 166.009 9.97401C164.839 9.57858 163.237 9.35883 161.115 9.35883H150.637C150.248 9.35883 150.118 9.44677 150.075 9.49064C149.988 9.57858 149.945 9.75436 149.945 10.1498V35.415C149.945 35.8104 150.031 35.9862 150.075 36.03C150.161 36.118 150.334 36.1619 150.637 36.1619H154.751C155.097 36.1619 155.27 36.074 155.357 36.03C155.4 35.9862 155.53 35.8104 155.53 35.415V14.324H161.506C162.674 14.324 163.713 14.6756 164.536 15.4225C165.358 16.1694 165.792 17.1362 165.792 18.3225C165.792 19.421 165.315 20.3438 164.449 21.0906C163.584 21.7938 162.545 22.1892 161.419 22.1892H160.596C160.206 22.1892 160.033 22.277 159.99 22.365C159.903 22.4528 159.816 22.6286 159.816 23.024V26.3634C159.816 26.9346 159.86 27.374 159.903 27.6376C159.946 27.8574 160.033 28.077 160.206 28.2968L164.709 35.1074C165.012 35.5468 165.272 35.8104 165.489 35.9862C165.706 36.118 166.009 36.1619 166.442 36.1619H171.334C171.464 36.1619 171.551 36.118 171.594 36.118C171.637 36.118 171.637 36.074 171.681 35.9862V35.9422C171.681 35.8982 171.681 35.8544 171.637 35.8544ZM200.345 35.6346L200.301 35.5468L191.122 10.2816C190.949 9.8422 190.776 9.57858 190.603 9.44677C190.472 9.31492 190.212 9.22705 189.823 9.22705H185.839C185.449 9.22705 185.19 9.31492 185.016 9.44677C184.843 9.57858 184.67 9.8422 184.54 10.2376L175.318 35.5028V35.5468V35.5906C175.275 35.6786 175.231 35.7664 175.231 35.8104C175.231 35.8544 175.231 35.8982 175.275 35.9862C175.275 36.03 175.318 36.03 175.361 36.03C175.404 36.03 175.491 36.074 175.664 36.074H180.037C180.47 36.074 180.687 35.9862 180.773 35.9422C180.903 35.8544 181.033 35.5906 181.206 35.1512L182.376 31.8119L182.462 31.5044H193.287L193.373 31.8119L194.542 35.1512C194.715 35.6346 194.846 35.8544 194.976 35.9422C195.062 36.03 195.322 36.074 195.712 36.074H200.085C200.258 36.074 200.345 36.03 200.388 36.03C200.431 36.03 200.431 35.9862 200.475 35.9422V35.8982C200.475 35.8544 200.518 35.8544 200.518 35.8104C200.431 35.8104 200.388 35.7225 200.345 35.6346ZM184.107 26.4952L184.324 25.924L187.442 16.6088L187.874 15.3786L188.264 16.6088L191.382 25.924L191.598 26.4952H184.107Z" fill="white"/>
<defs>
<linearGradient id="paint0_linear_68_743" x1="10.8247" y1="9.22705" x2="10.8247" y2="53.6058" gradientUnits="userSpaceOnUse">
<stop stop-color="#25A4DE"/>
<stop offset="1" stop-color="#2B5DE9"/>
</linearGradient>
<linearGradient id="paint1_linear_68_743" x1="2.16494" y1="9.22705" x2="2.16494" y2="53.6058" gradientUnits="userSpaceOnUse">
<stop stop-color="#25A4DE"/>
<stop offset="1" stop-color="#2B5DE9"/>
</linearGradient>
<linearGradient id="paint2_linear_68_743" x1="0" y1="3.51532" x2="12.9897" y2="3.51532" gradientUnits="userSpaceOnUse">
<stop stop-color="#25A4DE"/>
<stop offset="1" stop-color="#2B5DE9"/>
</linearGradient>
<linearGradient id="paint3_linear_68_743" x1="43.3947" y1="9.22705" x2="43.3947" y2="57.5788" gradientUnits="userSpaceOnUse">
<stop stop-color="#25A4DE"/>
<stop offset="1" stop-color="#2B5DE9"/>
</linearGradient>
</defs>
</svg>
