<svg width="14" height="12" viewBox="0 0 14 12" fill="none" xmlns="http://www.w3.org/2000/svg">
<g clip-path="url(#clip0_17_46)">
<path d="M12.7177 0.133638L0.536879 4.97235C0.536879 4.97235 -0.0409961 5.1705 0.00450582 5.53917C0.0500078 5.90783 0.518678 6.07834 0.518678 6.07834L3.58096 7.12442L3.58551 7.12903V7.12442L10.9386 2.3917C10.9386 2.3917 11.3618 2.12903 11.3481 2.3917C11.3481 2.3917 11.4255 2.43779 11.198 2.65438C10.9705 2.87097 5.41924 7.92166 5.41924 7.92166L5.41014 8.01843L10.4062 11.8986C11.2389 12.2673 11.5438 11.4977 11.5438 11.4977L13.7142 0.423961C13.7142 -0.313367 12.7132 0.133638 12.7177 0.133638Z" fill="black"/>
<path d="M7.3212 9.5023L5.34186 11.3318C5.34186 11.3318 5.18716 11.4516 5.0188 11.3779L5.39646 7.98157" fill="black"/>
</g>
<defs>
<clipPath id="clip0_17_46">
<rect width="13.7143" height="12" fill="white"/>
</clipPath>
</defs>
</svg>
