<svg width="35" height="35" viewBox="0 0 35 35" fill="none" xmlns="http://www.w3.org/2000/svg">
<circle cx="17.5" cy="17.5" r="17.5" fill="#1393E2"/>
<g clip-path="url(#clip0_249_3934)">
<path d="M22.837 11.1559L8.62603 16.801C8.62603 16.801 7.95185 17.0322 8.00493 17.4623C8.05802 17.8924 8.6048 18.0913 8.6048 18.0913L12.1775 19.3118L12.1828 19.3172V19.3118L20.7614 13.7903C20.7614 13.7903 21.2551 13.4838 21.2392 13.7903C21.2392 13.7903 21.3294 13.844 21.064 14.0967C20.7986 14.3494 14.3221 20.2419 14.3221 20.2419L14.3115 20.3548L20.1403 24.8817C21.1118 25.3118 21.4674 24.4139 21.4674 24.4139L23.9996 11.4946C23.9996 10.6344 22.8317 11.1559 22.837 11.1559Z" fill="white"/>
<path d="M16.5416 22.086L14.2324 24.2204C14.2324 24.2204 14.0519 24.3602 13.8555 24.2742L14.2961 20.3118" fill="white"/>
</g>
<defs>
<clipPath id="clip0_249_3934">
<rect width="16" height="14" fill="white" transform="translate(8 11)"/>
</clipPath>
</defs>
</svg>
