<svg width="14" height="14" viewBox="0 0 14 14" fill="none" xmlns="http://www.w3.org/2000/svg">
<g clip-path="url(#clip0_17_49)">
<path d="M11.9451 2.0285C10.642 0.731591 8.88783 0 7.03341 0C3.19093 0 0.0501193 3.10926 0.0501193 6.93349C0.0501193 8.1639 0.367542 9.34442 0.968974 10.4086L0 14L3.69212 13.0356C4.71122 13.601 5.86396 13.8836 7.01671 13.8836C10.8592 13.8836 13.9833 10.7743 13.9833 6.95012C14 5.08789 13.2649 3.34204 11.9451 2.0285Z" fill="black"/>
<path d="M10.7923 8.64605C10.5918 8.54629 9.55601 8.04748 9.37224 7.98097C9.18847 7.91446 9.03811 7.88121 8.90446 8.08073C8.77081 8.28026 8.36985 8.74581 8.25291 8.89546C8.13596 9.02847 8.00231 9.0451 7.80183 8.94534C7.60136 8.84558 6.91639 8.62942 6.13119 7.91446C5.51305 7.36577 5.09539 6.68406 4.97844 6.48453C4.8615 6.28501 4.96174 6.16862 5.06198 6.06885C5.16221 5.96909 5.26245 5.81945 5.3794 5.70306C5.47964 5.58667 5.51305 5.50353 5.57988 5.35389C5.6467 5.22087 5.61329 5.08786 5.56317 4.98809C5.51305 4.88833 5.09539 3.87408 4.92832 3.4584C4.76126 3.05935 4.5942 3.10923 4.46054 3.10923C4.3436 3.10923 4.19324 3.10923 4.05959 3.10923C3.92594 3.10923 3.69205 3.15912 3.50828 3.37527C3.32451 3.57479 2.77319 4.09023 2.77319 5.10448C2.77319 6.11874 3.52498 7.09973 3.62522 7.24938C3.72546 7.38239 5.09539 9.47741 7.18369 10.3753C7.68489 10.5914 8.06914 10.7078 8.36985 10.8076C8.87104 10.9572 9.32212 10.9406 9.67295 10.8907C10.0739 10.8242 10.9092 10.3919 11.0763 9.90971C11.2434 9.42752 11.2434 9.01185 11.1932 8.92871C11.1431 8.7957 11.0095 8.74581 10.7923 8.64605Z" fill="white"/>
</g>
<defs>
<clipPath id="clip0_17_49">
<rect width="14" height="14" fill="white"/>
</clipPath>
</defs>
</svg>
