<svg width="33" height="34" viewBox="0 0 33 34" fill="none" xmlns="http://www.w3.org/2000/svg">
<g clip-path="url(#clip0_249_3932)">
<path d="M28.1852 4.93304C25.0741 1.74554 20.963 0 16.5556 0C7.51852 0 0.148148 7.55134 0.148148 16.8482C0.148148 19.808 0.888889 22.692 2.33333 25.2723L0 34L8.7037 31.6853C11.1111 33.0513 13.8148 33.7344 16.5556 33.7344C25.5926 33.7344 33 26.183 33 16.8862C33 12.3326 31.2963 8.12054 28.1852 4.93304ZM25.5556 23.6406C25.1852 24.7411 23.3333 25.7277 22.4444 25.8795C21.6667 25.9933 20.6667 26.0312 19.5556 25.6897C18.8889 25.4621 18.037 25.1964 16.9259 24.7031C12.2963 22.654 9.25926 17.8728 9.03704 17.5692C8.81482 17.2277 7.14815 14.9888 7.14815 12.6741C7.14815 10.3594 8.37037 9.18304 8.77778 8.72768C9.18519 8.23438 9.7037 8.12054 10 8.12054C10.2963 8.12054 10.6296 8.12054 10.8889 8.12054C11.1852 8.12054 11.5556 8.0067 11.9259 8.91741C12.2963 9.86607 13.2222 12.1808 13.3333 12.4085C13.4444 12.6362 13.5185 12.9397 13.3704 13.2433C13.2222 13.5848 13.1481 13.7746 12.9259 14.0402C12.6667 14.3058 12.4444 14.6473 12.2222 14.875C12 15.1027 11.7778 15.3683 12.037 15.8237C12.2963 16.279 13.2222 17.8348 14.5926 19.0871C16.3333 20.7188 17.8519 21.2121 18.2963 21.4397C18.7407 21.6674 19.037 21.6295 19.2963 21.3259C19.5556 20.9844 20.4444 19.9219 20.7407 19.4665C21.037 19.0112 21.3704 19.0871 21.7778 19.2388C22.1852 19.3906 24.4815 20.529 24.9259 20.7567C25.4074 20.9844 25.7037 21.0982 25.8148 21.4018C25.9259 21.5915 25.9259 22.5402 25.5556 23.6406Z" fill="#33CE62"/>
</g>
<defs>
<clipPath id="clip0_249_3932">
<rect width="33" height="34" fill="white"/>
</clipPath>
</defs>
</svg>
